<svg width="346" height="302" viewBox="0 0 346 302" fill="none" xmlns="http://www.w3.org/2000/svg">
<mask id="mask0_95_1890" style="mask-type:luminance" maskUnits="userSpaceOnUse" x="1" y="1" width="344" height="300">
<path d="M1.6665 1.6665H344.333V300.333H1.6665V1.6665Z" fill="white"/>
</mask>
<g mask="url(#mask0_95_1890)">
<mask id="mask1_95_1890" style="mask-type:luminance" maskUnits="userSpaceOnUse" x="-78" y="-49" width="441" height="378">
<path d="M-77.5784 107.646L260.13 -48.3542L362.036 172.25L24.3227 328.25L-77.5784 107.646Z" fill="white"/>
</mask>
<g mask="url(#mask1_95_1890)">
<mask id="mask2_95_1890" style="mask-type:luminance" maskUnits="userSpaceOnUse" x="-78" y="-49" width="441" height="378">
<path d="M-77.5784 107.646L260.13 -48.3542L362.036 172.25L24.3227 328.25L-77.5784 107.646Z" fill="white"/>
</mask>
<g mask="url(#mask2_95_1890)">
<path d="M31.3071 299.896C23.729 300.495 13.8436 299.604 11.8019 292.281C11.229 290.219 11.5102 288 11.7654 285.896C13.0363 276.609 15.0675 267.495 17.8592 258.547C21.0102 248.453 25.1404 238.552 26.3279 228.047C27.9529 213.74 24.0259 199.443 20.13 185.573L8.69773 144.859C3.83315 127.536 -0.979351 108.698 5.67169 91.9688C9.83836 81.4896 18.354 74.1146 27.5988 67.6407C55.104 48.3959 80.7238 38.1302 115.187 20.6407C124.229 16.0521 149.62 8.11462 159.416 5.51045C184.64 -1.18226 197.75 5.7292 212.448 19.8646C227.146 33.9948 237.021 52.599 247.661 69.9948C258.302 87.3854 270.219 104.75 287.26 115.943C302.682 126.073 321.099 130.365 338.015 137.719C339.984 138.573 342.109 139.651 342.88 141.656C343.479 143.208 343.088 144.932 342.609 146.542C338.786 158.354 328.5 166.734 318.552 174.167C256.271 220.734 187.562 249.51 111.818 279.865C85.3019 290.495 60.1196 301.156 31.4373 299.964" fill="white"/>
</g>
</g>
</g>
<mask id="mask3_95_1890" style="mask-type:luminance" maskUnits="userSpaceOnUse" x="0" y="0" width="346" height="302">
<path d="M0.333252 0.333252H345.667V301.667H0.333252V0.333252Z" fill="white"/>
</mask>
<g mask="url(#mask3_95_1890)">
<mask id="mask4_95_1890" style="mask-type:luminance" maskUnits="userSpaceOnUse" x="-78" y="-49" width="441" height="378">
<path d="M-77.5781 107.646L260.13 -48.3542L362.036 172.25L24.3229 328.25L-77.5781 107.646Z" fill="white"/>
</mask>
<g mask="url(#mask4_95_1890)">
<mask id="mask5_95_1890" style="mask-type:luminance" maskUnits="userSpaceOnUse" x="-78" y="-49" width="441" height="378">
<path d="M-77.5781 107.646L260.13 -48.3542L362.036 172.25L24.3229 328.25L-77.5781 107.646Z" fill="white"/>
</mask>
<g mask="url(#mask5_95_1890)">
<path d="M31.073 298.583C23.8074 299.088 12.3803 298.458 12.8022 288.604C13.1824 279.635 15.7709 270.26 18.2865 261.698C22.8907 246.01 29.1719 231.568 27.7397 214.844C26.2813 197.901 20.2865 181.286 15.6876 165.015C11.2605 149.255 5.57299 133.219 4.02611 116.823C3.28132 109.01 3.73965 100.979 6.4584 93.5519C9.36986 85.6092 14.9844 79.255 21.4428 73.979C33.6199 63.9582 47.7397 56.0259 61.6667 48.6978C76.0209 41.0988 90.7397 34.2967 105.245 27.1144C116.797 21.3332 128.708 16.4425 140.984 12.4373C152.479 8.72379 164.609 4.30192 176.833 4.31234C188.38 4.30713 198.172 9.17692 206.792 16.5675C233.073 39.0936 244.25 73.4425 266.578 99.255C271.724 105.198 277.49 110.458 283.88 115.036C290.276 119.609 297.109 123.38 304.396 126.333C311.719 129.406 319.287 131.943 326.745 134.719C330.349 136.062 334.042 137.359 337.521 139.015C341.151 140.719 342.266 143.448 340.906 147.255C340.13 149.38 339.146 151.406 337.958 153.328C333.807 160.104 327.698 165.432 321.484 170.265C314.604 175.63 307.474 180.687 300.276 185.614C285.49 195.734 270.177 205.088 254.51 213.781C223.255 231.151 190.641 245.911 157.693 259.729C140.563 266.917 123.323 273.833 106.089 280.75C90.224 287.12 74.2084 293.484 57.3334 296.667C48.8022 298.297 40.1928 298.969 31.5105 298.672C29.7969 298.62 29.5261 301.276 31.2449 301.328C48.8542 301.932 65.9584 298.198 82.5001 292.552C100.313 286.474 117.698 279 135.125 271.911C170.729 257.432 206.141 242.318 240.219 224.5C256.484 215.995 272.427 206.864 287.891 196.974C295.839 191.896 303.646 186.604 311.307 181.094C318.281 176.099 325.359 171.099 331.557 165.156C336.818 160.104 341.62 154.062 343.818 147C346.24 139.135 339.839 136.927 333.693 134.469C317.302 127.917 299.792 123.385 285.271 112.963C254.604 90.9478 243.537 52.5207 219.198 25.0207C211.287 16.0728 201.578 7.10921 189.922 3.49984C178.266 -0.109539 166.052 2.15609 154.568 5.48942C142.573 8.95296 130.505 12.6665 118.979 17.4634C111.771 20.4738 104.88 24.3332 97.8647 27.7603C90.0261 31.5832 82.1563 35.354 74.3334 39.2186C59.6355 46.4894 45.1667 54.229 31.5261 63.3488C18.3334 72.1561 5.87507 82.2759 2.28653 98.505C-1.07285 113.677 2.97403 129.349 7.05215 143.958C12.2501 162.515 18.1251 181.026 22.4949 199.802C24.5417 208.578 25.9324 217.62 25.1199 226.635C24.3074 235.646 21.1147 244.427 18.2292 253.062C15.3699 261.495 13.1303 270.088 11.5105 278.849C10.3751 285.161 8.1407 293.265 14.0522 297.922C18.8282 301.661 25.7813 301.651 31.5313 301.255C33.2449 301.135 32.7865 298.489 31.0938 298.604L31.073 298.583Z" fill="#7A5CFA"/>
</g>
</g>
</g>
<mask id="mask6_95_1890" style="mask-type:luminance" maskUnits="userSpaceOnUse" x="25" y="104" width="253" height="117">
<path d="M25.6665 104.333H277.667V220.333H25.6665V104.333Z" fill="white"/>
</mask>
<g mask="url(#mask6_95_1890)">
<mask id="mask7_95_1890" style="mask-type:luminance" maskUnits="userSpaceOnUse" x="-78" y="-49" width="441" height="378">
<path d="M-77.5784 107.646L260.13 -48.3542L362.036 172.25L24.3227 328.25L-77.5784 107.646Z" fill="white"/>
</mask>
<g mask="url(#mask7_95_1890)">
<mask id="mask8_95_1890" style="mask-type:luminance" maskUnits="userSpaceOnUse" x="-78" y="-49" width="441" height="378">
<path d="M-77.5784 107.646L260.13 -48.3542L362.036 172.25L24.3227 328.25L-77.5784 107.646Z" fill="white"/>
</mask>
<g mask="url(#mask8_95_1890)">
<path d="M27.3488 219.901C44.5207 219.62 61.1509 216.479 77.2394 210.49C94.4686 204.099 111.255 196.464 128.198 189.307C162.911 174.703 197.052 159.38 229.536 140.203C238.281 135.042 246.896 129.677 255.385 124.115C262.901 119.187 270.849 114.437 276.401 107.193C277.469 105.854 275.26 104.297 274.208 105.672C269.083 112.26 261.802 116.719 254.916 121.26C247.057 126.432 239.088 131.427 231.005 136.25C215.713 145.375 200.062 153.854 184.052 161.687C152.015 177.328 118.713 190.656 85.7655 204.266C67.0623 211.984 47.9113 216.917 27.6352 217.234C25.9582 217.255 25.6613 219.932 27.38 219.885L27.3488 219.901Z" fill="#7A5CFA"/>
</g>
</g>
</g>
<mask id="mask9_95_1890" style="mask-type:luminance" maskUnits="userSpaceOnUse" x="4" y="4" width="191" height="90">
<path d="M4.33325 4.33325H195V93.6666H4.33325V4.33325Z" fill="white"/>
</mask>
<g mask="url(#mask9_95_1890)">
<mask id="mask10_95_1890" style="mask-type:luminance" maskUnits="userSpaceOnUse" x="-78" y="-49" width="441" height="378">
<path d="M-77.5781 107.646L260.13 -48.3542L362.036 172.25L24.3229 328.25L-77.5781 107.646Z" fill="white"/>
</mask>
<g mask="url(#mask10_95_1890)">
<mask id="mask11_95_1890" style="mask-type:luminance" maskUnits="userSpaceOnUse" x="-78" y="-49" width="441" height="378">
<path d="M-77.5781 107.646L260.13 -48.3542L362.036 172.25L24.3229 328.25L-77.5781 107.646Z" fill="white"/>
</mask>
<g mask="url(#mask11_95_1890)">
<path d="M6.54175 93.5417C19.0105 91.0209 30.9949 84.7761 42.7345 80.0365L81.0782 64.5417C93.6251 59.474 105.365 52.9375 117.703 47.4531C130.203 41.9011 142.609 36.1354 154.755 29.849C168.13 22.9792 181.042 15.3281 193.49 6.89585C194.906 5.9271 193.172 3.88543 191.761 4.84898C169.448 20.0625 145.25 32.1354 120.662 43.1719C108.839 48.4792 97.5261 54.9688 85.5157 59.8334C73.2032 64.8334 60.8803 69.8125 48.5522 74.7761L27.6407 83.2292C20.5886 86.0729 13.5522 89.375 6.06779 90.8906C4.37508 91.2344 4.81258 93.875 6.50008 93.5365L6.54175 93.5417Z" fill="#7A5CFA"/>
</g>
</g>
</g>
<mask id="mask12_95_1890" style="mask-type:luminance" maskUnits="userSpaceOnUse" x="12" y="137" width="323" height="149">
<path d="M12.3333 137.667H335V285.667H12.3333V137.667Z" fill="white"/>
</mask>
<g mask="url(#mask12_95_1890)">
<mask id="mask13_95_1890" style="mask-type:luminance" maskUnits="userSpaceOnUse" x="-78" y="-49" width="441" height="378">
<path d="M-77.5781 107.646L260.13 -48.3542L362.036 172.25L24.3229 328.25L-77.5781 107.646Z" fill="white"/>
</mask>
<g mask="url(#mask13_95_1890)">
<mask id="mask14_95_1890" style="mask-type:luminance" maskUnits="userSpaceOnUse" x="-78" y="-49" width="441" height="378">
<path d="M-77.5781 107.646L260.13 -48.3542L362.036 172.25L24.3229 328.25L-77.5781 107.646Z" fill="white"/>
</mask>
<g mask="url(#mask14_95_1890)">
<path d="M12.5208 283.656C13.2812 283.734 14.0364 283.813 14.7968 283.88L14.7291 284.646C13.9635 284.573 13.203 284.5 12.4426 284.417L12.5208 283.656ZM17.078 284.073C17.8385 284.135 18.6041 284.188 19.3645 284.234L19.3176 285C18.552 284.948 17.7864 284.896 17.0208 284.839L17.078 284.073ZM21.6562 284.359C22.4218 284.396 23.1822 284.427 23.9478 284.448L23.9218 285.214C23.1562 285.193 22.3853 285.161 21.6197 285.125L21.6562 284.359ZM26.2447 284.505C27.0103 284.521 27.776 284.526 28.5416 284.526L28.5364 285.297C27.7708 285.292 26.9999 285.286 26.2343 285.271L26.2447 284.505ZM30.828 284.516C31.5937 284.505 32.3593 284.49 33.1197 284.469L33.1458 285.234C32.3749 285.255 31.6093 285.271 30.8385 285.281L30.828 284.516ZM35.4114 284.391C36.177 284.359 36.9426 284.318 37.703 284.276L37.7499 285.042C36.9791 285.083 36.2135 285.12 35.4478 285.156L35.4114 284.391ZM39.9947 284.125C40.7551 284.073 41.5208 284.01 42.2812 283.943L42.3489 284.703C41.5833 284.771 40.8176 284.833 40.052 284.891L39.9947 284.125ZM44.5676 283.724C45.328 283.646 46.0833 283.563 46.8437 283.474L46.9374 284.234C46.1718 284.323 45.4114 284.406 44.6458 284.49L44.5676 283.724ZM49.1197 283.188C49.8801 283.089 50.6353 282.979 51.3905 282.87L51.5051 283.625C50.7447 283.74 49.9843 283.844 49.2239 283.948L49.1197 283.188ZM53.6562 282.516C54.4114 282.391 55.1614 282.266 55.9114 282.13L56.0468 282.885C55.2916 283.021 54.5364 283.146 53.7812 283.271L53.6562 282.516ZM58.1718 281.708C58.927 281.563 59.677 281.411 60.4218 281.25L60.5833 282C59.828 282.161 59.0728 282.313 58.3176 282.458L58.1718 281.708ZM62.6666 280.766C63.4114 280.594 64.1562 280.422 64.901 280.245L65.078 280.984C64.3333 281.167 63.5833 281.344 62.8333 281.51L62.6666 280.766ZM67.1197 279.688C67.8593 279.5 68.5989 279.302 69.3333 279.104L69.5312 279.839C68.7968 280.042 68.052 280.24 67.3124 280.432L67.1197 279.688ZM71.5312 278.479L73.7343 277.807L73.9583 278.542L71.7551 279.208L71.5312 278.479ZM75.9166 277.115L78.0937 276.385L78.3385 277.115L76.1562 277.839L75.9166 277.115ZM80.2603 275.635L82.4166 274.865L82.677 275.583L80.5155 276.359L80.2603 275.635ZM84.5676 274.068L86.7135 273.255L86.9843 273.969L84.8385 274.786L84.5676 274.068ZM88.8541 272.427L90.9895 271.583L91.2708 272.297L89.1301 273.141L88.8541 272.427ZM93.1197 270.734L95.2499 269.875L95.5364 270.583L93.4062 271.443L93.1197 270.734ZM97.3801 269.005L99.3905 268.188L99.5051 268.141L99.7968 268.849L99.6822 268.896L97.6666 269.719L97.3801 269.005ZM101.63 267.271L103.76 266.406L104.047 267.115L101.922 267.979L101.63 267.271ZM105.885 265.536L108.016 264.667L108.302 265.38L106.177 266.245L105.885 265.536ZM110.141 263.802L112.271 262.932L112.557 263.641L110.432 264.51L110.141 263.802ZM114.396 262.063L116.526 261.198L116.812 261.906L114.687 262.776L114.396 262.063ZM118.651 260.328L120.781 259.464L121.068 260.172L118.943 261.036L118.651 260.328ZM122.906 258.594L125.036 257.724L125.323 258.432L123.198 259.302L122.906 258.594ZM127.161 256.859L129.292 255.99L129.578 256.698L127.453 257.568L127.161 256.859ZM131.417 255.12L133.542 254.255L133.833 254.964L131.708 255.828L131.417 255.12ZM135.672 253.385L137.797 252.516L138.088 253.229L135.958 254.094L135.672 253.385ZM139.927 251.651L142.052 250.781L142.344 251.49L140.213 252.359L139.927 251.651ZM144.182 249.917L146.307 249.047L146.599 249.755L144.469 250.625L144.182 249.917ZM148.437 248.177L150.562 247.313L150.854 248.021L148.724 248.885L148.437 248.177ZM152.693 246.443L153.63 246.057L154.818 245.573L155.109 246.286L153.922 246.766L152.979 247.151L152.693 246.443ZM156.948 244.708L157.401 244.526L159.073 243.844L159.365 244.552L157.687 245.234L157.234 245.417L156.948 244.708ZM161.203 242.974L162.042 242.63L163.328 242.104L163.62 242.813L162.328 243.339L161.49 243.682L161.203 242.974ZM165.453 241.234L166.036 240.995L167.578 240.359L167.87 241.068L166.328 241.703L165.745 241.943L165.453 241.234ZM169.703 239.484L171.823 238.604L172.12 239.313L169.995 240.193L169.703 239.484ZM173.948 237.724L176.068 236.839L176.359 237.547L174.24 238.432L173.948 237.724ZM178.182 235.948L180.302 235.057L180.599 235.76L178.479 236.656L178.182 235.948ZM182.417 234.156L184.526 233.255L184.828 233.958L182.713 234.859L182.417 234.156ZM186.635 232.344L188.745 231.432L189.047 232.135L186.943 233.047L186.635 232.344ZM190.849 230.51L192.948 229.583L193.26 230.286L191.156 231.214L190.849 230.51ZM195.047 228.651L197.141 227.714L197.453 228.411L195.359 229.349L195.047 228.651ZM199.234 226.766L199.568 226.609L201.318 225.813L201.641 226.505L199.885 227.307L199.552 227.458L199.234 226.766ZM203.401 224.849L205.484 223.88L205.807 224.578L203.724 225.547L203.401 224.849ZM207.562 222.906L209.635 221.922L209.963 222.615L207.891 223.599L207.562 222.906ZM211.708 220.932L212.615 220.495L213.776 219.932L214.109 220.625L212.948 221.188L212.042 221.625L211.708 220.932ZM215.838 218.927L217.901 217.917L218.24 218.604L216.177 219.615L215.838 218.927ZM219.958 216.896L222.016 215.865L222.359 216.552L220.302 217.578L219.958 216.896ZM224.062 214.833L226.115 213.786L226.458 214.469L224.411 215.516L224.062 214.833ZM228.156 212.734L230.198 211.677L230.552 212.359L228.51 213.417L228.156 212.734ZM232.229 210.615L234.26 209.542L234.62 210.219L232.588 211.292L232.229 210.615ZM236.286 208.464L238.312 207.375L238.672 208.052L236.651 209.141L236.286 208.464ZM240.328 206.286L242.349 205.182L242.713 205.854L240.698 206.958L240.328 206.286ZM244.354 204.073L246.365 202.958L246.74 203.63L244.729 204.745L244.354 204.073ZM248.37 201.839L250.37 200.708L250.745 201.375L248.745 202.505L248.37 201.839ZM252.365 199.568L254.354 198.422L254.74 199.089L252.745 200.234L252.365 199.568ZM256.344 197.276L258.328 196.115L258.713 196.776L256.729 197.932L256.344 197.276ZM260.307 194.948L262.281 193.776L262.672 194.432L260.698 195.609L260.307 194.948ZM264.25 192.594L266.219 191.406L266.615 192.063L264.646 193.25L264.25 192.594ZM268.182 190.214L270.141 189.016L270.542 189.667L268.583 190.87L268.182 190.214ZM272.094 187.807L274.042 186.589L274.448 187.24L272.495 188.458L272.094 187.807ZM275.984 185.37L277.536 184.385L277.927 184.141L278.338 184.786L277.948 185.031L276.396 186.016L275.984 185.37ZM279.859 182.906L281.792 181.661L282.208 182.307L280.276 183.547L279.859 182.906ZM283.719 180.411L285.641 179.156L286.062 179.797L284.135 181.052L283.719 180.411ZM287.557 177.891L289.474 176.625L289.896 177.26L287.979 178.531L287.557 177.891ZM291.38 175.344L293.286 174.057L293.713 174.693L291.807 175.979L291.38 175.344ZM295.187 172.771L297.083 171.469L297.516 172.099L295.62 173.401L295.187 172.771ZM298.974 170.167L300.859 168.854L301.297 169.479L299.411 170.792L298.974 170.167ZM302.74 167.536L304.62 166.208L305.062 166.833L303.182 168.161L302.74 167.536ZM306.49 164.88L308.354 163.542L308.802 164.161L306.932 165.5L306.49 164.88ZM310.213 162.198L312.073 160.844L312.521 161.464L310.667 162.818L310.213 162.198ZM313.922 159.49L315.766 158.125L316.224 158.74L314.375 160.104L313.922 159.49ZM317.609 156.755L317.807 156.604C318.365 156.188 318.901 155.781 319.411 155.375L319.885 155.974C319.37 156.385 318.828 156.797 318.266 157.219L318.068 157.37L317.609 156.755ZM321.182 153.932C321.781 153.427 322.354 152.922 322.906 152.417L323.427 152.979C322.865 153.495 322.281 154.005 321.677 154.516L321.182 153.932ZM324.542 150.849C325.083 150.307 325.609 149.755 326.115 149.198L326.682 149.714C326.167 150.281 325.635 150.839 325.083 151.391L324.542 150.849ZM327.609 147.464C328.088 146.88 328.547 146.292 328.984 145.693L329.604 146.146C329.156 146.755 328.687 147.354 328.203 147.948L327.609 147.464ZM330.286 143.807C330.703 143.167 331.104 142.516 331.484 141.849L332.146 142.229C331.76 142.906 331.354 143.573 330.927 144.229L330.286 143.807ZM332.531 139.896C332.875 139.219 333.198 138.526 333.505 137.828L334.203 138.135C333.896 138.849 333.562 139.547 333.219 140.24L332.531 139.896Z" fill="black"/>
</g>
</g>
</g>
<mask id="mask15_95_1890" style="mask-type:luminance" maskUnits="userSpaceOnUse" x="13" y="129" width="309" height="145">
<path d="M13.6665 129.667H321.667V273.667H13.6665V129.667Z" fill="white"/>
</mask>
<g mask="url(#mask15_95_1890)">
<mask id="mask16_95_1890" style="mask-type:luminance" maskUnits="userSpaceOnUse" x="-78" y="-49" width="441" height="378">
<path d="M-77.5784 107.646L260.13 -48.3542L362.036 172.25L24.3227 328.25L-77.5784 107.646Z" fill="white"/>
</mask>
<g mask="url(#mask16_95_1890)">
<mask id="mask17_95_1890" style="mask-type:luminance" maskUnits="userSpaceOnUse" x="-78" y="-49" width="441" height="378">
<path d="M-77.5784 107.646L260.13 -48.3542L362.036 172.25L24.3227 328.25L-77.5784 107.646Z" fill="white"/>
</mask>
<g mask="url(#mask17_95_1890)">
<path d="M14.307 271.047C15.0622 271.146 15.8226 271.24 16.5778 271.328L16.4893 272.088C15.7288 272 14.9684 271.906 14.208 271.807L14.307 271.047ZM18.8538 271.573C19.6143 271.646 20.3747 271.719 21.1351 271.781L21.0726 272.542C20.307 272.479 19.5413 272.411 18.7757 272.333L18.8538 271.573ZM23.4215 271.948C24.1872 272 24.9476 272.042 25.7132 272.083L25.6768 272.849C24.9059 272.807 24.1403 272.766 23.3695 272.713L23.4215 271.948ZM28.0101 272.177C28.7757 272.203 29.5361 272.224 30.3018 272.234L30.2861 273C29.5205 272.99 28.7549 272.969 27.984 272.943L28.0101 272.177ZM32.5934 272.255C33.3538 272.26 34.1195 272.255 34.8851 272.24L34.8955 273.005C34.1247 273.021 33.3591 273.026 32.5882 273.021L32.5934 272.255ZM37.1768 272.187C37.9424 272.161 38.7028 272.135 39.4684 272.099L39.5049 272.865C38.7341 272.901 37.9684 272.927 37.1976 272.953L37.1768 272.187ZM41.7601 271.969C42.5205 271.922 43.2861 271.865 44.0466 271.807L44.1091 272.568C43.3434 272.63 42.5726 272.687 41.807 272.734L41.7601 271.969ZM46.333 271.604C47.0934 271.531 47.8538 271.448 48.6143 271.365L48.6976 272.125C47.9372 272.213 47.1715 272.292 46.4059 272.365L46.333 271.604ZM50.8903 271.088C51.6455 270.99 52.4059 270.885 53.1611 270.776L53.2705 271.531C52.5101 271.646 51.7497 271.75 50.9893 271.849L50.8903 271.088ZM55.4216 270.427C56.1768 270.302 56.932 270.177 57.6872 270.042L57.8226 270.792C57.0622 270.927 56.307 271.057 55.5466 271.182L55.4216 270.427ZM59.9424 269.615C60.6924 269.469 61.4424 269.318 62.1924 269.156L62.3538 269.906C61.5986 270.068 60.8434 270.219 60.0882 270.37L59.9424 269.615ZM64.432 268.661C65.1716 268.49 65.9163 268.312 66.6559 268.13L66.8382 268.87C66.0986 269.057 65.3486 269.234 64.6038 269.406L64.432 268.661ZM68.8695 267.562L69.6872 267.344L71.083 266.948L71.2913 267.687L69.8851 268.083L69.0674 268.302L68.8695 267.562ZM73.2757 266.297L75.4684 265.604L75.6976 266.333L73.5049 267.026L73.2757 266.297ZM77.6403 264.885L79.8122 264.135L80.0622 264.859L77.8903 265.609L77.6403 264.885ZM81.9632 263.365L84.1195 262.573L84.3851 263.292L82.2288 264.083L81.9632 263.365ZM86.2601 261.76L88.4059 260.927L88.682 261.641L86.5361 262.474L86.2601 261.76ZM90.5413 260.088L92.6716 259.234L92.958 259.948L90.8226 260.797L90.5413 260.088ZM94.8018 258.375L96.932 257.516L97.2184 258.224L95.0882 259.088L94.8018 258.375ZM99.0622 256.651L101.192 255.792L101.479 256.5L99.3486 257.365L99.0622 256.651ZM103.323 254.927L105.448 254.068L105.739 254.776L103.609 255.641L103.323 254.927ZM107.578 253.203L109.708 252.344L109.994 253.052L107.869 253.917L107.578 253.203ZM111.838 251.479L113.968 250.62L114.255 251.328L112.125 252.193L111.838 251.479ZM116.099 249.755L118.229 248.896L118.515 249.604L116.385 250.469L116.099 249.755ZM120.359 248.031L122.489 247.172L122.776 247.88L120.646 248.745L120.359 248.031ZM124.619 246.307L126.75 245.448L127.036 246.156L124.906 247.021L124.619 246.307ZM128.88 244.583L131.01 243.724L131.297 244.432L129.166 245.297L128.88 244.583ZM133.14 242.859L135.265 242L135.557 242.708L133.427 243.573L133.14 242.859ZM137.396 241.135L139.526 240.276L139.812 240.984L137.687 241.849L137.396 241.135ZM141.656 239.411L143.786 238.552L144.073 239.26L141.942 240.125L141.656 239.411ZM145.916 237.687L148.047 236.828L148.333 237.536L146.203 238.401L145.916 237.687ZM150.177 235.963L152.307 235.104L152.593 235.812L150.463 236.677L150.177 235.963ZM154.437 234.24L156.343 233.469L156.567 233.38L156.854 234.088L156.63 234.177L154.724 234.953L154.437 234.24ZM158.692 232.516L159.651 232.125L160.823 231.646L161.109 232.354L159.937 232.833L158.984 233.224L158.692 232.516ZM162.948 230.776L163.797 230.427L165.073 229.906L165.364 230.615L164.088 231.135L163.239 231.484L162.948 230.776ZM167.198 229.031L169.317 228.151L169.614 228.859L167.489 229.74L167.198 229.031ZM171.437 227.266L173.557 226.38L173.854 227.083L171.734 227.974L171.437 227.266ZM175.672 225.484L177.786 224.588L178.088 225.292L175.974 226.193L175.672 225.484ZM179.901 223.682L182.01 222.776L182.312 223.479L180.203 224.385L179.901 223.682ZM184.114 221.859L186.213 220.932L186.526 221.635L184.422 222.557L184.114 221.859ZM188.312 220L190.036 219.229L190.411 219.062L190.724 219.76L190.349 219.927L188.625 220.698L188.312 220ZM192.5 218.115L192.625 218.057L192.682 218.031L194.588 217.161L194.906 217.859L193 218.729L192.942 218.755L192.817 218.812L192.5 218.115ZM196.666 216.198L198.75 215.229L199.073 215.922L196.994 216.896L196.666 216.198ZM200.823 214.25L202.901 213.266L203.229 213.953L201.156 214.943L200.823 214.25ZM204.968 212.271L206.547 211.5L207.031 211.266L207.369 211.953L206.88 212.193L205.302 212.958L204.968 212.271ZM209.093 210.255L209.218 210.193L211.151 209.234L211.494 209.917L209.557 210.88L209.432 210.937L209.093 210.255ZM213.208 208.203L214.661 207.469L215.255 207.167L215.604 207.849L215.005 208.151L213.552 208.891L213.208 208.203ZM217.302 206.125L219.349 205.068L219.698 205.75L217.656 206.802L217.302 206.125ZM221.385 204.005L223.416 202.937L223.776 203.615L221.739 204.687L221.385 204.005ZM225.442 201.865L227.468 200.776L227.833 201.453L225.807 202.536L225.442 201.865ZM229.489 199.687L231.505 198.583L231.869 199.255L229.854 200.359L229.489 199.687ZM233.515 197.474L235.521 196.359L235.896 197.026L233.885 198.146L233.515 197.474ZM237.521 195.234L239.521 194.099L239.901 194.766L237.901 195.901L237.521 195.234ZM241.515 192.963L243.505 191.812L243.885 192.474L241.896 193.625L241.515 192.963ZM245.489 190.656L247.468 189.49L247.859 190.151L245.875 191.318L245.489 190.656ZM249.442 188.318L251.416 187.141L251.807 187.797L249.838 188.974L249.442 188.318ZM253.38 185.953L255.343 184.755L255.739 185.406L253.776 186.604L253.38 185.953ZM257.297 183.552L259.25 182.338L259.656 182.99L257.703 184.203L257.297 183.552ZM261.198 181.12L263.14 179.896L263.547 180.542L261.604 181.771L261.198 181.12ZM265.073 178.661L267.005 177.417L267.422 178.062L265.489 179.307L265.073 178.661ZM268.932 176.172L270.854 174.911L271.276 175.552L269.354 176.812L268.932 176.172ZM272.771 173.651L274.682 172.375L275.109 173.016L273.192 174.286L272.771 173.651ZM276.588 171.099L278.489 169.807L278.922 170.443L277.015 171.729L276.588 171.099ZM280.385 168.516L282.281 167.208L282.718 167.838L280.823 169.146L280.385 168.516ZM284.166 165.901L286.052 164.578L286.489 165.208L284.609 166.526L284.166 165.901ZM287.927 163.255L289.797 161.922L290.244 162.547L288.369 163.88L287.927 163.255ZM291.661 160.583L293.526 159.234L293.974 159.854L292.114 161.203L291.661 160.583ZM295.375 157.88L297.229 156.521L297.682 157.135L295.833 158.5L295.375 157.88ZM299.067 155.151L299.317 154.969L300.906 153.776L301.364 154.391L299.776 155.578L299.526 155.766L299.067 155.151ZM302.734 152.396L304.562 151.005L305.026 151.615L303.198 153.005L302.734 152.396ZM306.349 149.604C306.953 149.109 307.536 148.62 308.093 148.13L308.599 148.708C308.036 149.203 307.442 149.698 306.833 150.198L306.349 149.604ZM309.781 146.583C310.333 146.057 310.864 145.521 311.375 144.979L311.932 145.51C311.411 146.057 310.869 146.599 310.312 147.135L309.781 146.583ZM312.906 143.276C313.396 142.698 313.869 142.109 314.323 141.51L314.932 141.974C314.474 142.583 313.989 143.182 313.489 143.771L312.906 143.276ZM315.63 139.677C316.062 139.036 316.474 138.385 316.859 137.724L317.521 138.115C317.125 138.786 316.708 139.453 316.271 140.104L315.63 139.677ZM317.942 135.755C318.281 135.094 318.604 134.417 318.906 133.729L319.609 134.042C319.297 134.74 318.968 135.432 318.625 136.104L317.942 135.755ZM319.786 131.583C319.927 131.213 320.062 130.833 320.192 130.458L320.916 130.703C320.786 131.094 320.646 131.474 320.505 131.854L319.786 131.583Z" fill="black"/>
</g>
</g>
</g>
<mask id="mask18_95_1890" style="mask-type:luminance" maskUnits="userSpaceOnUse" x="16" y="125" width="295" height="137">
<path d="M16.3333 125.667H311V261.667H16.3333V125.667Z" fill="white"/>
</mask>
<g mask="url(#mask18_95_1890)">
<mask id="mask19_95_1890" style="mask-type:luminance" maskUnits="userSpaceOnUse" x="-78" y="-49" width="441" height="378">
<path d="M-77.5781 107.646L260.13 -48.3542L362.036 172.25L24.3229 328.25L-77.5781 107.646Z" fill="white"/>
</mask>
<g mask="url(#mask19_95_1890)">
<mask id="mask20_95_1890" style="mask-type:luminance" maskUnits="userSpaceOnUse" x="-78" y="-49" width="441" height="378">
<path d="M-77.5781 107.646L260.13 -48.3542L362.036 172.25L24.3229 328.25L-77.5781 107.646Z" fill="white"/>
</mask>
<g mask="url(#mask20_95_1890)">
<path d="M17.4376 259.719C18.1928 259.802 18.9532 259.88 19.7136 259.948L19.6407 260.708C18.8803 260.64 18.1147 260.562 17.3542 260.479L17.4376 259.719ZM21.9897 260.135C22.7553 260.193 23.5157 260.245 24.2761 260.292L24.2345 261.052C23.4688 261.01 22.698 260.958 21.9324 260.901L21.9897 260.135ZM26.5678 260.406C27.3334 260.437 28.099 260.463 28.8647 260.484L28.8438 261.25C28.0782 261.229 27.3074 261.203 26.5365 261.172L26.5678 260.406ZM31.1615 260.521C31.922 260.531 32.6876 260.531 33.4532 260.526L33.4584 261.292C32.6876 261.297 31.922 261.297 31.1563 261.286L31.1615 260.521ZM35.7397 260.489C36.5053 260.469 37.2709 260.443 38.0313 260.411L38.0626 261.177C37.297 261.208 36.5261 261.234 35.7605 261.255L35.7397 260.489ZM40.323 260.302C41.0886 260.26 41.849 260.208 42.6147 260.151L42.6667 260.917C41.9011 260.974 41.1355 261.021 40.3647 261.068L40.323 260.302ZM44.9011 259.963C45.6615 259.896 46.422 259.823 47.1824 259.739L47.2605 260.5C46.5001 260.583 45.7345 260.656 44.9688 260.729L44.9011 259.963ZM49.4584 259.479C50.2188 259.385 50.974 259.281 51.7345 259.177L51.8386 259.937C51.0782 260.042 50.3178 260.146 49.5522 260.239L49.4584 259.479ZM54.0001 258.838C54.7553 258.724 55.5053 258.599 56.2605 258.463L56.3907 259.219C55.6355 259.354 54.8751 259.479 54.1199 259.599L54.0001 258.838ZM58.5157 258.052C59.2657 257.911 60.0209 257.76 60.7709 257.604L60.9272 258.354C60.172 258.51 59.4167 258.661 58.6615 258.807L58.5157 258.052ZM63.0105 257.114C63.7553 256.948 64.5001 256.776 65.2449 256.594L65.422 257.338C64.6772 257.521 63.9272 257.693 63.1772 257.864L63.0105 257.114ZM67.4636 256.036C68.198 255.844 68.9376 255.646 69.6667 255.443L69.8751 256.177C69.1355 256.385 68.3959 256.583 67.6563 256.776L67.4636 256.036ZM71.8647 254.797L74.0626 254.114L74.2917 254.844L72.0938 255.531L71.8647 254.797ZM76.2345 253.401L78.4115 252.656L78.6563 253.38L76.4845 254.125L76.2345 253.401ZM80.5626 251.89L82.7188 251.094L82.9845 251.812L80.8282 252.609L80.5626 251.89ZM84.8595 250.286L87.0053 249.453L87.2813 250.167L85.1407 251L84.8595 250.286ZM89.1355 248.609L89.7657 248.359L91.2709 247.755L91.5574 248.469L90.0522 249.073L89.422 249.323L89.1355 248.609ZM93.3959 246.896L95.5261 246.031L95.8126 246.739L93.6876 247.604L93.3959 246.896ZM97.6511 245.161L99.7813 244.297L100.068 245.005L97.9428 245.87L97.6511 245.161ZM101.906 243.427L104.037 242.557L104.323 243.271L102.198 244.135L101.906 243.427ZM106.162 241.693L108.292 240.823L108.578 241.531L106.453 242.401L106.162 241.693ZM110.417 239.953L112.547 239.088L112.833 239.797L110.708 240.667L110.417 239.953ZM114.672 238.219L116.802 237.354L117.089 238.062L114.964 238.927L114.672 238.219ZM118.927 236.484L121.057 235.614L121.344 236.323L119.219 237.193L118.927 236.484ZM123.182 234.75L125.313 233.88L125.599 234.588L123.474 235.458L123.182 234.75ZM127.438 233.01L129.563 232.146L129.854 232.854L127.729 233.724L127.438 233.01ZM131.693 231.276L133.818 230.406L134.109 231.12L131.979 231.984L131.693 231.276ZM135.948 229.542L138.073 228.672L138.365 229.38L136.234 230.25L135.948 229.542ZM140.203 227.807L142.328 226.937L142.62 227.646L140.49 228.515L140.203 227.807ZM144.458 226.068L145.511 225.64L146.583 225.203L146.875 225.911L145.797 226.349L144.745 226.776L144.458 226.068ZM148.714 224.333L150.839 223.463L151.13 224.172L149 225.042L148.714 224.333ZM152.969 222.594L155.094 221.724L155.386 222.432L153.255 223.302L152.969 222.594ZM157.219 220.854L159.344 219.974L159.636 220.682L157.511 221.562L157.219 220.854ZM161.464 219.099L163.583 218.219L163.88 218.922L161.755 219.807L161.464 219.099ZM165.703 217.333L167.823 216.443L168.12 217.151L166 218.036L165.703 217.333ZM169.938 215.552L172.052 214.651L172.354 215.354L170.24 216.255L169.938 215.552ZM174.167 213.75L176.276 212.838L176.578 213.542L174.469 214.453L174.167 213.75ZM178.38 211.922L180.484 211L180.792 211.703L178.688 212.625L178.38 211.922ZM182.583 210.073L184.682 209.135L184.995 209.838L182.896 210.771L182.583 210.073ZM186.771 208.193L187.203 208L188.859 207.239L189.177 207.937L187.521 208.698L187.089 208.89L186.771 208.193ZM190.943 206.281L193.026 205.312L193.349 206.005L191.266 206.974L190.943 206.281ZM195.099 204.333L197.172 203.349L197.5 204.036L195.427 205.026L195.099 204.333ZM199.24 202.354L201.307 201.349L201.641 202.036L199.578 203.042L199.24 202.354ZM203.37 200.338L205.427 199.318L205.771 200.005L203.708 201.026L203.37 200.338ZM207.484 198.292L209.537 197.255L209.88 197.937L207.828 198.974L207.484 198.292ZM211.578 196.208L213.625 195.156L213.974 195.838L211.932 196.89L211.578 196.208ZM215.662 194.099L217.693 193.031L218.052 193.708L216.016 194.776L215.662 194.099ZM219.724 191.953L220.349 191.62L221.745 190.87L222.109 191.547L220.708 192.297L220.083 192.63L219.724 191.953ZM223.766 189.781L225.781 188.677L226.151 189.349L224.13 190.453L223.766 189.781ZM227.792 187.573L229.802 186.453L230.172 187.125L228.167 188.239L227.792 187.573ZM231.802 185.333L233.802 184.198L234.182 184.864L232.182 186L231.802 185.333ZM235.797 183.057L237.787 181.911L238.167 182.573L236.177 183.724L235.797 183.057ZM239.771 180.755L241.75 179.594L242.141 180.25L240.156 181.417L239.771 180.755ZM243.724 178.422L245.698 177.239L246.094 177.896L244.12 179.078L243.724 178.422ZM247.667 176.057L248.839 175.344L249.625 174.859L250.026 175.515L249.234 175.995L248.063 176.708L247.667 176.057ZM251.583 173.656L253.537 172.448L253.938 173.099L251.984 174.307L251.583 173.656ZM255.479 171.229L257.427 170.005L257.833 170.651L255.891 171.875L255.479 171.229ZM259.359 168.771L261.297 167.531L261.708 168.172L259.776 169.417L259.359 168.771ZM263.219 166.281L265.146 165.026L265.563 165.667L263.641 166.922L263.219 166.281ZM267.057 163.765L268.974 162.495L269.396 163.13L267.484 164.401L267.057 163.765ZM270.88 161.213L272.787 159.927L273.214 160.557L271.307 161.849L270.88 161.213ZM274.682 158.63L276.578 157.328L277.011 157.958L275.115 159.26L274.682 158.63ZM278.464 156.021L279.818 155.078L280.349 154.703L280.787 155.328L280.255 155.703L278.901 156.646L278.464 156.021ZM282.224 153.38L283.063 152.786L284.094 152.047L284.542 152.672L283.505 153.411L282.667 154.005L282.224 153.38ZM285.958 150.708L287.823 149.364L288.271 149.984L286.406 151.333L285.958 150.708ZM289.672 148.01L291.104 146.963L291.521 146.651L291.979 147.271L291.557 147.578L290.125 148.63L289.672 148.01ZM293.365 145.286L294.5 144.437L295.193 143.917L295.656 144.526L294.958 145.052L293.823 145.901L293.365 145.286ZM296.974 142.5C297.578 142 298.156 141.5 298.714 141L299.224 141.573C298.662 142.078 298.073 142.583 297.464 143.088L296.974 142.5ZM300.359 139.448C300.906 138.906 301.438 138.359 301.938 137.807L302.505 138.323C301.995 138.885 301.458 139.443 300.901 139.995L300.359 139.448ZM303.432 136.078C303.906 135.489 304.365 134.896 304.797 134.292L305.417 134.739C304.974 135.359 304.511 135.963 304.026 136.557L303.432 136.078ZM306.078 132.39C306.479 131.755 306.865 131.104 307.224 130.443L307.896 130.812C307.526 131.484 307.136 132.151 306.729 132.802L306.078 132.39ZM308.24 128.448C308.568 127.75 308.875 127.042 309.167 126.323L309.875 126.604C309.583 127.338 309.271 128.062 308.932 128.771L308.24 128.448Z" fill="black"/>
</g>
</g>
</g>
<mask id="mask21_95_1890" style="mask-type:luminance" maskUnits="userSpaceOnUse" x="19" y="120" width="280" height="131">
<path d="M19 120.333H299V251H19V120.333Z" fill="white"/>
</mask>
<g mask="url(#mask21_95_1890)">
<mask id="mask22_95_1890" style="mask-type:luminance" maskUnits="userSpaceOnUse" x="-78" y="-49" width="441" height="378">
<path d="M-77.5781 107.646L260.13 -48.3542L362.036 172.25L24.3229 328.25L-77.5781 107.646Z" fill="white"/>
</mask>
<g mask="url(#mask22_95_1890)">
<mask id="mask23_95_1890" style="mask-type:luminance" maskUnits="userSpaceOnUse" x="-78" y="-49" width="441" height="378">
<path d="M-77.5781 107.646L260.13 -48.3542L362.036 172.25L24.3229 328.25L-77.5781 107.646Z" fill="white"/>
</mask>
<g mask="url(#mask23_95_1890)">
<path d="M20.2447 248.531C20.9999 248.599 21.7603 248.661 22.5208 248.719L22.4635 249.479C21.703 249.427 20.9374 249.364 20.177 249.297L20.2447 248.531ZM24.8072 248.864C25.5676 248.906 26.3333 248.943 27.0937 248.974L27.0624 249.739C26.2968 249.708 25.5312 249.672 24.7603 249.63L24.8072 248.864ZM29.3853 249.047C30.151 249.062 30.9166 249.073 31.6822 249.078V249.844C30.9114 249.838 30.1405 249.828 29.3697 249.812L29.3853 249.047ZM33.9791 249.068C34.7395 249.062 35.5051 249.047 36.2655 249.021L36.2916 249.786C35.5208 249.812 34.7551 249.828 33.9843 249.833L33.9791 249.068ZM38.5572 248.937C39.3228 248.906 40.0833 248.864 40.8489 248.818L40.8958 249.578C40.1249 249.625 39.3593 249.667 38.5937 249.703L38.5572 248.937ZM43.1353 248.651C43.8958 248.594 44.6562 248.526 45.4218 248.453L45.4947 249.213C44.7291 249.286 43.9635 249.354 43.1926 249.417L43.1353 248.651ZM47.6978 248.213C48.4583 248.125 49.2187 248.036 49.9791 247.937L50.078 248.693C49.3124 248.797 48.552 248.885 47.7864 248.974L47.6978 248.213ZM52.2447 247.62C53.0051 247.505 53.7551 247.39 54.5103 247.265L54.6353 248.021C53.8801 248.146 53.1197 248.265 52.3593 248.375L52.2447 247.62ZM56.7655 246.875C57.5208 246.734 58.2708 246.594 59.0208 246.443L59.1718 247.193C58.4166 247.344 57.6614 247.489 56.9062 247.625L56.7655 246.875ZM61.2708 245.974C62.0155 245.807 62.7603 245.64 63.5051 245.463L63.6822 246.208C62.9322 246.385 62.1822 246.557 61.4322 246.719L61.2708 245.974ZM65.7343 244.922C66.4739 244.734 67.2083 244.542 67.9478 244.338L68.1458 245.078C67.4062 245.281 66.6614 245.474 65.9218 245.661L65.7343 244.922ZM70.1405 243.724L72.3437 243.052L72.5676 243.786L70.3645 244.453L70.1405 243.724ZM74.5208 242.354L76.6978 241.614L76.9426 242.344L74.7655 243.078L74.5208 242.354ZM78.8541 240.854L81.0103 240.068L81.276 240.786L79.1197 241.578L78.8541 240.854ZM83.1562 239.26L84.2291 238.844L85.2968 238.432L85.5728 239.146L84.5051 239.562L83.4322 239.974L83.1562 239.26ZM87.4322 237.588L89.5624 236.729L89.8489 237.443L87.7135 238.297L87.4322 237.588ZM91.6874 235.87L93.8176 235L94.1041 235.708L91.9791 236.578L91.6874 235.87ZM95.9426 234.13L98.0676 233.255L98.3593 233.963L96.2343 234.838L95.9426 234.13ZM100.193 232.385L102.318 231.515L102.609 232.224L100.484 233.094L100.193 232.385ZM104.448 230.64L106.573 229.771L106.865 230.479L104.734 231.349L104.448 230.64ZM108.698 228.901L110.823 228.026L111.115 228.734L108.99 229.609L108.698 228.901ZM112.948 227.156L115.078 226.286L115.365 226.995L113.24 227.864L112.948 227.156ZM117.203 225.417L119.328 224.542L119.62 225.25L117.495 226.125L117.203 225.417ZM121.453 223.672L123.578 222.802L123.87 223.51L121.745 224.38L121.453 223.672ZM125.708 221.927L127.833 221.057L128.125 221.765L125.995 222.635L125.708 221.927ZM129.958 220.187L132.083 219.312L132.375 220.021L130.25 220.896L129.958 220.187ZM134.208 218.443L136.338 217.573L136.625 218.281L134.5 219.151L134.208 218.443ZM138.463 216.698L140.588 215.828L140.88 216.536L138.755 217.411L138.463 216.698ZM142.713 214.958L144.838 214.088L145.13 214.797L143.005 215.667L142.713 214.958ZM146.963 213.213L149.088 212.338L149.38 213.047L147.255 213.922L146.963 213.213ZM151.213 211.463L153.338 210.588L153.63 211.297L151.505 212.172L151.213 211.463ZM155.458 209.708L157.344 208.927L157.583 208.828L157.875 209.531L157.641 209.635L155.755 210.417L155.458 209.708ZM159.703 207.943L161.818 207.052L162.115 207.755L160 208.646L159.703 207.943ZM163.937 206.156L165.203 205.62L166.052 205.26L166.349 205.963L165.505 206.323L164.234 206.864L163.937 206.156ZM168.161 204.354L170.271 203.448L170.573 204.151L168.463 205.057L168.161 204.354ZM172.375 202.531L174.37 201.656L174.479 201.609L174.786 202.312L174.677 202.359L172.682 203.234L172.375 202.531ZM176.578 200.682L178.115 199.995L178.677 199.745L178.99 200.443L178.427 200.698L176.891 201.38L176.578 200.682ZM180.771 198.802L181.437 198.495L182.859 197.849L183.177 198.547L181.755 199.193L181.088 199.5L180.771 198.802ZM184.943 196.89L187.021 195.917L187.344 196.614L185.266 197.583L184.943 196.89ZM189.099 194.943L191.172 193.953L191.5 194.646L189.427 195.635L189.099 194.943ZM193.24 192.963L194.885 192.161L195.307 191.958L195.641 192.646L195.219 192.854L193.573 193.651L193.24 192.963ZM197.37 190.948L199.427 189.927L199.766 190.614L197.708 191.635L197.37 190.948ZM201.479 188.901L202.463 188.406L203.531 187.859L203.88 188.547L202.807 189.088L201.828 189.583L201.479 188.901ZM205.578 186.818L207.625 185.765L207.974 186.443L205.927 187.5L205.578 186.818ZM209.656 184.703L211.693 183.635L212.047 184.312L210.016 185.38L209.656 184.703ZM213.719 182.557L215.745 181.474L216.104 182.151L214.078 183.234L213.719 182.557ZM217.76 180.38L217.901 180.307L219.776 179.281L220.146 179.953L218.266 180.979L218.125 181.052L217.76 180.38ZM221.786 178.172L223.797 177.052L224.167 177.724L222.161 178.838L221.786 178.172ZM225.797 175.927L227.797 174.797L228.172 175.463L226.172 176.594L225.797 175.927ZM229.786 173.656L231.776 172.505L232.161 173.167L230.172 174.318L229.786 173.656ZM233.76 171.349L235.74 170.182L236.13 170.844L234.146 172.005L233.76 171.349ZM237.713 169.01L239.682 167.828L240.078 168.484L238.109 169.667L237.713 169.01ZM241.646 166.64L243.609 165.443L244.01 166.094L242.047 167.292L241.646 166.64ZM245.562 164.239L247.516 163.026L247.922 163.677L245.969 164.89L245.562 164.239ZM249.458 161.807L251.401 160.578L251.812 161.224L249.87 162.453L249.458 161.807ZM253.333 159.344L255.266 158.099L255.682 158.745L253.75 159.984L253.333 159.344ZM257.193 156.849L259.115 155.588L259.531 156.229L257.609 157.489L257.193 156.849ZM261.026 154.323L262.943 153.047L263.365 153.682L261.453 154.958L261.026 154.323ZM264.844 151.765L266.75 150.474L267.177 151.109L265.276 152.401L264.844 151.765ZM268.641 149.177L270.536 147.87L270.969 148.5L269.078 149.807L268.641 149.177ZM272.417 146.562L274.297 145.239L274.74 145.864L272.859 147.187L272.417 146.562ZM276.172 143.917L278.042 142.578L278.484 143.203L276.615 144.536L276.172 143.917ZM279.901 141.239L281.76 139.89L282.208 140.51L280.349 141.859L279.901 141.239ZM283.609 138.536L283.755 138.427C284.333 138 284.891 137.578 285.422 137.161L285.896 137.765C285.354 138.187 284.792 138.614 284.208 139.047L284.062 139.151L283.609 138.536ZM287.193 135.719C287.781 135.213 288.349 134.708 288.891 134.203L289.417 134.76C288.865 135.276 288.292 135.792 287.687 136.302L287.193 135.719ZM290.51 132.609C291.047 132.052 291.562 131.484 292.057 130.911L292.635 131.406C292.135 131.995 291.609 132.568 291.062 133.14L290.51 132.609ZM293.463 129.167C293.927 128.557 294.365 127.932 294.786 127.302L295.422 127.724C294.995 128.37 294.547 129.005 294.073 129.63L293.463 129.167ZM295.969 125.375C296.344 124.724 296.693 124.062 297.021 123.39L297.708 123.729C297.375 124.417 297.016 125.088 296.635 125.755L295.969 125.375ZM297.974 121.276C298.057 121.083 298.135 120.89 298.208 120.698L298.922 120.979C298.844 121.177 298.766 121.37 298.682 121.568L297.974 121.276Z" fill="black"/>
</g>
</g>
</g>
<mask id="mask24_95_1890" style="mask-type:luminance" maskUnits="userSpaceOnUse" x="23" y="116" width="266" height="123">
<path d="M23 116.333H288.333V239H23V116.333Z" fill="white"/>
</mask>
<g mask="url(#mask24_95_1890)">
<mask id="mask25_95_1890" style="mask-type:luminance" maskUnits="userSpaceOnUse" x="-78" y="-49" width="441" height="378">
<path d="M-77.5781 107.646L260.13 -48.3542L362.036 172.25L24.3229 328.25L-77.5781 107.646Z" fill="white"/>
</mask>
<g mask="url(#mask25_95_1890)">
<mask id="mask26_95_1890" style="mask-type:luminance" maskUnits="userSpaceOnUse" x="-78" y="-49" width="441" height="378">
<path d="M-77.5781 107.646L260.13 -48.3542L362.036 172.25L24.3229 328.25L-77.5781 107.646Z" fill="white"/>
</mask>
<g mask="url(#mask26_95_1890)">
<path d="M24.151 237.234C24.9062 237.312 25.6666 237.385 26.4218 237.453L26.3541 238.219C25.5937 238.151 24.828 238.073 24.0676 237.995L24.151 237.234ZM28.703 237.635C29.4687 237.687 30.2291 237.734 30.9895 237.776L30.953 238.536C30.1822 238.5 29.4166 238.453 28.651 238.396L28.703 237.635ZM33.2864 237.87C34.0468 237.896 34.8124 237.917 35.578 237.927L35.5676 238.693C34.7968 238.682 34.0312 238.661 33.2603 238.635L33.2864 237.87ZM37.8697 237.943C38.6353 237.937 39.3958 237.932 40.1614 237.917L40.177 238.682C39.4114 238.698 38.6405 238.703 37.8749 238.708L37.8697 237.943ZM42.453 237.844C43.2135 237.812 43.9791 237.776 44.7395 237.734L44.7864 238.5C44.0208 238.542 43.2499 238.578 42.4843 238.609L42.453 237.844ZM47.0312 237.583C47.7916 237.521 48.552 237.458 49.3124 237.385L49.3853 238.151C48.6197 238.224 47.8541 238.286 47.0885 238.344L47.0312 237.583ZM51.5937 237.151C52.3541 237.068 53.1145 236.974 53.8697 236.875L53.9687 237.63C53.2083 237.734 52.4478 237.828 51.6822 237.911L51.5937 237.151ZM56.1405 236.557C56.8958 236.443 57.651 236.323 58.401 236.193L58.5312 236.948C57.7708 237.078 57.0155 237.198 56.2551 237.312L56.1405 236.557ZM60.6562 235.792C61.4114 235.651 62.1614 235.505 62.9114 235.349L63.0676 236.099C62.3124 236.255 61.5572 236.406 60.7968 236.547L60.6562 235.792ZM65.1562 234.87C65.901 234.698 66.6405 234.526 67.3853 234.344L67.5676 235.088C66.8228 235.271 66.0728 235.448 65.3228 235.615L65.1562 234.87ZM69.6041 233.781C70.2551 233.609 70.9062 233.432 71.5572 233.25L71.8072 233.177L72.0155 233.911L71.7603 233.984C71.1093 234.172 70.453 234.349 69.7968 234.521L69.6041 233.781ZM73.9999 232.521L76.1926 231.823L76.4218 232.552L74.2343 233.25L73.9999 232.521ZM78.3593 231.094L80.526 230.333L80.7812 231.052L78.6145 231.818L78.3593 231.094ZM82.6718 229.547L84.8228 228.734L85.0937 229.453L82.9426 230.26L82.6718 229.547ZM86.9635 227.906L89.0989 227.062L89.3801 227.771L87.2447 228.62L86.9635 227.906ZM91.2291 226.208L93.3593 225.344L93.6458 226.052L91.5156 226.917L91.2291 226.208ZM95.4843 224.479L97.6093 223.609L97.901 224.318L95.7708 225.187L95.4843 224.479ZM99.7343 222.74L101.865 221.875L102.156 222.583L100.026 223.448L99.7343 222.74ZM103.99 221.005L106.12 220.135L106.406 220.844L104.281 221.713L103.99 221.005ZM108.245 219.271L110.375 218.401L110.661 219.109L108.536 219.979L108.245 219.271ZM112.5 217.531L114.63 216.667L114.917 217.375L112.792 218.24L112.5 217.531ZM116.755 215.797L118.885 214.927L119.172 215.635L117.047 216.505L116.755 215.797ZM121.01 214.062L123.135 213.193L123.427 213.901L121.302 214.771L121.01 214.062ZM125.266 212.323L127.391 211.458L127.682 212.167L125.552 213.031L125.266 212.323ZM129.521 210.588L131.646 209.719L131.937 210.427L129.807 211.297L129.521 210.588ZM133.776 208.854L135.901 207.984L136.193 208.693L134.062 209.562L133.776 208.854ZM138.031 207.115L139.797 206.396L140.156 206.25L140.448 206.958L140.088 207.104L138.318 207.823L138.031 207.115ZM142.286 205.38L144.411 204.51L144.703 205.219L142.573 206.088L142.286 205.38ZM146.542 203.641L148.667 202.771L148.958 203.479L146.828 204.349L146.542 203.641ZM150.792 201.896L152.917 201.016L153.208 201.724L151.083 202.604L150.792 201.896ZM155.036 200.141L157.156 199.255L157.453 199.963L155.333 200.844L155.036 200.141ZM159.276 198.365L161.391 197.474L161.687 198.182L159.573 199.073L159.276 198.365ZM163.505 196.578L164.198 196.281L165.615 195.672L165.917 196.375L164.495 196.984L163.807 197.281L163.505 196.578ZM167.724 194.766L168.948 194.229L169.828 193.849L170.135 194.547L169.255 194.932L168.031 195.463L167.724 194.766ZM171.932 192.922L174.031 191.99L174.344 192.693L172.24 193.625L171.932 192.922ZM176.125 191.052L177.463 190.443L178.213 190.104L178.531 190.802L177.781 191.141L176.443 191.75L176.125 191.052ZM180.297 189.146L182.38 188.177L182.703 188.87L180.62 189.838L180.297 189.146ZM184.458 187.203L186.531 186.213L186.859 186.906L184.786 187.896L184.458 187.203ZM188.599 185.219L190.667 184.219L191 184.906L188.932 185.911L188.599 185.219ZM192.724 183.203L194.781 182.182L195.125 182.865L193.068 183.891L192.724 183.203ZM196.833 181.151L198.885 180.109L199.229 180.792L197.182 181.833L196.833 181.151ZM200.927 179.057L202.969 178L203.323 178.677L201.281 179.74L200.927 179.057ZM205 176.932L207.026 175.859L207.385 176.536L205.359 177.609L205 176.932ZM209.052 174.776L211.073 173.677L211.437 174.354L209.417 175.448L209.052 174.776ZM213.083 172.578L215.094 171.469L215.463 172.135L213.453 173.25L213.083 172.578ZM217.099 170.349L217.958 169.865L219.099 169.219L219.474 169.885L218.333 170.531L217.474 171.016L217.099 170.349ZM221.094 168.078L221.146 168.052L223.083 166.932L223.469 167.599L221.526 168.719L221.474 168.745L221.094 168.078ZM225.068 165.781L227.052 164.615L227.437 165.276L225.458 166.437L225.068 165.781ZM229.026 163.443L230.995 162.26L231.391 162.917L229.417 164.099L229.026 163.443ZM232.958 161.073L234.922 159.875L235.318 160.526L233.359 161.724L232.958 161.073ZM236.875 158.667L237.396 158.344L238.823 157.453L239.229 158.104L237.802 158.995L237.276 159.318L236.875 158.667ZM240.766 156.229L242.703 154.995L243.115 155.641L241.177 156.875L240.766 156.229ZM244.635 153.755L246.562 152.505L246.979 153.151L245.052 154.401L244.635 153.755ZM248.479 151.25L250.396 149.984L250.823 150.625L248.906 151.891L248.479 151.25ZM252.307 148.713L254.213 147.427L254.641 148.062L252.734 149.349L252.307 148.713ZM256.115 146.135L258.01 144.838L258.443 145.469L256.547 146.771L256.115 146.135ZM259.896 143.531L261.781 142.213L262.219 142.838L260.338 144.156L259.896 143.531ZM263.656 140.891L265.526 139.557L265.974 140.182L264.099 141.516L263.656 140.891ZM267.391 138.219L269.25 136.87L269.698 137.49L267.838 138.838L267.391 138.219ZM271.099 135.516L272.948 134.151L273.401 134.766L271.557 136.13L271.099 135.516ZM274.781 132.781C275.406 132.312 276 131.844 276.568 131.375L277.052 131.969C276.479 132.443 275.875 132.917 275.245 133.396L274.781 132.781ZM278.307 129.885C278.88 129.37 279.427 128.854 279.948 128.328L280.49 128.87C279.958 129.401 279.401 129.932 278.818 130.453L278.307 129.885ZM281.516 126.667C282.021 126.099 282.505 125.521 282.963 124.932L283.568 125.401C283.099 126.005 282.604 126.594 282.088 127.177L281.516 126.667ZM284.297 123.104C284.729 122.469 285.135 121.818 285.521 121.156L286.182 121.542C285.792 122.219 285.37 122.885 284.927 123.531L284.297 123.104ZM286.573 119.203C286.911 118.521 287.229 117.828 287.526 117.115L288.234 117.411C287.932 118.135 287.604 118.849 287.26 119.547L286.573 119.203Z" fill="black"/>
</g>
</g>
</g>
<mask id="mask27_95_1890" style="mask-type:luminance" maskUnits="userSpaceOnUse" x="27" y="111" width="254" height="118">
<path d="M27 111H280.333V228.333H27V111Z" fill="white"/>
</mask>
<g mask="url(#mask27_95_1890)">
<mask id="mask28_95_1890" style="mask-type:luminance" maskUnits="userSpaceOnUse" x="-78" y="-49" width="441" height="378">
<path d="M-77.5781 107.646L260.13 -48.3542L362.036 172.25L24.3229 328.25L-77.5781 107.646Z" fill="white"/>
</mask>
<g mask="url(#mask28_95_1890)">
<mask id="mask29_95_1890" style="mask-type:luminance" maskUnits="userSpaceOnUse" x="-78" y="-49" width="441" height="378">
<path d="M-77.5781 107.646L260.13 -48.3542L362.036 172.25L24.3229 328.25L-77.5781 107.646Z" fill="white"/>
</mask>
<g mask="url(#mask29_95_1890)">
<path d="M27.2136 226.677C27.974 226.724 28.7345 226.76 29.4949 226.792L29.4636 227.557C28.698 227.526 27.9324 227.489 27.1667 227.443L27.2136 226.677ZM31.7813 226.859C32.547 226.875 33.3126 226.885 34.073 226.89V227.656C33.3022 227.651 32.5365 227.64 31.7657 227.625L31.7813 226.859ZM36.3699 226.88C37.1355 226.87 37.9011 226.854 38.6667 226.828L38.6876 227.594C37.9167 227.62 37.1511 227.635 36.3803 227.646L36.3699 226.88ZM40.9532 226.739C41.7136 226.703 42.4792 226.656 43.2397 226.609L43.2917 227.37C42.5261 227.422 41.7553 227.469 40.9897 227.505L40.9532 226.739ZM45.5261 226.437C46.2865 226.37 47.047 226.302 47.8074 226.224L47.8855 226.984C47.1199 227.062 46.3542 227.135 45.5886 227.198L45.5261 226.437ZM50.0886 225.969C50.849 225.88 51.6042 225.781 52.3595 225.677L52.4688 226.437C51.7032 226.542 50.9428 226.64 50.1772 226.729L50.0886 225.969ZM54.6303 225.344C55.3855 225.229 56.1407 225.104 56.8907 224.974L57.0209 225.724C56.2657 225.859 55.5053 225.984 54.7501 226.099L54.6303 225.344ZM59.1459 224.557C59.8959 224.417 60.6407 224.265 61.3907 224.104L61.547 224.854C60.797 225.015 60.0417 225.167 59.2917 225.312L59.1459 224.557ZM63.6303 223.614C64.3803 223.443 65.1199 223.265 65.8647 223.083L66.047 223.823C65.3022 224.01 64.5522 224.187 63.8022 224.359L63.6303 223.614ZM68.0834 222.51C68.8178 222.312 69.5574 222.109 70.2917 221.901L70.5001 222.635C69.7605 222.849 69.0209 223.052 68.2813 223.25L68.0834 222.51ZM72.4792 221.25L74.672 220.557L74.9011 221.286L72.7084 221.984L72.4792 221.25ZM76.8386 219.828L79.0053 219.068L79.2605 219.786L77.0938 220.552L76.8386 219.828ZM81.1563 218.276L81.4845 218.156L83.3022 217.463L83.573 218.182L81.7553 218.87L81.422 218.995L81.1563 218.276ZM85.4376 216.63L87.573 215.781L87.8542 216.495L85.7188 217.344L85.4376 216.63ZM89.698 214.922L91.823 214.047L92.1147 214.755L89.9897 215.63L89.698 214.922ZM93.948 213.172L94.6459 212.885L96.0678 212.297L96.3647 213.005L94.9376 213.594L94.2397 213.88L93.948 213.172ZM98.1928 211.417L100.318 210.542L100.609 211.245L98.4845 212.125L98.1928 211.417ZM102.438 209.661L104.563 208.781L104.854 209.489L102.734 210.37L102.438 209.661ZM106.688 207.906L108.807 207.026L109.104 207.734L106.979 208.614L106.688 207.906ZM110.932 206.151L113.057 205.271L113.349 205.979L111.224 206.859L110.932 206.151ZM115.177 204.396L117.302 203.515L117.594 204.224L115.474 205.099L115.177 204.396ZM119.427 202.635L121.547 201.76L121.844 202.469L119.719 203.344L119.427 202.635ZM123.672 200.88L125.797 200.005L126.089 200.713L123.964 201.588L123.672 200.88ZM127.917 199.125L130.042 198.25L130.333 198.953L128.214 199.833L127.917 199.125ZM132.167 197.37L134.287 196.489L134.583 197.198L132.458 198.078L132.167 197.37ZM136.412 195.614L137.146 195.307L138.531 194.734L138.823 195.443L137.443 196.015L136.703 196.323L136.412 195.614ZM140.651 193.859L142.771 192.979L143.068 193.687L140.943 194.568L140.651 193.859ZM144.891 192.099L147.016 191.219L147.307 191.927L145.188 192.807L144.891 192.099ZM149.13 190.333L151.25 189.443L151.547 190.151L149.427 191.042L149.13 190.333ZM153.37 188.552L155.484 187.656L155.787 188.364L153.667 189.26L153.37 188.552ZM157.599 186.76L159.714 185.854L160.016 186.557L157.901 187.463L157.599 186.76ZM161.823 184.943L163.932 184.026L164.24 184.729L162.13 185.646L161.823 184.943ZM166.037 183.104L168.136 182.172L168.448 182.875L166.344 183.802L166.037 183.104ZM170.234 181.234L172.328 180.292L172.646 180.989L170.547 181.937L170.234 181.234ZM174.417 179.338L176.5 178.38L176.823 179.073L174.734 180.036L174.417 179.338ZM178.578 177.411L180.656 176.432L180.984 177.125L178.906 178.104L178.578 177.411ZM182.729 175.443L184.797 174.448L185.13 175.135L183.063 176.135L182.729 175.443ZM186.859 173.443L188.927 172.427L189.261 173.114L187.198 174.13L186.859 173.443ZM190.979 171.406L193.037 170.375L193.38 171.062L191.323 172.094L190.979 171.406ZM195.083 169.338L195.547 169.099L197.13 168.292L197.479 168.974L195.896 169.781L195.432 170.021L195.083 169.338ZM199.167 167.239L201.203 166.172L201.557 166.854L199.521 167.917L199.167 167.239ZM203.234 165.104L205.261 164.021L205.62 164.698L203.594 165.776L203.234 165.104ZM207.281 162.932L209.302 161.838L209.667 162.51L207.646 163.609L207.281 162.932ZM211.313 160.734L213.323 159.62L213.693 160.286L211.682 161.401L211.313 160.734ZM215.323 158.5L217.328 157.364L217.703 158.031L215.703 159.167L215.323 158.5ZM219.318 156.229L220.729 155.417L221.313 155.083L221.693 155.745L221.115 156.083L219.703 156.896L219.318 156.229ZM223.297 153.927L225.276 152.765L225.667 153.427L223.682 154.588L223.297 153.927ZM227.25 151.594L228.792 150.677L229.224 150.417L229.62 151.073L229.188 151.333L227.646 152.255L227.25 151.594ZM231.188 149.229L233.151 148.036L233.552 148.687L231.589 149.885L231.188 149.229ZM235.104 146.833L237.057 145.62L237.464 146.271L235.511 147.484L235.104 146.833ZM239.005 144.401L240.948 143.177L241.354 143.823L239.412 145.052L239.005 144.401ZM242.88 141.943L244.813 140.698L245.224 141.344L243.292 142.583L242.88 141.943ZM246.74 139.448L248.662 138.187L249.078 138.828L247.156 140.088L246.74 139.448ZM250.578 136.922L252.49 135.646L252.912 136.281L251 137.557L250.578 136.922ZM254.391 134.364L256.292 133.073L256.724 133.708L254.823 135L254.391 134.364ZM258.188 131.776L259.031 131.193L260.078 130.469L260.511 131.099L259.464 131.823L258.62 132.406L258.188 131.776ZM261.958 129.156L263.839 127.838L264.276 128.463L262.396 129.786L261.958 129.156ZM265.708 126.51L266.427 126C266.813 125.719 267.188 125.443 267.552 125.172L268.011 125.786C267.641 126.062 267.261 126.338 266.87 126.62L266.151 127.135L265.708 126.51ZM269.354 123.771C269.958 123.281 270.537 122.786 271.089 122.292L271.599 122.864C271.042 123.364 270.453 123.864 269.839 124.364L269.354 123.771ZM272.745 120.734C273.287 120.187 273.807 119.635 274.307 119.073L274.88 119.578C274.375 120.151 273.839 120.719 273.281 121.276L272.745 120.734ZM275.745 117.338C276.219 116.729 276.667 116.104 277.089 115.474L277.724 115.896C277.292 116.547 276.833 117.182 276.349 117.807L275.745 117.338ZM278.261 113.578C278.641 112.917 278.995 112.245 279.328 111.557L280.016 111.89C279.677 112.594 279.313 113.286 278.927 113.958L278.261 113.578Z" fill="black"/>
</g>
</g>
</g>
<mask id="mask30_95_1890" style="mask-type:luminance" maskUnits="userSpaceOnUse" x="4" y="7" width="194" height="91">
<path d="M4.33325 7H197.667V97.6667H4.33325V7Z" fill="white"/>
</mask>
<g mask="url(#mask30_95_1890)">
<mask id="mask31_95_1890" style="mask-type:luminance" maskUnits="userSpaceOnUse" x="-78" y="-49" width="441" height="378">
<path d="M-77.5781 107.646L260.13 -48.3542L362.036 172.25L24.3229 328.25L-77.5781 107.646Z" fill="white"/>
</mask>
<g mask="url(#mask31_95_1890)">
<mask id="mask32_95_1890" style="mask-type:luminance" maskUnits="userSpaceOnUse" x="-78" y="-49" width="441" height="378">
<path d="M-77.5781 107.646L260.13 -48.3542L362.036 172.25L24.3229 328.25L-77.5781 107.646Z" fill="white"/>
</mask>
<g mask="url(#mask32_95_1890)">
<path d="M4.39575 96.88C5.12492 96.7394 5.8645 96.578 6.61971 96.3905L6.802 97.1353C6.03638 97.3228 5.28117 97.4894 4.54159 97.6353L4.39575 96.88ZM8.82284 95.7915C9.52596 95.5884 10.2551 95.3592 11.0051 95.104L11.2447 95.8332C10.4895 96.0884 9.74992 96.3175 9.03638 96.5311L8.82284 95.7915ZM13.1614 94.3488C13.8385 94.0988 14.552 93.828 15.302 93.5311L15.5833 94.2446C14.8228 94.5415 14.1041 94.8175 13.427 95.0675L13.1614 94.3488ZM17.4322 92.6821L19.0468 92.0155L19.5572 91.8071L19.8437 92.5207L19.3385 92.7238L17.7239 93.3905L17.4322 92.6821ZM21.6874 90.9425L23.8176 90.078L24.1041 90.7915L21.9739 91.6561L21.6874 90.9425ZM25.9426 89.2186L28.0728 88.354L28.3593 89.0623L26.2343 89.9269L25.9426 89.2186ZM30.203 87.4894L32.3333 86.6248L32.6197 87.3332L30.4895 88.1978L30.203 87.4894ZM34.4583 85.7603L36.5885 84.8957L36.8749 85.604L34.7499 86.4686L34.4583 85.7603ZM38.7187 84.0311L40.8489 83.1665L41.1353 83.8748L39.0051 84.7394L38.7187 84.0311ZM42.9739 82.3019L45.1041 81.4373L45.3905 82.1457L43.2655 83.0103L42.9739 82.3019ZM47.2343 80.5728L49.3645 79.7082L49.651 80.4165L47.5208 81.2811L47.2343 80.5728ZM51.4895 78.8436L53.6197 77.979L53.9062 78.6873L51.7812 79.5519L51.4895 78.8436ZM55.7499 77.1144L57.8801 76.2498L58.1666 76.9634L56.0364 77.8228L55.7499 77.1144ZM60.0051 75.3853L62.1353 74.5207L62.4218 75.2342L60.2968 76.0988L60.0051 75.3853ZM64.2655 73.6561L66.3958 72.7915L66.6822 73.505L64.552 74.3696L64.2655 73.6561ZM68.5208 71.9321L70.651 71.0675L70.9374 71.7759L68.8124 72.6405L68.5208 71.9321ZM72.7812 70.203L74.9114 69.3384L75.1978 70.0467L73.0676 70.9113L72.7812 70.203ZM77.0364 68.4738L79.1666 67.6092L79.453 68.3175L77.328 69.1821L77.0364 68.4738ZM81.2968 66.7446L83.427 65.88L83.7135 66.5884L81.5833 67.453L81.2968 66.7446ZM85.552 65.0155L87.6822 64.1509L87.9687 64.8592L85.8437 65.7238L85.552 65.0155ZM89.802 63.2759C90.4843 62.9842 91.1822 62.6769 91.8958 62.3592L92.2135 63.0571C91.4947 63.38 90.7916 63.6873 90.0989 63.979L89.802 63.2759ZM93.9791 61.4009L96.0468 60.4113L96.3801 61.0988L94.3072 62.0936L93.9791 61.4009ZM98.1041 59.3957L100.156 58.3592L100.5 59.0415L98.4478 60.078L98.1041 59.3957ZM102.198 57.3123L104.245 56.255L104.594 56.9373L102.552 57.9894L102.198 57.3123ZM106.286 55.203L108.333 54.1613L108.682 54.8436L106.635 55.8853L106.286 55.203ZM110.396 53.1248L112.458 52.1196L112.797 52.8071L110.729 53.8175L110.396 53.1248ZM114.547 51.13L116.641 50.1873L116.958 50.8853L114.865 51.828L114.547 51.13ZM118.745 49.255L119.583 48.88L120.844 48.3175L121.156 49.0155L119.896 49.578L119.057 49.953L118.745 49.255ZM122.937 47.38L124.365 46.7394L125.031 46.4373L125.349 47.1353L124.677 47.4373L123.255 48.078L122.937 47.38ZM127.125 45.4894L129.219 44.5363L129.536 45.2342L127.443 46.1873L127.125 45.4894ZM131.302 43.578L133.391 42.6144L133.708 43.3123L131.625 44.2759L131.302 43.578ZM135.469 41.6457L137.552 40.6717L137.875 41.3644L135.797 42.3384L135.469 41.6457ZM139.625 39.6925L141.703 38.703L142.031 39.3957L139.958 40.38L139.625 39.6925ZM143.771 37.7082L145.838 36.703L146.172 37.3957L144.104 38.3957L143.771 37.7082ZM147.901 35.6978L149.963 34.6769L150.302 35.3644L148.24 36.3853L147.901 35.6978ZM152.016 33.6561L154.068 32.6196L154.411 33.3019L152.359 34.3384L152.016 33.6561ZM156.109 31.578L158.151 30.5311L158.5 31.2082L156.458 32.2603L156.109 31.578ZM160.187 29.4686L162.219 28.3957L162.578 29.0728L160.542 30.1457L160.187 29.4686ZM164.245 27.3175L166.271 26.229L166.63 26.9009L164.609 27.9946L164.245 27.3175ZM168.281 25.13L170.292 24.0155L170.661 24.6873L168.651 25.8019L168.281 25.13ZM172.297 22.8957L174.292 21.7655L174.672 22.4321L172.672 23.5623L172.297 22.8957ZM176.281 20.6196L176.745 20.354L178.266 19.4634L178.651 20.1248L177.13 21.0155L176.667 21.2863L176.281 20.6196ZM180.24 18.3019L182.208 17.1196L182.604 17.7759L180.63 18.9582L180.24 18.3019ZM184.167 15.9321L186.125 14.7238L186.526 15.3748L184.568 16.5832L184.167 15.9321ZM188.068 13.5103L190.005 12.2759L190.417 12.9217L188.479 14.1561L188.068 13.5103ZM191.932 11.0363L193.859 9.77588L194.276 10.4165L192.354 11.6769L191.932 11.0363ZM195.771 8.50505L197.146 7.57275L197.573 8.20817L196.198 9.14046L195.771 8.50505Z" fill="black"/>
</g>
</g>
</g>
<mask id="mask33_95_1890" style="mask-type:luminance" maskUnits="userSpaceOnUse" x="5" y="3" width="184" height="86">
<path d="M5.6665 3H188.333V88.3333H5.6665V3Z" fill="white"/>
</mask>
<g mask="url(#mask33_95_1890)">
<mask id="mask34_95_1890" style="mask-type:luminance" maskUnits="userSpaceOnUse" x="-78" y="-49" width="441" height="378">
<path d="M-77.5784 107.646L260.13 -48.3542L362.036 172.25L24.3227 328.25L-77.5784 107.646Z" fill="white"/>
</mask>
<g mask="url(#mask34_95_1890)">
<mask id="mask35_95_1890" style="mask-type:luminance" maskUnits="userSpaceOnUse" x="-78" y="-49" width="441" height="378">
<path d="M-77.5784 107.646L260.13 -48.3542L362.036 172.25L24.3227 328.25L-77.5784 107.646Z" fill="white"/>
</mask>
<g mask="url(#mask35_95_1890)">
<path d="M6.85913 87.3853C7.58309 87.2551 8.32788 87.0989 9.0883 86.9166L9.26538 87.6666C8.49455 87.8489 7.73413 88.0051 6.98934 88.1405L6.85913 87.3853ZM11.2914 86.3333C11.9945 86.1301 12.7185 85.901 13.4685 85.651L13.7133 86.3801C12.9529 86.6301 12.2185 86.8645 11.505 87.0676L11.2914 86.3333ZM15.63 84.8905C16.2966 84.6458 17.0102 84.3749 17.7706 84.0728L18.0518 84.7864C17.2862 85.0885 16.5675 85.3645 15.8956 85.6093L15.63 84.8905ZM19.8956 83.2187L20.7185 82.8853L22.0258 82.3593L22.3123 83.0676L21.0102 83.5937L20.1873 83.9322L19.8956 83.2187ZM24.156 81.4999L26.2862 80.6405L26.5727 81.3489L24.4425 82.2083L24.156 81.4999ZM28.4216 79.7812L30.5518 78.9218L30.8383 79.6353L28.7081 80.4895L28.4216 79.7812ZM32.682 78.0624L34.8123 77.203L35.0987 77.9166L32.9685 78.776L32.682 78.0624ZM36.9425 76.3437L39.0727 75.4895L39.3591 76.1978L37.2289 77.0572L36.9425 76.3437ZM41.2081 74.6301L43.3383 73.7708L43.6248 74.4791L41.4945 75.3385L41.2081 74.6301ZM45.4685 72.9114L47.5987 72.052L47.8852 72.7655L45.755 73.6197L45.4685 72.9114ZM49.7289 71.1926L51.8643 70.3333L52.1508 71.0468L50.0154 71.9062L49.7289 71.1926ZM53.9945 69.4791L56.1248 68.6197L56.4112 69.328L54.281 70.1874L53.9945 69.4791ZM58.255 67.7603L60.3852 66.901L60.6716 67.6093L58.5414 68.4687L58.255 67.7603ZM62.5154 66.0416L64.6508 65.1822L64.9373 65.8958L62.8018 66.7499L62.5154 66.0416ZM66.781 64.3228L68.9112 63.4635L69.1977 64.177L67.0675 65.0364L66.781 64.3228ZM71.0414 62.6093L73.1716 61.7499L73.4581 62.4583L71.3279 63.3176L71.0414 62.6093ZM75.307 60.8905L77.4373 60.0312L77.7237 60.7395L75.5935 61.5989L75.307 60.8905ZM79.5675 59.1718L81.6977 58.3124L81.9841 59.026L79.8539 59.8801L79.5675 59.1718ZM83.8279 57.453L85.9581 56.5937L86.2445 57.3072L84.1143 58.1666L83.8279 57.453ZM88.0727 55.7187C88.7498 55.427 89.4477 55.1197 90.1612 54.7968L90.4789 55.4947C89.7602 55.8228 89.0571 56.1301 88.3748 56.427L88.0727 55.7187ZM92.2341 53.828L94.3018 52.8228L94.6352 53.5155L92.5675 54.5208L92.2341 53.828ZM96.3539 51.7968L98.4008 50.7447L98.7498 51.427L96.7029 52.4791L96.3539 51.7968ZM100.442 49.6874L102.484 48.6301L102.838 49.3124L100.797 50.3697L100.442 49.6874ZM104.531 47.578L106.583 46.5364L106.927 47.2187L104.88 48.2603L104.531 47.578ZM108.651 45.5155L110.729 44.5312L111.057 45.2187L108.979 46.2083L108.651 45.5155ZM112.828 43.5728L113.198 43.4114L114.333 42.9114L114.927 42.6458L115.239 43.3489L114.646 43.6093L113.505 44.1145L113.135 44.276L112.828 43.5728ZM117.026 41.7135L119.125 40.776L119.437 41.4739L117.338 42.4114L117.026 41.7135ZM121.219 39.8333L121.922 39.5155L123.312 38.8853L123.63 39.5833L122.234 40.2135L121.536 40.5312L121.219 39.8333ZM125.401 37.9322L127.489 36.9739L127.812 37.6718L125.724 38.6301L125.401 37.9322ZM129.573 36.0103L131.656 35.0364L131.979 35.7343L129.896 36.703L129.573 36.0103ZM133.729 34.0624L135.807 33.0728L136.135 33.7655L134.057 34.7551L133.729 34.0624ZM137.875 32.0833L139.948 31.078L140.281 31.7708L138.213 32.7708L137.875 32.0833ZM142.005 30.0676L144.067 29.052L144.406 29.7395L142.349 30.7551L142.005 30.0676ZM146.12 28.026L148.166 26.9895L148.515 27.6718L146.463 28.7083L146.12 28.026ZM150.208 25.9426L152.25 24.8853L152.599 25.5676L150.562 26.6249L150.208 25.9426ZM154.281 23.8228L156.307 22.7447L156.666 23.4218L154.64 24.4999L154.281 23.8228ZM158.328 21.6562L160.349 20.5572L160.713 21.2291L158.698 22.328L158.328 21.6562ZM162.354 19.4478L163.094 19.0312L164.359 18.3228L164.734 18.9895L163.469 19.703L162.729 20.1145L162.354 19.4478ZM166.349 17.1874L168.344 16.0416L168.724 16.703L166.734 17.8541L166.349 17.1874ZM170.317 14.8801L172.291 13.7083L172.682 14.3645L170.713 15.5416L170.317 14.8801ZM174.255 12.526L176.208 11.3228L176.609 11.9739L174.656 13.177L174.255 12.526ZM178.156 10.1093L180.094 8.88013L180.505 9.52596L178.562 10.7603L178.156 10.1093ZM182.021 7.64054L183.948 6.38013L184.364 7.02075L182.442 8.28117L182.021 7.64054ZM185.854 5.10929L187.76 3.81763L188.187 4.45304L186.286 5.74471L185.854 5.10929Z" fill="black"/>
</g>
</g>
</g>
<mask id="mask36_95_1890" style="mask-type:luminance" maskUnits="userSpaceOnUse" x="95" y="95" width="22" height="32">
<path d="M95 95H116.333V127H95V95Z" fill="white"/>
</mask>
<g mask="url(#mask36_95_1890)">
<mask id="mask37_95_1890" style="mask-type:luminance" maskUnits="userSpaceOnUse" x="-78" y="-49" width="441" height="378">
<path d="M-77.5781 107.646L260.13 -48.3542L362.036 172.25L24.3229 328.25L-77.5781 107.646Z" fill="white"/>
</mask>
<g mask="url(#mask37_95_1890)">
<mask id="mask38_95_1890" style="mask-type:luminance" maskUnits="userSpaceOnUse" x="-78" y="-49" width="441" height="378">
<path d="M-77.5781 107.646L260.13 -48.3542L362.036 172.25L24.3229 328.25L-77.5781 107.646Z" fill="white"/>
</mask>
<g mask="url(#mask38_95_1890)">
<path d="M113.151 107.875C113.599 108.849 114 109.838 114.354 110.838C114.703 111.838 114.995 112.833 115.229 113.818C115.469 114.807 115.641 115.766 115.755 116.698C115.865 117.635 115.917 118.521 115.901 119.37C115.885 120.213 115.807 121 115.662 121.724C115.521 122.448 115.318 123.099 115.052 123.672C114.787 124.25 114.469 124.74 114.094 125.146C113.719 125.547 113.292 125.859 112.818 126.078C112.349 126.297 111.833 126.417 111.281 126.443C110.729 126.469 110.151 126.391 109.542 126.219C108.932 126.047 108.302 125.781 107.662 125.422C107.016 125.057 106.365 124.609 105.714 124.073C105.057 123.536 104.412 122.922 103.776 122.234C103.135 121.542 102.521 120.786 101.922 119.969C101.323 119.151 100.755 118.281 100.224 117.365C99.6876 116.453 99.1928 115.505 98.7449 114.526C98.2917 113.552 97.8907 112.562 97.5417 111.562C97.1928 110.562 96.8959 109.568 96.6615 108.578C96.4272 107.594 96.2501 106.635 96.1407 105.698C96.0261 104.766 95.9792 103.875 95.9949 103.031C96.0105 102.187 96.0886 101.401 96.2292 100.677C96.3699 99.9531 96.573 99.302 96.8386 98.7291C97.1042 98.151 97.4219 97.6614 97.8022 97.2551C98.1772 96.8489 98.599 96.5416 99.073 96.3229C99.5469 96.1041 100.057 95.9791 100.609 95.9583C101.162 95.9322 101.745 96.0104 102.354 96.1822C102.964 96.3541 103.589 96.6197 104.234 96.9791C104.875 97.3437 105.526 97.7916 106.177 98.3281C106.833 98.8645 107.479 99.4739 108.115 100.167C108.755 100.859 109.375 101.615 109.969 102.432C110.568 103.25 111.135 104.12 111.672 105.036C112.203 105.948 112.698 106.896 113.151 107.875Z" fill="#7A5CFA"/>
</g>
</g>
</g>
<mask id="mask39_95_1890" style="mask-type:luminance" maskUnits="userSpaceOnUse" x="124" y="81" width="22" height="33">
<path d="M124.333 81.6665H145.667V113.667H124.333V81.6665Z" fill="white"/>
</mask>
<g mask="url(#mask39_95_1890)">
<mask id="mask40_95_1890" style="mask-type:luminance" maskUnits="userSpaceOnUse" x="-78" y="-49" width="441" height="378">
<path d="M-77.5781 107.646L260.13 -48.3542L362.036 172.25L24.3229 328.25L-77.5781 107.646Z" fill="white"/>
</mask>
<g mask="url(#mask40_95_1890)">
<mask id="mask41_95_1890" style="mask-type:luminance" maskUnits="userSpaceOnUse" x="-78" y="-49" width="441" height="378">
<path d="M-77.5781 107.646L260.13 -48.3542L362.036 172.25L24.3229 328.25L-77.5781 107.646Z" fill="white"/>
</mask>
<g mask="url(#mask41_95_1890)">
<path d="M142.594 94.2707C143.047 95.2499 143.448 96.2343 143.797 97.2395C144.146 98.2395 144.443 99.2343 144.677 100.219C144.911 101.203 145.089 102.167 145.198 103.099C145.313 104.031 145.359 104.922 145.344 105.766C145.328 106.614 145.25 107.396 145.109 108.12C144.964 108.844 144.76 109.495 144.5 110.073C144.234 110.646 143.911 111.135 143.536 111.542C143.161 111.948 142.74 112.26 142.266 112.479C141.792 112.698 141.281 112.818 140.729 112.838C140.177 112.864 139.594 112.792 138.984 112.62C138.375 112.448 137.75 112.182 137.104 111.818C136.458 111.458 135.813 111.01 135.156 110.474C134.505 109.937 133.859 109.323 133.219 108.63C132.583 107.943 131.964 107.187 131.365 106.364C130.771 105.547 130.203 104.682 129.667 103.766C129.135 102.849 128.641 101.901 128.188 100.927C127.74 99.9478 127.339 98.9582 126.984 97.9582C126.635 96.9582 126.344 95.9634 126.104 94.9791C125.87 93.9947 125.698 93.0311 125.583 92.0988C125.474 91.1666 125.422 90.2759 125.438 89.4322C125.453 88.5832 125.531 87.802 125.677 87.0728C125.818 86.3488 126.021 85.703 126.286 85.1249C126.547 84.5468 126.87 84.0572 127.245 83.6561C127.62 83.2499 128.047 82.9374 128.521 82.7186C128.99 82.4999 129.505 82.3801 130.057 82.3541C130.609 82.3332 131.188 82.4061 131.797 82.578C132.406 82.7499 133.036 83.0155 133.677 83.3801C134.323 83.7395 134.974 84.1874 135.625 84.7238C136.276 85.2603 136.922 85.8749 137.563 86.5676C138.198 87.2551 138.818 88.0103 139.417 88.828C140.016 89.6509 140.578 90.5155 141.115 91.4322C141.651 92.3488 142.146 93.2916 142.594 94.2707Z" fill="#7A5CFA"/>
</g>
</g>
</g>
<mask id="mask42_95_1890" style="mask-type:luminance" maskUnits="userSpaceOnUse" x="83" y="92" width="80" height="57">
<path d="M83 92.3333H163V148.333H83V92.3333Z" fill="white"/>
</mask>
<g mask="url(#mask42_95_1890)">
<mask id="mask43_95_1890" style="mask-type:luminance" maskUnits="userSpaceOnUse" x="-78" y="-49" width="441" height="378">
<path d="M-77.5781 107.646L260.13 -48.3542L362.036 172.25L24.3229 328.25L-77.5781 107.646Z" fill="white"/>
</mask>
<g mask="url(#mask43_95_1890)">
<mask id="mask44_95_1890" style="mask-type:luminance" maskUnits="userSpaceOnUse" x="-78" y="-49" width="441" height="378">
<path d="M-77.5781 107.646L260.13 -48.3542L362.036 172.25L24.3229 328.25L-77.5781 107.646Z" fill="white"/>
</mask>
<g mask="url(#mask44_95_1890)">
<path d="M84.0105 126.068C85.1771 135.219 94.875 139.963 102.328 143.385C106.24 145.255 110.328 146.557 114.599 147.297C118.531 147.891 122.448 147.818 126.359 147.078C130.313 146.318 134.078 145.005 137.651 143.141C141.224 141.276 144.453 138.937 147.344 136.125C150.115 133.375 152.526 130.338 154.573 127.016C156.62 123.687 158.245 120.167 159.448 116.453C160.818 112.276 161.719 108.005 162.146 103.63C162.531 99.677 162.802 93.7812 157.703 92.901C157.391 92.8489 157.078 92.8645 156.771 92.9426C156.464 93.0207 156.182 93.1562 155.932 93.3541C155.677 93.5468 155.474 93.7864 155.323 94.0624C155.172 94.3437 155.078 94.6405 155.052 94.9582C155.021 95.276 155.057 95.5832 155.156 95.8853C155.255 96.1874 155.411 96.4582 155.62 96.6978C155.833 96.9374 156.083 97.1197 156.37 97.2551C156.661 97.3905 156.964 97.4582 157.281 97.4687C156.906 97.401 157.385 97.4843 157.365 97.5155C157.182 97.7239 157.156 97.0676 157.182 97.4114C157.182 97.4114 157.51 97.8332 157.349 97.5937C157.188 97.3593 157.438 97.7812 157.464 97.8385C157.604 98.0624 157.682 98.3124 157.693 98.578C157.771 98.953 157.818 99.3332 157.833 99.7187C157.818 101.292 157.693 102.854 157.469 104.406C157.068 107.792 156.349 111.104 155.313 114.349C153.328 120.906 150.01 126.698 145.365 131.734C142.984 134.25 140.307 136.391 137.333 138.161C134.359 139.927 131.198 141.255 127.849 142.141C124.495 143.021 121.083 143.344 117.625 143.109C113.938 142.766 110.391 141.875 106.984 140.437C102.927 138.87 99.073 136.906 95.4271 134.542C92.1407 132.344 89.0573 129.463 88.5313 125.354C88.1615 122.411 83.625 123.172 84 126.099L84.0105 126.068Z" fill="#7A5CFA"/>
</g>
</g>
</g>
<mask id="mask45_95_1890" style="mask-type:luminance" maskUnits="userSpaceOnUse" x="151" y="92" width="19" height="7">
<path d="M151 92.3333H169.667V98.9999H151V92.3333Z" fill="white"/>
</mask>
<g mask="url(#mask45_95_1890)">
<mask id="mask46_95_1890" style="mask-type:luminance" maskUnits="userSpaceOnUse" x="-78" y="-49" width="441" height="378">
<path d="M-77.5781 107.646L260.13 -48.3542L362.036 172.25L24.3229 328.25L-77.5781 107.646Z" fill="white"/>
</mask>
<g mask="url(#mask46_95_1890)">
<mask id="mask47_95_1890" style="mask-type:luminance" maskUnits="userSpaceOnUse" x="-78" y="-49" width="441" height="378">
<path d="M-77.5781 107.646L260.13 -48.3542L362.036 172.25L24.3229 328.25L-77.5781 107.646Z" fill="white"/>
</mask>
<g mask="url(#mask47_95_1890)">
<path d="M155.167 98.349C155.542 98.1042 154.896 98.474 155.167 98.349L155.49 98.2031C155.724 98.0937 155.964 97.9844 156.182 97.8802L156.88 97.5625C157.125 97.4948 157.37 97.4062 157.604 97.3021C157.318 97.3802 157.261 97.401 157.443 97.375L157.594 97.3073L157.932 97.2135C158.188 97.1562 158.448 97.099 158.703 97.0573C158.964 97.0104 159.281 96.9687 159.573 96.9427L159.917 96.9062L160.141 96.8958H160.276L160.719 96.901C160.979 96.9167 161.234 96.9323 161.505 96.9583C161.771 96.9896 162.021 97.0156 162.276 97.0573L162.62 97.1198C163.047 97.1927 162.375 97.0469 162.62 97.1198C163.125 97.2552 163.604 97.4167 164.115 97.5937C164.365 97.6875 164.594 97.7917 164.833 97.901C164.943 97.9427 165.052 97.9948 165.151 98.0573C164.74 97.7344 165.151 98.0573 165.234 98.1198C165.49 98.2865 165.766 98.4062 166.063 98.4635C166.359 98.526 166.656 98.5312 166.953 98.4792C167.25 98.4271 167.531 98.3177 167.787 98.1615C168.042 98 168.261 97.7969 168.443 97.5521C168.615 97.3021 168.734 97.026 168.802 96.7292C168.865 96.4323 168.87 96.1302 168.818 95.8333C168.761 95.5312 168.651 95.25 168.49 94.9948C168.323 94.7396 168.115 94.526 167.865 94.349C166.662 93.6458 165.386 93.125 164.037 92.7865C162.688 92.4427 161.318 92.2969 159.927 92.3437C158.537 92.3854 157.182 92.625 155.854 93.0521C154.531 93.4844 153.292 94.0833 152.141 94.8646C151.906 95.0625 151.724 95.2969 151.583 95.5677C151.443 95.8385 151.359 96.125 151.339 96.4271C151.313 96.7292 151.344 97.026 151.438 97.3177C151.531 97.6094 151.677 97.8698 151.875 98.099C152.073 98.3281 152.307 98.5052 152.578 98.6406C152.849 98.776 153.136 98.8542 153.438 98.8802C153.74 98.9062 154.031 98.875 154.323 98.7865C154.609 98.6979 154.875 98.5573 155.109 98.3698L155.167 98.349Z" fill="#7A5CFA"/>
</g>
</g>
</g>
<mask id="mask48_95_1890" style="mask-type:luminance" maskUnits="userSpaceOnUse" x="76" y="119" width="18" height="18">
<path d="M76.3333 119H93.6666V136.333H76.3333V119Z" fill="white"/>
</mask>
<g mask="url(#mask48_95_1890)">
<mask id="mask49_95_1890" style="mask-type:luminance" maskUnits="userSpaceOnUse" x="-78" y="-49" width="441" height="378">
<path d="M-77.5781 107.646L260.13 -48.3542L362.036 172.25L24.3229 328.25L-77.5781 107.646Z" fill="white"/>
</mask>
<g mask="url(#mask49_95_1890)">
<mask id="mask50_95_1890" style="mask-type:luminance" maskUnits="userSpaceOnUse" x="-78" y="-49" width="441" height="378">
<path d="M-77.5781 107.646L260.13 -48.3542L362.036 172.25L24.3229 328.25L-77.5781 107.646Z" fill="white"/>
</mask>
<g mask="url(#mask50_95_1890)">
<path d="M81.802 135.073C84.5051 130.614 87.8645 126.724 91.8801 123.401C92.1145 123.203 92.302 122.969 92.4426 122.698C92.5833 122.427 92.6614 122.14 92.6874 121.833C92.7135 121.531 92.6822 121.234 92.5885 120.943C92.4947 120.651 92.3489 120.39 92.151 120.156C91.953 119.927 91.7187 119.739 91.4478 119.599C91.177 119.458 90.8905 119.375 90.5885 119.354C90.2812 119.328 89.9843 119.359 89.6978 119.453C89.4062 119.547 89.1405 119.693 88.9114 119.89C84.5989 123.479 80.9739 127.667 78.0312 132.448C77.8333 132.693 77.6874 132.969 77.6041 133.276C77.5208 133.583 77.4999 133.896 77.5416 134.208C77.5833 134.526 77.6874 134.818 77.8541 135.088C78.0208 135.364 78.2343 135.588 78.4947 135.771C78.7551 135.958 79.0416 136.078 79.3541 136.146C79.6666 136.208 79.9791 136.208 80.2864 136.14C80.5989 136.078 80.8853 135.953 81.1458 135.771C81.4062 135.583 81.6197 135.359 81.7812 135.083L81.802 135.073Z" fill="#7A5CFA"/>
</g>
</g>
</g>
</svg>
