<svg width="404" height="135" viewBox="0 0 404 135" fill="none" xmlns="http://www.w3.org/2000/svg">
<path d="M65.4543 133.594C62.0636 133.594 58.9438 132.771 56.1001 131.115C53.2511 129.448 51.0011 127.235 49.3501 124.469C47.6938 121.709 46.8709 118.631 46.8709 115.24V111.323C46.8709 110.631 46.6209 110.032 46.1209 109.532C45.6209 109.032 45.022 108.782 44.3293 108.782C43.6313 108.782 43.0376 109.032 42.5376 109.532C42.0376 110.032 41.7876 110.631 41.7876 111.323V115.24C41.7876 118.698 40.9803 121.818 39.3709 124.594C37.7563 127.36 35.5636 129.553 32.7876 131.178C30.022 132.792 26.9126 133.594 23.4543 133.594C20.147 133.594 17.0845 132.792 14.2668 131.178C11.4595 129.553 9.23031 127.36 7.57926 124.594C5.92301 121.818 5.1001 118.698 5.1001 115.24V69.7609C5.1001 66.3026 5.92301 63.214 7.57926 60.4901C9.23031 57.7557 11.4595 55.5838 14.2668 53.9692C17.0845 52.3442 20.147 51.5317 23.4543 51.5317C26.9126 51.5317 30.022 52.3442 32.7876 53.9692C35.5636 55.5838 37.7563 57.7557 39.3709 60.4901C40.9803 63.214 41.7876 66.3026 41.7876 69.7609V73.9276C41.7876 74.5422 42.0376 75.0942 42.5376 75.5942C43.0376 76.0942 43.6313 76.3442 44.3293 76.3442C45.022 76.3442 45.6209 76.0942 46.1209 75.5942C46.6209 75.0942 46.8709 74.5422 46.8709 73.9276V69.7609C46.8709 66.3859 47.6938 63.3338 49.3501 60.5942C51.0011 57.8599 53.2511 55.6672 56.1001 54.0109C58.9438 52.3599 62.0636 51.5317 65.4543 51.5317C68.8397 51.5317 71.9178 52.3599 74.6834 54.0109C77.4438 55.6672 79.6522 57.8599 81.3084 60.5942C82.9751 63.3338 83.8084 66.3859 83.8084 69.7609V115.24C83.8084 118.631 82.9751 121.709 81.3084 124.469C79.6522 127.235 77.4438 129.448 74.6834 131.115C71.9178 132.771 68.8397 133.594 65.4543 133.594Z" fill="#7A5CFA" fill-opacity="0.4"/>
<path d="M128.92 50.386C134.681 50.386 140.118 51.4849 145.233 53.6777C150.358 55.8756 154.842 58.8964 158.691 62.7402C162.535 66.5891 165.556 71.0527 167.754 76.136C169.946 81.2089 171.045 86.6256 171.045 92.386C171.045 98.1672 169.946 103.594 167.754 108.678C165.556 113.751 162.535 118.188 158.691 121.99C154.842 125.797 150.358 128.777 145.233 130.928C140.118 133.084 134.681 134.157 128.92 134.157C123.222 134.157 117.837 133.084 112.754 130.928C107.681 128.777 103.222 125.797 99.3786 121.99C95.5296 118.188 92.5088 113.751 90.3161 108.678C88.1182 103.594 87.0244 98.1672 87.0244 92.386C87.0244 86.6256 88.1182 81.2089 90.3161 76.136C92.5088 71.0527 95.5296 66.5891 99.3786 62.7402C103.222 58.8964 107.681 55.8756 112.754 53.6777C117.837 51.4849 123.222 50.386 128.92 50.386ZM128.92 88.011C127.92 88.011 126.972 88.4172 126.087 89.2193C125.212 90.0266 124.774 91.0839 124.774 92.386C124.774 93.6256 125.212 94.6881 126.087 95.5735C126.972 96.4485 127.92 96.886 128.92 96.886C130.155 96.886 131.212 96.4485 132.087 95.5735C132.972 94.6881 133.42 93.6256 133.42 92.386C133.42 91.0839 132.972 90.0266 132.087 89.2193C131.212 88.4172 130.155 88.011 128.92 88.011Z" fill="#7A5CFA" fill-opacity="0.4"/>
<path d="M234.616 108.886C232.241 111.735 229.663 114.235 226.887 116.386C224.121 118.542 221.392 119.584 218.699 119.511C216.085 119.511 213.455 118.459 210.804 116.344C208.147 114.219 205.585 111.735 203.116 108.886L199.554 104.511C199.314 104.277 199.059 104.219 198.783 104.344C198.517 104.459 198.501 104.667 198.741 104.969L209.929 120.324C209.387 125.006 207.418 128.485 204.033 130.761C200.658 133.027 196.741 134.157 192.283 134.157C189.199 134.157 186.288 133.334 183.554 131.678C180.83 130.027 178.6 127.839 176.866 125.115C175.142 122.381 174.283 119.36 174.283 116.053V70.5736C174.283 67.1986 175.043 64.2194 176.574 61.6361C178.116 59.0527 180.116 56.9798 182.574 55.4069C185.043 53.8236 187.741 52.86 190.658 52.5111C193.585 52.1673 196.47 52.5527 199.304 53.6777C202.147 54.7923 204.658 56.735 206.824 59.5111L218.824 74.9694L231.158 59.5111C233.392 56.735 235.913 54.7923 238.72 53.6777C241.522 52.5527 244.387 52.1673 247.304 52.5111C250.231 52.86 252.929 53.8236 255.387 55.4069C257.856 56.9798 259.856 59.0527 261.387 61.6361C262.929 64.2194 263.699 67.1986 263.699 70.5736V116.053C263.699 119.36 262.83 122.381 261.095 125.115C259.371 127.839 257.142 130.027 254.408 131.678C251.684 133.334 248.783 134.157 245.699 134.157C241.241 134.157 237.314 133.027 233.929 130.761C230.538 128.485 228.58 125.006 228.054 120.324L239.241 104.969C239.392 104.735 239.35 104.542 239.116 104.386C238.892 104.235 238.663 104.277 238.429 104.511L234.616 108.886Z" fill="#7A5CFA" fill-opacity="0.4"/>
<path d="M267.168 70.0111C267.168 66.5423 267.949 63.4017 269.522 60.5944C271.105 57.7923 273.298 55.5632 276.105 53.9069C278.908 52.2559 282.126 51.4277 285.751 51.4277H315.855C319.48 51.4277 322.652 52.334 325.376 54.1361C328.111 55.9434 330.21 58.2923 331.668 61.1777C333.137 64.0684 333.855 67.1465 333.814 70.4069C333.772 73.6725 332.824 76.7715 330.98 79.6986C329.132 82.6986 326.861 84.7975 324.168 85.9902C321.47 87.1882 318.397 87.86 314.939 88.0111C314.548 88.0111 314.355 88.2298 314.355 88.6569C314.355 89.0736 314.548 89.36 314.939 89.5111C318.09 89.8861 321.168 89.6725 324.168 88.8652C327.168 88.0632 329.819 86.4642 332.126 84.0736C333.668 87.4642 334.168 91.1465 333.626 95.1152C333.095 99.0736 331.564 102.318 329.022 104.844C327.324 106.777 325.361 108.146 323.126 108.949C320.902 109.756 318.564 110.313 316.105 110.615C315.715 110.615 315.522 110.855 315.522 111.324C315.522 111.782 315.715 112.011 316.105 112.011C319.105 112.318 322.022 112.089 324.855 111.324C327.699 110.548 330.21 108.886 332.376 106.344C332.986 107.344 333.423 108.464 333.689 109.699C333.965 110.938 334.105 112.782 334.105 115.24C334.105 117.006 333.757 118.949 333.064 121.074C332.366 123.188 331.272 125.188 329.772 127.074C328.272 128.949 326.382 130.485 324.105 131.678C321.84 132.876 319.09 133.469 315.855 133.469H285.522C282.132 133.469 279.033 132.646 276.23 130.99C273.423 129.339 271.21 127.131 269.585 124.365C267.97 121.589 267.168 118.548 267.168 115.24V70.0111Z" fill="#7A5CFA" fill-opacity="0.4"/>
<path d="M336.753 70.0111C336.753 66.5423 337.534 63.4017 339.107 60.5944C340.69 57.7923 342.883 55.5632 345.69 53.9069C348.492 52.2559 351.711 51.4277 355.336 51.4277H385.44C389.065 51.4277 392.237 52.334 394.961 54.1361C397.695 55.9434 399.794 58.2923 401.253 61.1777C402.721 64.0684 403.44 67.1465 403.399 70.4069C403.357 73.6725 402.409 76.7715 400.565 79.6986C398.716 82.6986 396.445 84.7975 393.753 85.9902C391.055 87.1882 387.982 87.86 384.524 88.0111C384.133 88.0111 383.94 88.2298 383.94 88.6569C383.94 89.0736 384.133 89.36 384.524 89.5111C387.675 89.8861 390.753 89.6725 393.753 88.8652C396.753 88.0632 399.404 86.4642 401.711 84.0736C403.253 87.4642 403.753 91.1465 403.211 95.1152C402.68 99.0736 401.149 102.318 398.607 104.844C396.909 106.777 394.945 108.146 392.711 108.949C390.487 109.756 388.149 110.313 385.69 110.615C385.3 110.615 385.107 110.855 385.107 111.324C385.107 111.782 385.3 112.011 385.69 112.011C388.69 112.318 391.607 112.089 394.44 111.324C397.284 110.548 399.794 108.886 401.961 106.344C402.57 107.344 403.008 108.464 403.274 109.699C403.55 110.938 403.69 112.782 403.69 115.24C403.69 117.006 403.341 118.949 402.649 121.074C401.951 123.188 400.857 125.188 399.357 127.074C397.857 128.949 395.966 130.485 393.69 131.678C391.425 132.876 388.675 133.469 385.44 133.469H355.107C351.716 133.469 348.617 132.646 345.815 130.99C343.008 129.339 340.794 127.131 339.169 124.365C337.555 121.589 336.753 118.548 336.753 115.24V70.0111Z" fill="#7A5CFA" fill-opacity="0.4"/>
<path d="M60.3542 128.494C56.9635 128.494 53.8438 127.671 51 126.015C48.151 124.348 45.901 122.135 44.25 119.369C42.5938 116.609 41.7708 113.531 41.7708 110.14V106.223C41.7708 105.531 41.5208 104.932 41.0208 104.432C40.5208 103.932 39.9219 103.682 39.2292 103.682C38.5313 103.682 37.9375 103.932 37.4375 104.432C36.9375 104.932 36.6875 105.531 36.6875 106.223V110.14C36.6875 113.598 35.8802 116.718 34.2708 119.494C32.6563 122.26 30.4635 124.452 27.6875 126.077C24.9219 127.692 21.8125 128.494 18.3542 128.494C15.0469 128.494 11.9844 127.692 9.16667 126.077C6.35937 124.452 4.13021 122.26 2.47917 119.494C0.822917 116.718 0 113.598 0 110.14V64.6608C0 61.2025 0.822917 58.1139 2.47917 55.39C4.13021 52.6556 6.35937 50.4837 9.16667 48.8691C11.9844 47.2441 15.0469 46.4316 18.3542 46.4316C21.8125 46.4316 24.9219 47.2441 27.6875 48.8691C30.4635 50.4837 32.6563 52.6556 34.2708 55.39C35.8802 58.1139 36.6875 61.2025 36.6875 64.6608V68.8275C36.6875 69.4421 36.9375 69.9941 37.4375 70.4941C37.9375 70.9941 38.5313 71.2441 39.2292 71.2441C39.9219 71.2441 40.5208 70.9941 41.0208 70.4941C41.5208 69.9941 41.7708 69.4421 41.7708 68.8275V64.6608C41.7708 61.2858 42.5938 58.2337 44.25 55.4941C45.901 52.7598 48.151 50.5671 51 48.9108C53.8438 47.2598 56.9635 46.4316 60.3542 46.4316C63.7396 46.4316 66.8177 47.2598 69.5833 48.9108C72.3438 50.5671 74.5521 52.7598 76.2083 55.4941C77.875 58.2337 78.7083 61.2858 78.7083 64.6608V110.14C78.7083 113.531 77.875 116.609 76.2083 119.369C74.5521 122.135 72.3438 124.348 69.5833 126.015C66.8177 127.671 63.7396 128.494 60.3542 128.494Z" fill="white"/>
<path d="M123.82 45.2859C129.581 45.2859 135.018 46.3848 140.133 48.5776C145.258 50.7755 149.742 53.7963 153.591 57.6401C157.435 61.489 160.456 65.9526 162.653 71.0359C164.846 76.1088 165.945 81.5255 165.945 87.2859C165.945 93.0671 164.846 98.4942 162.653 103.578C160.456 108.65 157.435 113.088 153.591 116.89C149.742 120.697 145.258 123.677 140.133 125.828C135.018 127.984 129.581 129.057 123.82 129.057C118.122 129.057 112.737 127.984 107.653 125.828C102.581 123.677 98.1222 120.697 94.2785 116.89C90.4295 113.088 87.4087 108.65 85.216 103.578C83.0181 98.4942 81.9243 93.0671 81.9243 87.2859C81.9243 81.5255 83.0181 76.1088 85.216 71.0359C87.4087 65.9526 90.4295 61.489 94.2785 57.6401C98.1222 53.7963 102.581 50.7755 107.653 48.5776C112.737 46.3848 118.122 45.2859 123.82 45.2859ZM123.82 82.9109C122.82 82.9109 121.872 83.3171 120.987 84.1192C120.112 84.9265 119.674 85.9838 119.674 87.2859C119.674 88.5255 120.112 89.588 120.987 90.4734C121.872 91.3484 122.82 91.7859 123.82 91.7859C125.055 91.7859 126.112 91.3484 126.987 90.4734C127.872 89.588 128.32 88.5255 128.32 87.2859C128.32 85.9838 127.872 84.9265 126.987 84.1192C126.112 83.3171 125.055 82.9109 123.82 82.9109Z" fill="white"/>
<path d="M229.516 103.786C227.141 106.635 224.563 109.135 221.787 111.286C219.021 113.442 216.292 114.484 213.599 114.411C210.984 114.411 208.354 113.359 205.703 111.244C203.047 109.119 200.484 106.635 198.016 103.786L194.453 99.411C194.214 99.1766 193.958 99.1193 193.682 99.2443C193.417 99.3589 193.401 99.5672 193.641 99.8693L204.828 115.223C204.287 119.906 202.318 123.385 198.932 125.661C195.557 127.927 191.641 129.057 187.182 129.057C184.099 129.057 181.188 128.234 178.453 126.578C175.729 124.927 173.5 122.739 171.766 120.015C170.042 117.281 169.182 114.26 169.182 110.953V65.4735C169.182 62.0985 169.943 59.1193 171.474 56.536C173.016 53.9526 175.016 51.8797 177.474 50.3068C179.943 48.7235 182.641 47.7599 185.557 47.411C188.484 47.0672 191.37 47.4526 194.203 48.5776C197.047 49.6922 199.557 51.6349 201.724 54.411L213.724 69.8693L226.057 54.411C228.292 51.6349 230.813 49.6922 233.62 48.5776C236.422 47.4526 239.287 47.0672 242.203 47.411C245.13 47.7599 247.828 48.7235 250.287 50.3068C252.755 51.8797 254.755 53.9526 256.287 56.536C257.828 59.1193 258.599 62.0985 258.599 65.4735V110.953C258.599 114.26 257.729 117.281 255.995 120.015C254.271 122.739 252.042 124.927 249.307 126.578C246.583 128.234 243.682 129.057 240.599 129.057C236.141 129.057 232.214 127.927 228.828 125.661C225.438 123.385 223.479 119.906 222.953 115.223L234.141 99.8693C234.292 99.6349 234.25 99.4422 234.016 99.286C233.792 99.1349 233.563 99.1766 233.328 99.411L229.516 103.786Z" fill="white"/>
<path d="M262.068 64.911C262.068 61.4422 262.849 58.3016 264.422 55.4943C266.005 52.6922 268.198 50.4631 271.005 48.8068C273.807 47.1558 277.026 46.3276 280.651 46.3276H310.755C314.38 46.3276 317.552 47.2339 320.276 49.036C323.011 50.8433 325.11 53.1922 326.568 56.0776C328.037 58.9683 328.755 62.0464 328.714 65.3068C328.672 68.5724 327.724 71.6714 325.88 74.5985C324.031 77.5985 321.761 79.6974 319.068 80.8901C316.37 82.0881 313.297 82.7599 309.839 82.911C309.448 82.911 309.255 83.1297 309.255 83.5568C309.255 83.9735 309.448 84.2599 309.839 84.411C312.99 84.786 316.068 84.5724 319.068 83.7651C322.068 82.9631 324.719 81.3641 327.026 78.9735C328.568 82.3641 329.068 86.0464 328.526 90.0151C327.995 93.9735 326.464 97.2183 323.922 99.7443C322.224 101.677 320.261 103.046 318.026 103.848C315.802 104.656 313.464 105.213 311.005 105.515C310.615 105.515 310.422 105.755 310.422 106.223C310.422 106.682 310.615 106.911 311.005 106.911C314.005 107.218 316.922 106.989 319.755 106.223C322.599 105.447 325.11 103.786 327.276 101.244C327.886 102.244 328.323 103.364 328.589 104.598C328.865 105.838 329.005 107.682 329.005 110.14C329.005 111.906 328.656 113.848 327.964 115.973C327.266 118.088 326.172 120.088 324.672 121.973C323.172 123.848 321.281 125.385 319.005 126.578C316.74 127.776 313.99 128.369 310.755 128.369H280.422C277.031 128.369 273.932 127.546 271.13 125.89C268.323 124.239 266.11 122.031 264.485 119.265C262.87 116.489 262.068 113.447 262.068 110.14V64.911Z" fill="white"/>
<path d="M331.653 64.911C331.653 61.4422 332.434 58.3016 334.007 55.4943C335.59 52.6922 337.783 50.4631 340.59 48.8068C343.392 47.1558 346.611 46.3276 350.236 46.3276H380.34C383.965 46.3276 387.137 47.2339 389.861 49.036C392.595 50.8433 394.694 53.1922 396.153 56.0776C397.621 58.9683 398.34 62.0464 398.298 65.3068C398.257 68.5724 397.309 71.6714 395.465 74.5985C393.616 77.5985 391.345 79.6974 388.653 80.8901C385.955 82.0881 382.882 82.7599 379.423 82.911C379.033 82.911 378.84 83.1297 378.84 83.5568C378.84 83.9735 379.033 84.2599 379.423 84.411C382.574 84.786 385.653 84.5724 388.653 83.7651C391.653 82.9631 394.304 81.3641 396.611 78.9735C398.153 82.3641 398.653 86.0464 398.111 90.0151C397.58 93.9735 396.048 97.2183 393.507 99.7443C391.809 101.677 389.845 103.046 387.611 103.848C385.387 104.656 383.048 105.213 380.59 105.515C380.199 105.515 380.007 105.755 380.007 106.223C380.007 106.682 380.199 106.911 380.59 106.911C383.59 107.218 386.507 106.989 389.34 106.223C392.184 105.447 394.694 103.786 396.861 101.244C397.47 102.244 397.908 103.364 398.173 104.598C398.449 105.838 398.59 107.682 398.59 110.14C398.59 111.906 398.241 113.848 397.548 115.973C396.851 118.088 395.757 120.088 394.257 121.973C392.757 123.848 390.866 125.385 388.59 126.578C386.324 127.776 383.574 128.369 380.34 128.369H350.007C346.616 128.369 343.517 127.546 340.715 125.89C337.908 124.239 335.694 122.031 334.069 119.265C332.455 116.489 331.653 113.447 331.653 110.14V64.911Z" fill="white"/>
<mask id="mask0_97_2113" style="mask-type:luminance" maskUnits="userSpaceOnUse" x="62" y="1" width="90" height="78">
<path d="M62.5393 1.33325H151.873V78.6666H62.5393V1.33325Z" fill="white"/>
</mask>
<g mask="url(#mask0_97_2113)">
<mask id="mask1_97_2113" style="mask-type:luminance" maskUnits="userSpaceOnUse" x="42" y="-12" width="115" height="98">
<path d="M42.4612 28.6353L130.383 -11.9792L156.763 45.1249L68.8414 85.7343L42.4612 28.6353Z" fill="white"/>
</mask>
<g mask="url(#mask1_97_2113)">
<mask id="mask2_97_2113" style="mask-type:luminance" maskUnits="userSpaceOnUse" x="42" y="-12" width="115" height="98">
<path d="M42.4612 28.6353L130.383 -11.9792L156.763 45.1249L68.8414 85.7343L42.4612 28.6353Z" fill="white"/>
</mask>
<g mask="url(#mask2_97_2113)">
<path d="M70.6644 78.4217C68.7008 78.5779 66.1383 78.3488 65.6123 76.4477C65.4613 75.9165 65.5342 75.3436 65.6019 74.7967C65.93 72.3904 66.456 70.0311 67.18 67.7134C67.9925 65.0988 69.0654 62.5363 69.3727 59.8123C69.7946 56.1092 68.7738 52.4061 67.7685 48.8123L64.805 38.2654C63.5446 33.7811 62.2998 28.9009 64.0238 24.5675C65.1019 21.854 67.305 19.9425 69.7008 18.2706C76.8258 13.2863 83.4613 10.6248 92.3883 6.09356C94.7269 4.90606 101.305 2.84877 103.841 2.17689C110.373 0.442516 113.774 2.23418 117.576 5.89564C121.383 9.55189 123.94 14.3748 126.696 18.8748C129.456 23.38 132.539 27.88 136.956 30.7811C140.946 33.4009 145.716 34.5154 150.102 36.4165C150.607 36.6404 151.159 36.9165 151.362 37.4373C151.513 37.8384 151.414 38.2863 151.289 38.7029C150.3 41.7602 147.633 43.9321 145.06 45.8592C128.93 57.9165 111.133 65.3748 91.5133 73.2342C84.6488 75.9894 78.1227 78.7498 70.6956 78.4373" fill="#7A5CFA"/>
</g>
</g>
</g>
<mask id="mask3_97_2113" style="mask-type:luminance" maskUnits="userSpaceOnUse" x="62" y="0" width="90" height="80">
<path d="M62.5393 0H151.873V80H62.5393V0Z" fill="white"/>
</mask>
<g mask="url(#mask3_97_2113)">
<mask id="mask4_97_2113" style="mask-type:luminance" maskUnits="userSpaceOnUse" x="42" y="-12" width="115" height="98">
<path d="M42.4612 28.6353L130.383 -11.9792L156.763 45.1249L68.8414 85.7343L42.4612 28.6353Z" fill="white"/>
</mask>
<g mask="url(#mask4_97_2113)">
<mask id="mask5_97_2113" style="mask-type:luminance" maskUnits="userSpaceOnUse" x="42" y="-12" width="115" height="98">
<path d="M42.4612 28.6353L130.383 -11.9792L156.763 45.1249L68.8414 85.7343L42.4612 28.6353Z" fill="white"/>
</mask>
<g mask="url(#mask5_97_2113)">
<path d="M70.6018 78.0833C68.7164 78.2135 65.7581 78.052 65.8675 75.5C65.9664 73.177 66.6383 70.7447 67.2893 68.5312C68.482 64.4687 70.107 60.7239 69.7373 56.3958C69.3623 52.0052 67.805 47.7031 66.6175 43.4895C65.4716 39.4062 63.9977 35.2552 63.5966 31.0052C63.4039 28.9843 63.5237 26.901 64.2268 24.9791C64.982 22.9218 66.4352 21.276 68.107 19.9114C71.2633 17.3125 74.9195 15.2604 78.5237 13.3593C82.2425 11.3958 86.055 9.63016 89.8102 7.77079C92.805 6.276 95.8883 5.01037 99.0706 3.9687C102.045 3.01037 105.19 1.86454 108.352 1.86454C111.341 1.86454 113.878 3.12496 116.112 5.04162C122.92 10.875 125.815 19.7708 131.597 26.4583C134.3 29.5781 137.565 31.9166 141.394 33.4687C143.289 34.2656 145.248 34.9218 147.18 35.6406C148.112 35.9895 149.071 36.3281 149.972 36.7552C150.909 37.1927 151.201 37.901 150.847 38.8906C150.649 39.4375 150.394 39.9635 150.086 40.4635C149.008 42.2187 147.425 43.5989 145.821 44.8489C144.034 46.2395 142.19 47.5468 140.326 48.8229C136.498 51.4427 132.529 53.8645 128.472 56.1197C120.378 60.6197 111.93 64.4427 103.394 68.0208C98.9612 69.8802 94.4925 71.6718 90.0289 73.4635C85.9195 75.1145 81.7737 76.7604 77.4039 77.5885C75.1956 78.0104 72.9612 78.1822 70.7164 78.1041C70.2737 78.0937 70.2008 78.7812 70.6435 78.7916C75.206 78.9531 79.6383 77.9843 83.9195 76.5208C88.5341 74.9479 93.0393 73.0104 97.5498 71.1718C106.774 67.4218 115.946 63.5104 124.769 58.8958C128.982 56.6927 133.112 54.3281 137.117 51.7656C139.175 50.4479 141.196 49.0781 143.18 47.651C144.987 46.3593 146.821 45.0625 148.43 43.526C149.789 42.2187 151.034 40.651 151.602 38.8229C152.232 36.7864 150.571 36.2135 148.982 35.5781C144.732 33.8802 140.201 32.7031 136.44 30.0052C128.498 24.302 125.628 14.3541 119.326 7.22912C117.279 4.91141 114.763 2.5885 111.742 1.65621C108.727 0.718706 105.56 1.30725 102.586 2.17183C99.482 3.06766 96.3518 4.03121 93.3675 5.27079C91.5029 6.05204 89.7164 7.05204 87.8987 7.93746C85.8675 8.92704 83.831 9.90621 81.805 10.9062C77.9977 12.7916 74.2529 14.7968 70.7164 17.1562C67.2998 19.4375 64.0758 22.0573 63.1435 26.2604C62.2737 30.1927 63.3258 34.25 64.3779 38.0364C65.7268 42.8385 67.2477 47.6354 68.3779 52.5C68.9091 54.7708 69.2685 57.1145 69.0602 59.4479C68.8466 61.7812 68.0237 64.0572 67.2737 66.2916C66.5341 68.4791 65.956 70.7031 65.5341 72.9687C65.2425 74.6041 64.6591 76.7031 66.1956 77.9114C67.43 78.8802 69.232 78.875 70.7216 78.776C71.1643 78.7447 71.0445 78.0572 70.607 78.0885L70.6018 78.0833Z" fill="black"/>
</g>
</g>
</g>
<mask id="mask6_97_2113" style="mask-type:luminance" maskUnits="userSpaceOnUse" x="69" y="26" width="66" height="33">
<path d="M69.2061 26.6667H134.539V58.6667H69.2061V26.6667Z" fill="white"/>
</mask>
<g mask="url(#mask6_97_2113)">
<mask id="mask7_97_2113" style="mask-type:luminance" maskUnits="userSpaceOnUse" x="42" y="-12" width="115" height="98">
<path d="M42.4612 28.6356L130.383 -11.979L156.763 45.1252L68.8414 85.7345L42.4612 28.6356Z" fill="white"/>
</mask>
<g mask="url(#mask7_97_2113)">
<mask id="mask8_97_2113" style="mask-type:luminance" maskUnits="userSpaceOnUse" x="42" y="-12" width="115" height="98">
<path d="M42.4612 28.6356L130.383 -11.979L156.763 45.1252L68.8414 85.7345L42.4612 28.6356Z" fill="white"/>
</mask>
<g mask="url(#mask8_97_2113)">
<path d="M69.6383 57.7033C74.0862 57.6304 78.3935 56.8179 82.5601 55.2658C87.0185 53.6096 91.3674 51.6356 95.758 49.7814C104.748 45.995 113.591 42.0262 122.003 37.0627C124.268 35.7242 126.498 34.3335 128.696 32.896C130.643 31.62 132.706 30.3908 134.143 28.5106C134.42 28.1669 133.847 27.7606 133.576 28.12C132.248 29.8231 130.362 30.9794 128.576 32.1564C126.539 33.495 124.477 34.7919 122.383 36.0367C118.425 38.4012 114.373 40.5992 110.222 42.6252C101.925 46.6773 93.2997 50.1304 84.7685 53.6564C79.9247 55.6512 74.9612 56.9325 69.7112 57.0158C69.2789 57.0158 69.2008 57.7137 69.6435 57.6981L69.6383 57.7033Z" fill="black"/>
</g>
</g>
</g>
<mask id="mask9_97_2113" style="mask-type:luminance" maskUnits="userSpaceOnUse" x="62" y="1" width="52" height="25">
<path d="M62.5393 1.33325H113.206V25.3333H62.5393V1.33325Z" fill="white"/>
</mask>
<g mask="url(#mask9_97_2113)">
<mask id="mask10_97_2113" style="mask-type:luminance" maskUnits="userSpaceOnUse" x="42" y="-12" width="115" height="98">
<path d="M42.4612 28.6353L130.383 -11.9792L156.763 45.1249L68.8414 85.7343L42.4612 28.6353Z" fill="white"/>
</mask>
<g mask="url(#mask10_97_2113)">
<mask id="mask11_97_2113" style="mask-type:luminance" maskUnits="userSpaceOnUse" x="42" y="-12" width="115" height="98">
<path d="M42.4612 28.6353L130.383 -11.9792L156.763 45.1249L68.8414 85.7343L42.4612 28.6353Z" fill="white"/>
</mask>
<g mask="url(#mask11_97_2113)">
<path d="M64.2476 24.9792C67.4768 24.3229 70.5809 22.7083 73.6226 21.4792L83.5549 17.4635C86.8049 16.151 89.8413 14.4583 93.0393 13.0417C96.2788 11.599 99.4872 10.1094 102.638 8.47917C106.102 6.70313 109.446 4.71875 112.669 2.53646C113.034 2.28646 112.586 1.75521 112.222 2.00521C106.44 5.94271 100.175 9.07292 93.8049 11.9323C90.7424 13.3073 87.8153 14.9844 84.7007 16.2448C81.5132 17.5417 78.3205 18.8333 75.1278 20.1146L69.7111 22.3073C67.883 23.0417 66.0601 23.8958 64.1226 24.2917C63.6851 24.3802 63.7997 25.0625 64.2372 24.974L64.2476 24.9792Z" fill="black"/>
</g>
</g>
</g>
<mask id="mask12_97_2113" style="mask-type:luminance" maskUnits="userSpaceOnUse" x="65" y="36" width="85" height="39">
<path d="M65.2061 36H149.206V74.6667H65.2061V36Z" fill="white"/>
</mask>
<g mask="url(#mask12_97_2113)">
<mask id="mask13_97_2113" style="mask-type:luminance" maskUnits="userSpaceOnUse" x="42" y="-12" width="115" height="98">
<path d="M42.4612 28.6353L130.383 -11.9792L156.763 45.1249L68.8414 85.7343L42.4612 28.6353Z" fill="white"/>
</mask>
<g mask="url(#mask13_97_2113)">
<mask id="mask14_97_2113" style="mask-type:luminance" maskUnits="userSpaceOnUse" x="42" y="-12" width="115" height="98">
<path d="M42.4612 28.6353L130.383 -11.9792L156.763 45.1249L68.8414 85.7343L42.4612 28.6353Z" fill="white"/>
</mask>
<g mask="url(#mask14_97_2113)">
<path d="M65.7945 74.2134C65.9924 74.2394 66.1903 74.255 66.3883 74.2759L66.3674 74.4738C66.1695 74.453 65.9716 74.4321 65.7737 74.4113L65.7945 74.2134ZM66.9768 74.3228C67.1747 74.3384 67.3726 74.354 67.5706 74.3644L67.5549 74.5623C67.357 74.5519 67.1591 74.5363 66.9612 74.5207L66.9768 74.3228ZM68.1643 74.4009C68.3622 74.4061 68.5601 74.4165 68.7581 74.4217L68.7476 74.6196C68.5497 74.6144 68.3518 74.604 68.1539 74.5988L68.1643 74.4009ZM69.3518 74.4373C69.5497 74.4373 69.7476 74.4425 69.9456 74.4425V74.6405C69.7476 74.6405 69.5445 74.6405 69.3466 74.6353L69.3518 74.4373ZM70.5393 74.4373C70.7372 74.4373 70.9351 74.4321 71.1331 74.4269L71.1383 74.6248C70.9403 74.63 70.7372 74.6353 70.5393 74.6353V74.4373ZM71.7268 74.4061C71.9247 74.3957 72.1226 74.3905 72.3206 74.3748L72.331 74.5728C72.1331 74.5884 71.9351 74.5936 71.732 74.604L71.7268 74.4061ZM72.9143 74.3384C73.107 74.3228 73.3049 74.3071 73.5028 74.2915L73.5237 74.4894C73.3258 74.505 73.1226 74.5207 72.9247 74.5363L72.9143 74.3384ZM74.0966 74.2342C74.2945 74.2134 74.4872 74.1925 74.6851 74.1665L74.7112 74.3644C74.5133 74.3905 74.3153 74.4113 74.1174 74.4321L74.0966 74.2342ZM75.2737 74.0936C75.4716 74.0675 75.6695 74.0415 75.8622 74.0103L75.8935 74.2082C75.6956 74.2394 75.4976 74.2655 75.2997 74.2915L75.2737 74.0936ZM76.4508 73.9217C76.6435 73.8905 76.8414 73.854 77.0341 73.8228L77.0706 74.0155C76.8726 74.0519 76.6799 74.0832 76.482 74.1144L76.4508 73.9217ZM77.6174 73.7134C77.8153 73.6717 78.0081 73.6353 78.2008 73.5936L78.2424 73.7863C78.0497 73.828 77.8518 73.8696 77.6591 73.9061L77.6174 73.7134ZM78.7841 73.4686C78.9768 73.4217 79.1695 73.38 79.3622 73.3332L79.4091 73.5259C79.2164 73.5728 79.0237 73.6144 78.8258 73.6613L78.7841 73.4686ZM79.9403 73.1873C80.1278 73.1405 80.3206 73.0884 80.5081 73.0363L80.5601 73.229C80.3726 73.2811 80.1799 73.3332 79.9872 73.38L79.9403 73.1873ZM81.081 72.8748L81.6487 72.703L81.706 72.8905L81.1383 73.0623L81.081 72.8748ZM82.2164 72.5207L82.7789 72.3332L82.8414 72.5207L82.2789 72.7082L82.2164 72.5207ZM83.3414 72.1405L83.8987 71.9373L83.9664 72.1248L83.4091 72.328L83.3414 72.1405ZM84.456 71.7342L85.0133 71.5207L85.081 71.7082L84.5237 71.9165L84.456 71.7342ZM85.5653 71.3071L86.1174 71.0884L86.1903 71.2759L85.6383 71.4946L85.5653 71.3071ZM86.6695 70.8696L87.2216 70.6457L87.2997 70.828L86.7476 71.0519L86.6695 70.8696ZM87.7737 70.4217L88.2945 70.2082L88.3258 70.1978L88.3987 70.38L88.3726 70.3957L87.8518 70.604L87.7737 70.4217ZM88.8778 69.9738L89.4247 69.7498L89.5028 69.9321L88.9508 70.1561L88.8778 69.9738ZM89.9768 69.5259L90.5289 69.2967L90.6018 69.4842L90.0549 69.7082L89.9768 69.5259ZM91.081 69.0728L91.6331 68.8488L91.706 69.0311L91.1539 69.255L91.081 69.0728ZM92.1799 68.6248L92.732 68.4009L92.8101 68.5832L92.2581 68.8071L92.1799 68.6248ZM93.2841 68.1769L93.8362 67.9478L93.9091 68.1353L93.357 68.3592L93.2841 68.1769ZM94.3883 67.7238L94.9351 67.4998L95.0133 67.6821L94.4612 67.9061L94.3883 67.7238ZM95.4872 67.2759L96.0393 67.0519L96.1122 67.2342L95.5653 67.4582L95.4872 67.2759ZM96.5914 66.828L97.1435 66.5988L97.2164 66.7863L96.6643 67.0103L96.5914 66.828ZM97.6903 66.3748L98.2424 66.1509L98.3206 66.3332L97.7685 66.5623L97.6903 66.3748ZM98.7945 65.9269L99.3466 65.703L99.4195 65.8853L98.8674 66.1092L98.7945 65.9269ZM99.8987 65.479L100.446 65.2498L100.524 65.4373L99.9716 65.6613L99.8987 65.479ZM100.998 65.0259L101.55 64.8019L101.623 64.9842L101.076 65.2134L100.998 65.0259ZM102.102 64.578L102.347 64.479L102.654 64.354L102.727 64.5363L102.42 64.6613L102.175 64.7603L102.102 64.578ZM103.201 64.13L103.321 64.0832L103.753 63.9061L103.831 64.0884L103.393 64.2655L103.279 64.3123L103.201 64.13ZM104.305 63.6769L104.524 63.5884L104.857 63.453L104.93 63.6353L104.597 63.7759L104.378 63.8644L104.305 63.6769ZM105.404 63.229L105.555 63.1665L105.956 62.9998L106.034 63.1873L105.633 63.3488L105.482 63.4113L105.404 63.229ZM106.508 62.7759L107.055 62.5467L107.133 62.729L106.581 62.9582L106.508 62.7759ZM107.607 62.3175L108.154 62.0884L108.232 62.2759L107.68 62.505L107.607 62.3175ZM108.701 61.8592L109.253 61.63L109.331 61.8123L108.779 62.0415L108.701 61.8592ZM109.8 61.3957L110.347 61.1613L110.425 61.3436L109.878 61.578L109.8 61.3957ZM110.893 60.9269L111.44 60.6925L111.518 60.8696L110.972 61.1092L110.893 60.9269ZM111.982 60.453L112.529 60.2134L112.607 60.3957L112.065 60.6353L111.982 60.453ZM113.071 59.9686L113.612 59.729L113.696 59.9061L113.154 60.1509L113.071 59.9686ZM114.154 59.479L114.242 59.4425L114.696 59.2342L114.779 59.4165L114.326 59.6196L114.237 59.6613L114.154 59.479ZM115.237 58.9842L115.774 58.7342L115.857 58.9165L115.321 59.1665L115.237 58.9842ZM116.31 58.4842L116.852 58.229L116.935 58.4061L116.399 58.6613L116.31 58.4842ZM117.383 57.9686L117.623 57.8592L117.92 57.7134L118.008 57.8905L117.706 58.0363L117.472 58.1509L117.383 57.9686ZM118.456 57.453L118.992 57.1873L119.076 57.3696L118.545 57.63L118.456 57.453ZM119.524 56.9269L120.055 56.6561L120.143 56.8384L119.612 57.104L119.524 56.9269ZM120.586 56.3905L121.117 56.1196L121.206 56.2967L120.675 56.5675L120.586 56.3905ZM121.643 55.8488L122.175 55.5728L122.268 55.7498L121.737 56.0259L121.643 55.8488ZM122.701 55.2967L123.227 55.0207L123.321 55.1978L122.795 55.4738L122.701 55.2967ZM123.753 54.7394L124.279 54.4582L124.373 54.6353L123.847 54.9165L123.753 54.7394ZM124.8 54.1769L125.321 53.8905L125.414 54.0675L124.893 54.3488L124.8 54.1769ZM125.841 53.604L126.362 53.3175L126.461 53.4894L125.94 53.7759L125.841 53.604ZM126.883 53.0259L127.399 52.7342L127.498 52.9061L126.977 53.1978L126.883 53.0259ZM127.914 52.4373L128.43 52.1405L128.529 52.3123L128.013 52.6092L127.914 52.4373ZM128.946 51.8436L129.461 51.5415L129.56 51.7134L129.045 52.0155L128.946 51.8436ZM129.972 51.2394L130.482 50.9373L130.586 51.1092L130.076 51.4113L129.972 51.2394ZM130.992 50.63L131.503 50.3228L131.607 50.4946L131.097 50.8019L130.992 50.63ZM132.013 50.0155L132.518 49.703L132.623 49.8748L132.117 50.1821L132.013 50.0155ZM133.024 49.3905L133.529 49.078L133.633 49.2446L133.128 49.5571L133.024 49.3905ZM134.034 48.7603L134.435 48.505L134.534 48.4425L134.643 48.6092L134.545 48.6717L134.138 48.9269L134.034 48.7603ZM135.039 48.1196L135.539 47.8019L135.643 47.9686L135.143 48.2863L135.039 48.1196ZM136.039 47.4738L136.534 47.1509L136.643 47.3175L136.143 47.6405L136.039 47.4738ZM137.029 46.8228L137.529 46.4946L137.638 46.6613L137.138 46.9894L137.029 46.8228ZM138.024 46.1613L138.513 45.8332L138.628 45.9946L138.133 46.328L138.024 46.1613ZM139.008 45.4946L139.498 45.1613L139.612 45.3228L139.117 45.6613L139.008 45.4946ZM139.987 44.8228L140.477 44.4842L140.591 44.6457L140.102 44.9842L139.987 44.8228ZM140.961 44.1405L141.451 43.7967L141.565 43.9582L141.076 44.3019L140.961 44.1405ZM141.935 43.453L142.42 43.104L142.534 43.2655L142.05 43.6144L141.935 43.453ZM142.899 42.7603L143.378 42.4061L143.498 42.5675L143.018 42.9165L142.899 42.7603ZM143.857 42.0571L144.336 41.703L144.456 41.8644L143.977 42.2186L143.857 42.0571ZM144.815 41.3488L144.867 41.3071C145.008 41.203 145.149 41.0936 145.284 40.9894L145.404 41.1457C145.268 41.255 145.128 41.3592 144.987 41.4686L144.935 41.505L144.815 41.3488ZM145.742 40.6196C145.893 40.4842 146.045 40.354 146.185 40.2238L146.321 40.3696C146.175 40.505 146.024 40.6353 145.867 40.7707L145.742 40.6196ZM146.607 39.8175C146.753 39.6769 146.888 39.5363 147.018 39.3905L147.164 39.5259C147.029 39.6717 146.893 39.8175 146.748 39.9582L146.607 39.8175ZM147.404 38.9425C147.529 38.7915 147.649 38.6405 147.758 38.4842L147.92 38.5988C147.805 38.7603 147.685 38.9165 147.56 39.0675L147.404 38.9425ZM148.097 37.9946C148.206 37.828 148.31 37.6613 148.409 37.4894L148.581 37.5884C148.477 37.7603 148.373 37.9321 148.263 38.104L148.097 37.9946ZM148.68 36.9842C148.768 36.8071 148.852 36.63 148.93 36.4478L149.112 36.5259C149.034 36.7082 148.946 36.8905 148.857 37.0728L148.68 36.9842Z" fill="black"/>
</g>
</g>
</g>
<mask id="mask15_97_2113" style="mask-type:luminance" maskUnits="userSpaceOnUse" x="65" y="33" width="82" height="39">
<path d="M65.2061 33.3333H146.539V71.9999H65.2061V33.3333Z" fill="white"/>
</mask>
<g mask="url(#mask15_97_2113)">
<mask id="mask16_97_2113" style="mask-type:luminance" maskUnits="userSpaceOnUse" x="42" y="-12" width="115" height="98">
<path d="M42.4612 28.6353L130.383 -11.9792L156.763 45.1249L68.8414 85.7343L42.4612 28.6353Z" fill="white"/>
</mask>
<g mask="url(#mask16_97_2113)">
<mask id="mask17_97_2113" style="mask-type:luminance" maskUnits="userSpaceOnUse" x="42" y="-12" width="115" height="98">
<path d="M42.4612 28.6353L130.383 -11.9792L156.763 45.1249L68.8414 85.7343L42.4612 28.6353Z" fill="white"/>
</mask>
<g mask="url(#mask17_97_2113)">
<path d="M66.258 70.953C66.4559 70.9791 66.6486 70.9999 66.8465 71.026L66.8257 71.2187C66.6278 71.1978 66.4299 71.1718 66.2319 71.1458L66.258 70.953ZM67.4351 71.0885C67.633 71.1041 67.8309 71.1249 68.0288 71.1405L68.0132 71.3385C67.8101 71.3228 67.6121 71.302 67.4142 71.2864L67.4351 71.0885ZM68.6174 71.1822C68.8153 71.1978 69.0132 71.2083 69.2111 71.2187L69.2059 71.4166C69.0028 71.4062 68.8049 71.3958 68.6069 71.3801L68.6174 71.1822ZM69.8101 71.2447C70.008 71.2499 70.2059 71.2551 70.4038 71.2603L70.3986 71.4583C70.2007 71.453 70.0028 71.4478 69.7996 71.4426L69.8101 71.2447ZM70.9924 71.2655C71.1903 71.2655 71.3882 71.2603 71.5861 71.2603L71.5913 71.4583C71.3934 71.4635 71.1955 71.4635 70.9924 71.4635V71.2655ZM72.1799 71.2447C72.3778 71.2395 72.5757 71.2343 72.7736 71.2239L72.784 71.4218C72.5861 71.4322 72.3882 71.4374 72.1903 71.4426L72.1799 71.2447ZM73.3674 71.1874C73.5653 71.177 73.7632 71.1614 73.9611 71.1458L73.9767 71.3437C73.7788 71.3593 73.5809 71.3749 73.383 71.3853L73.3674 71.1874ZM74.5549 71.0937C74.7528 71.078 74.9455 71.0572 75.1434 71.0312L75.1642 71.2291C74.9663 71.2499 74.7684 71.2708 74.5705 71.2916L74.5549 71.0937ZM75.7319 70.9635C75.9299 70.9374 76.1278 70.9114 76.3205 70.8801L76.3517 71.078C76.1538 71.1041 75.9559 71.1301 75.758 71.1562L75.7319 70.9635ZM76.909 70.7916C77.1017 70.7603 77.2996 70.7239 77.4924 70.6874L77.5288 70.8853C77.3309 70.9218 77.1382 70.953 76.9403 70.9843L76.909 70.7916ZM78.0809 70.578C78.2736 70.5416 78.4663 70.4999 78.659 70.4583L78.7007 70.6562C78.508 70.6978 78.3101 70.7343 78.1174 70.776L78.0809 70.578ZM79.2424 70.3333C79.4351 70.2864 79.6278 70.2447 79.8153 70.1926L79.8674 70.3853C79.6746 70.4374 79.4767 70.4791 79.284 70.526L79.2424 70.3333ZM80.3934 70.0468L80.6017 69.9895L80.9611 69.8905L81.0184 70.078L80.6538 70.1822L80.4403 70.2395L80.3934 70.0468ZM81.534 69.7187L82.1017 69.5416L82.159 69.7291L81.5913 69.9114L81.534 69.7187ZM82.6642 69.3541L83.2267 69.1614L83.2892 69.3489L82.7267 69.5416L82.6642 69.3541ZM83.784 68.9635L84.3413 68.7551L84.409 68.9426L83.8517 69.1458L83.784 68.9635ZM84.8934 68.5468L85.4507 68.328L85.5236 68.5155L84.9663 68.7291L84.8934 68.5468ZM86.0028 68.1145L86.5549 67.8905L86.6278 68.078L86.0757 68.2968L86.0028 68.1145ZM87.1069 67.6666L87.659 67.4478L87.7319 67.6301L87.1799 67.8541L87.1069 67.6666ZM88.2111 67.2239L88.7632 66.9999L88.8361 67.1822L88.284 67.4062L88.2111 67.2239ZM89.3153 66.776L89.8674 66.552L89.9403 66.7343L89.3882 66.9583L89.3153 66.776ZM90.4142 66.328L90.9663 66.1041L91.0444 66.2916L90.4924 66.5155L90.4142 66.328ZM91.5184 65.8853L92.0705 65.6614L92.1434 65.8437L91.5965 66.0676L91.5184 65.8853ZM92.6226 65.4374L93.1746 65.2135L93.2476 65.3958L92.6955 65.6197L92.6226 65.4374ZM93.7267 64.9895L94.2788 64.7655L94.3517 64.953L93.7996 65.1718L93.7267 64.9895ZM94.8309 64.5416L95.383 64.3228L95.4559 64.5051L94.9038 64.7291L94.8309 64.5416ZM95.9351 64.0989L96.4819 63.8749L96.5601 64.0572L96.008 64.2812L95.9351 64.0989ZM97.034 63.651L97.5861 63.427L97.6642 63.6093L97.1121 63.8333L97.034 63.651ZM98.1382 63.203L98.6903 62.9791L98.7632 63.1666L98.2163 63.3853L98.1382 63.203ZM99.2424 62.7551L99.7944 62.5364L99.8674 62.7187L99.3153 62.9426L99.2424 62.7551ZM100.347 62.3124L100.899 62.0885L100.972 62.2708L100.419 62.4947L100.347 62.3124ZM101.451 61.8645L102.003 61.6405L102.076 61.8228L101.524 62.0468L101.451 61.8645ZM102.555 61.4166L103.044 61.2187L103.102 61.1926L103.18 61.3801L103.123 61.401L102.628 61.6041L102.555 61.4166ZM103.654 60.9687L103.904 60.8697L104.206 60.7447L104.279 60.927L103.977 61.052L103.732 61.1562L103.654 60.9687ZM104.758 60.5208L104.977 60.4322L105.305 60.2968L105.383 60.4791L105.05 60.6145L104.831 60.703L104.758 60.5208ZM105.857 60.0676L106.409 59.8385L106.482 60.026L105.935 60.2499L105.857 60.0676ZM106.956 59.6093L107.503 59.3801L107.581 59.5624L107.034 59.7968L106.956 59.6093ZM108.055 59.151L108.602 58.9166L108.68 59.0989L108.133 59.3333L108.055 59.151ZM109.149 58.6822L109.695 58.4478L109.774 58.6301L109.227 58.8645L109.149 58.6822ZM110.237 58.2083L110.784 57.9687L110.862 58.151L110.32 58.3905L110.237 58.2083ZM111.326 57.7291L111.774 57.5312L111.867 57.4843L111.951 57.6666L111.852 57.7135L111.409 57.9114L111.326 57.7291ZM112.409 57.2395L112.445 57.2239L112.456 57.2187L112.951 56.9947L113.034 57.1718L112.539 57.401L112.524 57.4062L112.492 57.4218L112.409 57.2395ZM113.492 56.7447L114.029 56.4947L114.112 56.6718L113.576 56.927L113.492 56.7447ZM114.565 56.2395L115.102 55.9843L115.19 56.1614L114.654 56.4218L114.565 56.2395ZM115.638 55.7291L116.05 55.526L116.175 55.4687L116.263 55.6458L116.138 55.7083L115.727 55.9062L115.638 55.7291ZM116.711 55.203L116.742 55.1874L117.242 54.9426L117.331 55.1197L116.831 55.3645L116.794 55.3853L116.711 55.203ZM117.774 54.6718L118.305 54.4062L118.393 54.5833L118.242 54.6614L117.862 54.8489L117.774 54.6718ZM118.836 54.1353L119.362 53.8645L119.456 54.0364L118.925 54.3124L118.836 54.1353ZM119.893 53.5885L120.419 53.3124L120.513 53.4843L119.982 53.7603L119.893 53.5885ZM120.945 53.0312L121.466 52.7499L121.56 52.927L121.039 53.2083L120.945 53.0312ZM121.992 52.4687L122.513 52.1822L122.607 52.3593L122.086 52.6405L121.992 52.4687ZM123.034 51.8958L123.555 51.6041L123.649 51.7812L123.128 52.0676L123.034 51.8958ZM124.07 51.3176L124.591 51.0208L124.685 51.1926L124.169 51.4895L124.07 51.3176ZM125.107 50.7239L125.623 50.427L125.722 50.5989L125.206 50.8958L125.107 50.7239ZM126.133 50.1301L126.649 49.828L126.748 49.9999L126.237 50.302L126.133 50.1301ZM127.159 49.526L127.669 49.2187L127.774 49.3905L127.263 49.6926L127.159 49.526ZM128.18 48.9114L128.685 48.5989L128.789 48.7708L128.284 49.078L128.18 48.9114ZM129.195 48.2916L129.701 47.9739L129.805 48.1458L129.3 48.4583L129.195 48.2916ZM130.201 47.6614L130.706 47.3437L130.81 47.5103L130.31 47.828L130.201 47.6614ZM131.206 47.0208L131.706 46.703L131.815 46.8697L131.315 47.1874L131.206 47.0208ZM132.206 46.3749L132.706 46.052L132.815 46.2187L132.315 46.5416L132.206 46.3749ZM133.201 45.7239L133.695 45.3958L133.805 45.5572L133.31 45.8905L133.201 45.7239ZM134.19 45.0624L134.685 44.7291L134.794 44.8958L134.3 45.2291L134.19 45.0624ZM135.175 44.3958L135.664 44.0572L135.779 44.2187L135.284 44.5572L135.175 44.3958ZM136.154 43.7187L136.643 43.3749L136.753 43.5364L136.268 43.8801L136.154 43.7187ZM137.128 43.0312L137.612 42.6874L137.727 42.8489L137.242 43.1926L137.128 43.0312ZM138.097 42.3385L138.576 41.9895L138.69 42.151L138.211 42.4999L138.097 42.3385ZM139.055 41.6405L139.534 41.2864L139.654 41.4478L139.175 41.802L139.055 41.6405ZM140.013 40.9322L140.076 40.8853L140.487 40.578L140.607 40.7343L140.195 41.0468L140.133 41.0937L140.013 40.9322ZM140.961 40.2187L141.435 39.8593L141.555 40.0155L141.081 40.3749L140.961 40.2187ZM141.899 39.4947C142.055 39.3697 142.206 39.2395 142.352 39.1145L142.482 39.2655C142.336 39.3905 142.18 39.5208 142.024 39.651L141.899 39.4947ZM142.789 38.7135C142.93 38.578 143.065 38.4374 143.201 38.302L143.341 38.4374C143.211 38.578 143.07 38.7187 142.925 38.8593L142.789 38.7135ZM143.597 37.8593C143.722 37.7083 143.847 37.5572 143.961 37.401L144.123 37.5208C144.003 37.677 143.878 37.8333 143.748 37.9843L143.597 37.8593ZM144.305 36.927C144.414 36.7603 144.518 36.5937 144.623 36.4218L144.789 36.5208C144.69 36.6978 144.581 36.8697 144.466 37.0364L144.305 36.927ZM144.899 35.9114C144.987 35.7395 145.07 35.5624 145.149 35.3853L145.331 35.4687C145.253 35.6458 145.169 35.828 145.076 35.9999L144.899 35.9114ZM145.378 34.828C145.414 34.7343 145.451 34.6353 145.482 34.5364L145.669 34.6041C145.638 34.703 145.602 34.802 145.565 34.901L145.378 34.828Z" fill="black"/>
</g>
</g>
</g>
<mask id="mask18_97_2113" style="mask-type:luminance" maskUnits="userSpaceOnUse" x="66" y="33" width="78" height="37">
<path d="M66.5393 33.3333H143.873V69.3333H66.5393V33.3333Z" fill="white"/>
</mask>
<g mask="url(#mask18_97_2113)">
<mask id="mask19_97_2113" style="mask-type:luminance" maskUnits="userSpaceOnUse" x="42" y="-12" width="115" height="98">
<path d="M42.4612 28.6353L130.383 -11.9792L156.763 45.1249L68.8414 85.7343L42.4612 28.6353Z" fill="white"/>
</mask>
<g mask="url(#mask19_97_2113)">
<mask id="mask20_97_2113" style="mask-type:luminance" maskUnits="userSpaceOnUse" x="42" y="-12" width="115" height="98">
<path d="M42.4612 28.6353L130.383 -11.9792L156.763 45.1249L68.8414 85.7343L42.4612 28.6353Z" fill="white"/>
</mask>
<g mask="url(#mask20_97_2113)">
<path d="M67.0706 68.0156C67.2633 68.0365 67.4613 68.0573 67.6592 68.0781L67.6383 68.2708C67.4404 68.2552 67.2477 68.2344 67.0498 68.2135L67.0706 68.0156ZM68.2477 68.125C68.4456 68.1406 68.6436 68.151 68.8415 68.1667L68.8311 68.3646C68.6331 68.349 68.4352 68.3385 68.2321 68.3229L68.2477 68.125ZM69.4352 68.1927C69.6331 68.2031 69.8311 68.2083 70.029 68.2135L70.0238 68.4115C69.8258 68.4063 69.6279 68.401 69.4248 68.3906L69.4352 68.1927ZM70.6227 68.224C70.8206 68.224 71.0186 68.2292 71.2165 68.224V68.4219C71.0186 68.4271 70.8206 68.4271 70.6227 68.4219V68.224ZM71.8102 68.2135C72.0081 68.2135 72.2061 68.2031 72.404 68.1979L72.4144 68.3958C72.2113 68.401 72.0133 68.4115 71.8154 68.4115L71.8102 68.2135ZM72.9977 68.1667C73.1956 68.1563 73.3936 68.1458 73.5915 68.1302L73.6071 68.3281C73.404 68.3438 73.2061 68.3542 73.0081 68.3646L72.9977 68.1667ZM74.18 68.0781C74.3779 68.0625 74.5758 68.0417 74.7738 68.0208L74.7946 68.2188C74.5967 68.2396 74.3988 68.2604 74.2008 68.276L74.18 68.0781ZM75.3623 67.9531C75.5602 67.9323 75.7581 67.9063 75.9508 67.875L75.9821 68.0729C75.7842 68.099 75.5863 68.125 75.3883 68.151L75.3623 67.9531ZM76.5394 67.7917C76.7321 67.7604 76.93 67.724 77.1227 67.6927L77.1592 67.8854C76.9613 67.9219 76.7686 67.9531 76.5706 67.9844L76.5394 67.7917ZM77.7113 67.5833C77.904 67.5469 78.0967 67.5104 78.2946 67.4688L78.3311 67.6615C78.1383 67.7031 77.9404 67.7448 77.7477 67.7813L77.7113 67.5833ZM78.8727 67.3438C79.0654 67.2969 79.2581 67.2552 79.4508 67.2083L79.4977 67.401C79.305 67.4479 79.1123 67.4948 78.9144 67.5365L78.8727 67.3438ZM80.0238 67.0625C80.2165 67.0104 80.4092 66.9635 80.5967 66.9063L80.6488 67.099C80.4613 67.151 80.2686 67.2031 80.0758 67.2552L80.0238 67.0625ZM81.1644 66.7396L81.7373 66.5625L81.7946 66.7552L81.2269 66.9323L81.1644 66.7396ZM82.2998 66.3802L82.8623 66.1875L82.9248 66.375L82.3623 66.5677L82.2998 66.3802ZM83.4196 65.9896L83.9769 65.7813L84.0446 65.9688L83.4873 66.1771L83.4196 65.9896ZM84.5342 65.5729L85.0863 65.3594L85.1592 65.5417L84.6019 65.7604L84.5342 65.5729ZM85.6383 65.1406L85.805 65.0729L86.1904 64.9167L86.2686 65.1042L85.8779 65.2604L85.7113 65.3229L85.6383 65.1406ZM86.7425 64.6979L87.2946 64.474L87.3675 64.6563L86.8206 64.8802L86.7425 64.6979ZM87.8467 64.2448L88.3988 64.0208L88.4717 64.2031L87.9196 64.4323L87.8467 64.2448ZM88.9456 63.7969L89.4977 63.5729L89.5758 63.7552L89.0238 63.9792L88.9456 63.7969ZM90.0498 63.349L90.6019 63.125L90.6748 63.3073L90.1227 63.5313L90.0498 63.349ZM91.154 62.8958L91.7008 62.6719L91.779 62.8594L91.2269 63.0833L91.154 62.8958ZM92.2529 62.4479L92.805 62.224L92.8779 62.4063L92.3311 62.6302L92.2529 62.4479ZM93.3571 62L93.9092 61.776L93.9821 61.9583L93.43 62.1823L93.3571 62ZM94.4561 61.5469L95.0081 61.3229L95.0863 61.5104L94.5342 61.7344L94.4561 61.5469ZM95.5602 61.099L96.1123 60.875L96.1852 61.0573L95.6331 61.2813L95.5602 61.099ZM96.6644 60.651L97.2113 60.4271L97.2894 60.6094L96.7373 60.8333L96.6644 60.651ZM97.7633 60.2031L98.3154 59.974L98.3883 60.1615L97.8363 60.3854L97.7633 60.2031ZM98.8675 59.75L99.4144 59.526L99.4925 59.7083L98.9404 59.9323L98.8675 59.75ZM99.9665 59.3021L100.243 59.1927L100.519 59.0781L100.591 59.2604L100.315 59.375L100.045 59.4844L99.9665 59.3021ZM101.071 58.8542L101.623 58.625L101.696 58.8125L101.144 59.0365L101.071 58.8542ZM102.17 58.401L102.722 58.1771L102.8 58.3594L102.248 58.5833L102.17 58.401ZM103.274 57.9479L103.821 57.724L103.899 57.9063L103.347 58.1354L103.274 57.9479ZM104.373 57.4948L104.92 57.2656L104.998 57.4531L104.451 57.6771L104.373 57.4948ZM105.472 57.0365L106.019 56.8073L106.097 56.9896L105.55 57.224L105.472 57.0365ZM106.565 56.5781L107.118 56.3438L107.196 56.526L106.644 56.7604L106.565 56.5781ZM107.664 56.1094L108.211 55.875L108.289 56.0573L107.743 56.2917L107.664 56.1094ZM108.753 55.6354L109.3 55.401L109.378 55.5781L108.831 55.8177L108.753 55.6354ZM109.841 55.1563L110.388 54.9167L110.466 55.099L109.925 55.3385L109.841 55.1563ZM110.93 54.6719L111.039 54.6198L111.466 54.4271L111.55 54.6042L111.123 54.8021L111.008 54.8542L110.93 54.6719ZM112.008 54.1771L112.545 53.9271L112.633 54.1042L112.091 54.3542L112.008 54.1771ZM113.086 53.6719L113.623 53.4167L113.706 53.5938L113.17 53.849L113.086 53.6719ZM114.159 53.1615L114.69 52.901L114.779 53.0781L114.243 53.3385L114.159 53.1615ZM115.227 52.6354L115.758 52.375L115.847 52.5521L115.315 52.8125L115.227 52.6354ZM116.289 52.1094L116.821 51.8385L116.914 52.0156L116.383 52.2865L116.289 52.1094ZM117.352 51.5677L117.883 51.2969L117.972 51.474L117.446 51.7448L117.352 51.5677ZM118.409 51.0208L118.935 50.7448L119.029 50.9219L118.503 51.1979L118.409 51.0208ZM119.461 50.4635L119.623 50.3802L119.987 50.1823L120.081 50.3594L119.716 50.5521L119.555 50.6406L119.461 50.4635ZM120.508 49.901L121.029 49.6146L121.128 49.7917L120.602 50.0781L120.508 49.901ZM121.55 49.3281L122.071 49.0417L122.17 49.2135L121.649 49.5052L121.55 49.3281ZM122.591 48.75L123.107 48.4583L123.206 48.6302L122.69 48.9219L122.591 48.75ZM123.623 48.1615L124.138 47.8646L124.237 48.0365L123.722 48.3333L123.623 48.1615ZM124.654 47.5677L125.17 47.2656L125.269 47.4323L124.753 47.7344L124.654 47.5677ZM125.68 46.9583L126.19 46.6563L126.289 46.8229L125.779 47.1302L125.68 46.9583ZM126.701 46.349L127.003 46.1615L127.206 46.0365L127.31 46.2083L127.107 46.3333L126.8 46.5156L126.701 46.349ZM127.711 45.7292L128.222 45.4115L128.326 45.5833L127.821 45.8958L127.711 45.7292ZM128.722 45.099L129.227 44.7813L129.331 44.9479L128.831 45.2656L128.722 45.099ZM129.727 44.4635L130.227 44.1406L130.336 44.3073L129.836 44.6302L129.727 44.4635ZM130.727 43.8177L131.227 43.4896L131.336 43.6563L130.836 43.9844L130.727 43.8177ZM131.722 43.1667L132.216 42.8333L132.326 43L131.831 43.3281L131.722 43.1667ZM132.711 42.5052L133.206 42.1719L133.315 42.3333L132.821 42.6667L132.711 42.5052ZM133.696 41.8333L134.185 41.5L134.3 41.6615L133.81 42L133.696 41.8333ZM134.675 41.1563L135.024 40.9115L135.164 40.8177L135.279 40.9792L135.138 41.0781L134.789 41.3229L134.675 41.1563ZM135.649 40.474L135.868 40.3229L136.133 40.1302L136.248 40.2917L135.982 40.4844L135.763 40.6354L135.649 40.474ZM136.618 39.7813L137.102 39.4323L137.216 39.5938L136.732 39.9427L136.618 39.7813ZM137.581 39.0833L137.951 38.8125L138.06 38.7344L138.175 38.8906L138.065 38.974L137.696 39.2448L137.581 39.0833ZM138.534 38.3802L138.831 38.1615L139.008 38.0208L139.128 38.1823L138.946 38.3177L138.654 38.5365L138.534 38.3802ZM139.472 37.6563C139.628 37.526 139.779 37.3958 139.92 37.2708L140.055 37.4167C139.909 37.5469 139.753 37.6771 139.597 37.8073L139.472 37.6563ZM140.347 36.8646C140.487 36.7292 140.628 36.5833 140.758 36.4427L140.904 36.5729C140.769 36.7187 140.633 36.8646 140.487 37.0104L140.347 36.8646ZM141.144 35.9948C141.263 35.8437 141.383 35.6875 141.498 35.5313L141.659 35.6458C141.545 35.8073 141.42 35.9635 141.295 36.1198L141.144 35.9948ZM141.826 35.0365C141.93 34.875 142.029 34.7031 142.123 34.5365L142.3 34.6302C142.201 34.8021 142.102 34.974 141.998 35.1458L141.826 35.0365ZM142.388 34.0156C142.472 33.8385 142.555 33.651 142.628 33.4688L142.81 33.5417C142.737 33.7292 142.654 33.9167 142.565 34.099L142.388 34.0156Z" fill="black"/>
</g>
</g>
</g>
<mask id="mask21_97_2113" style="mask-type:luminance" maskUnits="userSpaceOnUse" x="66" y="32" width="76" height="35">
<path d="M66.5393 32H141.206V66.6667H66.5393V32Z" fill="white"/>
</mask>
<g mask="url(#mask21_97_2113)">
<mask id="mask22_97_2113" style="mask-type:luminance" maskUnits="userSpaceOnUse" x="42" y="-12" width="115" height="98">
<path d="M42.4612 28.6353L130.383 -11.9792L156.763 45.1249L68.8414 85.7343L42.4612 28.6353Z" fill="white"/>
</mask>
<g mask="url(#mask22_97_2113)">
<mask id="mask23_97_2113" style="mask-type:luminance" maskUnits="userSpaceOnUse" x="42" y="-12" width="115" height="98">
<path d="M42.4612 28.6353L130.383 -11.9792L156.763 45.1249L68.8414 85.7343L42.4612 28.6353Z" fill="white"/>
</mask>
<g mask="url(#mask23_97_2113)">
<path d="M67.7944 65.1196C67.9924 65.1353 68.1903 65.1509 68.3882 65.1665L68.3726 65.3644C68.1746 65.3488 67.9767 65.3332 67.7788 65.3175L67.7944 65.1196ZM68.9767 65.203C69.1746 65.2186 69.3726 65.2238 69.5705 65.2342L69.5653 65.4321C69.3621 65.4217 69.1642 65.4165 68.9663 65.4061L68.9767 65.203ZM70.1642 65.2498C70.3621 65.255 70.5601 65.2603 70.758 65.2603V65.4582C70.5601 65.4582 70.3621 65.453 70.159 65.4478L70.1642 65.2498ZM71.3517 65.2603C71.5496 65.255 71.7476 65.2498 71.9455 65.2446L71.9507 65.4425C71.7528 65.4478 71.5549 65.453 71.3569 65.4582L71.3517 65.2603ZM72.5392 65.2238C72.7371 65.2134 72.9351 65.203 73.133 65.1925L73.1434 65.3905C72.9455 65.4009 72.7476 65.4113 72.5496 65.4217L72.5392 65.2238ZM73.7267 65.1509C73.9246 65.1353 74.1174 65.1196 74.3153 65.0988L74.3361 65.2967C74.1382 65.3175 73.9403 65.3332 73.7424 65.3488L73.7267 65.1509ZM74.909 65.0363C75.1069 65.0155 75.2996 64.9894 75.4976 64.9634L75.5236 65.1613C75.3257 65.1873 75.1278 65.2134 74.9299 65.2342L74.909 65.0363ZM76.0861 64.8853C76.2788 64.854 76.4767 64.8228 76.6694 64.7915L76.7059 64.9842C76.508 65.0207 76.3101 65.0519 76.1121 65.078L76.0861 64.8853ZM77.258 64.6873C77.4507 64.6561 77.6434 64.6144 77.8413 64.578L77.8778 64.7707C77.6851 64.8123 77.4871 64.8488 77.2892 64.8853L77.258 64.6873ZM78.4194 64.4582C78.6174 64.4165 78.8101 64.3696 79.0028 64.3228L79.0444 64.5155C78.8517 64.5623 78.659 64.6092 78.4663 64.6509L78.4194 64.4582ZM79.5757 64.1821C79.7684 64.1353 79.9611 64.0832 80.1538 64.0311L80.2007 64.2238C80.0132 64.2759 79.8205 64.328 79.6278 64.3748L79.5757 64.1821ZM80.7215 63.8748L81.2892 63.6978L81.3465 63.8905L80.7788 64.0623L80.7215 63.8748ZM81.8569 63.5207L82.4194 63.328L82.4819 63.5155L81.9194 63.7082L81.8569 63.5207ZM82.9767 63.13L83.534 62.9269L83.6017 63.1144L83.0444 63.3175L82.9767 63.13ZM84.0913 62.7186L84.3674 62.6092L84.6434 62.505L84.7163 62.6873L84.4403 62.7967L84.1642 62.9009L84.0913 62.7186ZM85.1955 62.2863L85.7476 62.0623L85.8257 62.2446L85.2736 62.4686L85.1955 62.2863ZM86.2996 61.8384L86.8517 61.6144L86.9246 61.7967L86.3778 62.0207L86.2996 61.8384ZM87.4038 61.3905L87.9507 61.1613L88.0288 61.3488L87.4767 61.5728L87.4038 61.3905ZM88.5028 60.9373L89.0549 60.7134L89.1278 60.8957L88.5809 61.1196L88.5028 60.9373ZM89.6069 60.4842L90.1538 60.2603L90.2319 60.4425L89.6799 60.6717L89.6069 60.4842ZM90.7059 60.0363L91.258 59.8071L91.3309 59.9946L90.7788 60.2186L90.7059 60.0363ZM91.8049 59.5832L92.3569 59.3592L92.4351 59.5415L91.883 59.7655L91.8049 59.5832ZM92.909 59.13L93.4611 58.9061L93.534 59.0884L92.9819 59.3175L92.909 59.13ZM94.008 58.6821L94.5601 58.453L94.6382 58.6405L94.0861 58.8644L94.008 58.6821ZM95.1121 58.229L95.6642 58.005L95.7371 58.1873L95.1851 58.4113L95.1121 58.229ZM96.2111 57.7759L96.7632 57.5519L96.8361 57.7342L96.2892 57.9634L96.2111 57.7759ZM97.3153 57.328L97.8621 57.0988L97.9403 57.2863L97.3882 57.5103L97.3153 57.328ZM98.4142 56.8748L98.9663 56.6509L99.0392 56.8332L98.4924 57.0571L98.4142 56.8748ZM99.5184 56.4217L100.065 56.1978L100.143 56.38L99.5913 56.6092L99.5184 56.4217ZM100.617 55.9738L101.169 55.7446L101.242 55.9269L100.69 56.1561L100.617 55.9738ZM101.716 55.5207L102.268 55.2915L102.341 55.4738L101.794 55.703L101.716 55.5207ZM102.815 55.0623L103.305 54.8592L103.367 54.8332L103.445 55.0207L103.383 55.0467L102.893 55.2446L102.815 55.0623ZM103.914 54.604L104.466 54.3748L104.539 54.5571L103.992 54.7915L103.914 54.604ZM105.013 54.1457L105.56 53.9113L105.638 54.0936L105.091 54.328L105.013 54.1457ZM106.107 53.6769L106.654 53.4425L106.732 53.6248L106.185 53.8592L106.107 53.6769ZM107.201 53.203L107.716 52.979L107.742 52.9686L107.826 53.1457L107.794 53.1613L107.279 53.3853L107.201 53.203ZM108.289 52.7238L108.685 52.5467L108.831 52.4842L108.914 52.6665L108.763 52.729L108.367 52.9061L108.289 52.7238ZM109.373 52.2394L109.544 52.1613L109.914 51.9894L109.998 52.1717L109.628 52.3384L109.456 52.4217L109.373 52.2394ZM110.451 51.7446L110.992 51.4946L111.076 51.6717L110.539 51.9217L110.451 51.7446ZM111.529 51.2394L112.065 50.9842L112.154 51.1613L111.617 51.4165L111.529 51.2394ZM112.602 50.7238L113.029 50.5207L113.138 50.4686L113.227 50.6457L113.117 50.6978L112.69 50.9061L112.602 50.7238ZM113.669 50.203L114.206 49.9425L114.294 50.1196L113.758 50.38L113.669 50.203ZM114.737 49.6717L114.992 49.5467L115.268 49.4061L115.357 49.5832L115.081 49.7238L114.826 49.8488L114.737 49.6717ZM115.8 49.1353L116.326 48.8644L116.419 49.0363L115.888 49.3123L115.8 49.1353ZM116.857 48.5884L117.383 48.3123L117.472 48.4842L116.945 48.7655L116.857 48.5884ZM117.904 48.0311L118.43 47.7498L118.524 47.9269L117.998 48.2082L117.904 48.0311ZM118.956 47.4686L118.987 47.4478L119.477 47.1821L119.57 47.3592L119.086 47.6248L119.05 47.6405L118.956 47.4686ZM119.998 46.8957L120.518 46.604L120.612 46.7811L120.091 47.0675L119.998 46.8957ZM121.034 46.3123L121.555 46.0207L121.649 46.1925L121.133 46.4894L121.034 46.3123ZM122.07 45.7238L122.586 45.4269L122.685 45.5988L122.169 45.8957L122.07 45.7238ZM123.097 45.13L123.612 44.828L123.711 44.9946L123.195 45.2967L123.097 45.13ZM124.123 44.5207L124.633 44.2186L124.732 44.3853L124.222 44.6925L124.123 44.5207ZM125.138 43.9113L125.649 43.5988L125.753 43.7655L125.242 44.078L125.138 43.9113ZM126.154 43.2863L126.659 42.9738L126.763 43.1405L126.258 43.453L126.154 43.2863ZM127.164 42.6561L127.664 42.3384L127.774 42.505L127.268 42.8228L127.164 42.6561ZM128.169 42.0207L128.669 41.6978L128.774 41.8644L128.274 42.1873L128.169 42.0207ZM129.164 41.3748L129.664 41.0467L129.774 41.2134L129.274 41.5363L129.164 41.3748ZM130.159 40.7186L130.654 40.3905L130.763 40.5519L130.268 40.8853L130.159 40.7186ZM131.149 40.0571L131.643 39.7238L131.753 39.8853L131.258 40.2186L131.149 40.0571ZM132.133 39.3853L132.623 39.0467L132.737 39.2134L132.242 39.5519L132.133 39.3853ZM133.112 38.7082L133.597 38.3644L133.711 38.5311L133.222 38.8696L133.112 38.7082ZM134.081 38.0207L134.565 37.6769L134.68 37.8384L134.195 38.1821L134.081 38.0207ZM135.05 37.328L135.529 36.979L135.643 37.1405L135.164 37.4894L135.05 37.328ZM136.008 36.63L136.044 36.604C136.195 36.4894 136.341 36.38 136.477 36.2759L136.602 36.4321C136.461 36.5415 136.315 36.6509 136.164 36.7603L136.128 36.7915L136.008 36.63ZM136.935 35.9009C137.091 35.7707 137.237 35.6405 137.378 35.505L137.513 35.6509C137.367 35.7863 137.222 35.9165 137.065 36.0519L136.935 35.9009ZM137.794 35.0936C137.935 34.9478 138.07 34.8019 138.195 34.6561L138.347 34.7863C138.216 34.9373 138.081 35.0832 137.94 35.2342L137.794 35.0936ZM138.56 34.203C138.68 34.0467 138.794 33.8853 138.904 33.7186L139.07 33.828C138.956 33.9946 138.841 34.1613 138.716 34.3228L138.56 34.203ZM139.211 33.2186C139.305 33.0519 139.399 32.88 139.482 32.7082L139.659 32.7967C139.576 32.9738 139.482 33.1457 139.383 33.3175L139.211 33.2186ZM139.732 32.1613C139.748 32.1092 139.768 32.0571 139.789 32.0103L139.977 32.0832C139.956 32.1353 139.935 32.1821 139.914 32.2342L139.732 32.1613Z" fill="black"/>
</g>
</g>
</g>
<mask id="mask24_97_2113" style="mask-type:luminance" maskUnits="userSpaceOnUse" x="67" y="30" width="71" height="33">
<path d="M67.8726 30.6667H137.206V62.6667H67.8726V30.6667Z" fill="white"/>
</mask>
<g mask="url(#mask24_97_2113)">
<mask id="mask25_97_2113" style="mask-type:luminance" maskUnits="userSpaceOnUse" x="42" y="-12" width="115" height="98">
<path d="M42.4612 28.6356L130.383 -11.979L156.763 45.1252L68.8414 85.7345L42.4612 28.6356Z" fill="white"/>
</mask>
<g mask="url(#mask25_97_2113)">
<mask id="mask26_97_2113" style="mask-type:luminance" maskUnits="userSpaceOnUse" x="42" y="-12" width="115" height="98">
<path d="M42.4612 28.6356L130.383 -11.979L156.763 45.1252L68.8414 85.7345L42.4612 28.6356Z" fill="white"/>
</mask>
<g mask="url(#mask26_97_2113)">
<path d="M68.8101 62.1929C69.0028 62.2137 69.2008 62.2345 69.3987 62.2502L69.3778 62.4481C69.1799 62.4325 68.982 62.4116 68.7893 62.3908L68.8101 62.1929ZM69.9872 62.297C70.1851 62.3127 70.3831 62.3231 70.581 62.3335L70.5706 62.5314C70.3726 62.521 70.1747 62.5106 69.9716 62.495L69.9872 62.297ZM71.1747 62.3595C71.3726 62.3647 71.5706 62.37 71.7685 62.3752L71.7633 62.5731C71.5653 62.5679 71.3674 62.5627 71.1695 62.5575L71.1747 62.3595ZM72.3622 62.3752C72.5601 62.3752 72.7581 62.3752 72.956 62.37L72.9612 62.5679C72.7581 62.5731 72.5601 62.5731 72.3622 62.5731V62.3752ZM73.5497 62.3491C73.7476 62.3439 73.9456 62.3335 74.1435 62.3231L74.1539 62.521C73.956 62.5314 73.7528 62.5418 73.5549 62.5522L73.5497 62.3491ZM74.732 62.2814C74.9299 62.2658 75.1278 62.2502 75.3258 62.2345L75.3466 62.4325C75.1487 62.4481 74.9456 62.4637 74.7476 62.4793L74.732 62.2814ZM75.9143 62.172C76.1122 62.1512 76.3101 62.1252 76.5081 62.0991L76.5341 62.297C76.3362 62.3231 76.1383 62.3491 75.9403 62.37L75.9143 62.172ZM77.0914 62.0158C77.2893 61.9897 77.482 61.9585 77.6799 61.922L77.7112 62.12C77.5185 62.1512 77.3206 62.1825 77.1226 62.2137L77.0914 62.0158ZM78.2633 61.8179C78.4612 61.7814 78.6539 61.745 78.8466 61.7033L78.8883 61.9012C78.6903 61.9377 78.4976 61.9793 78.2997 62.0158L78.2633 61.8179ZM79.4299 61.5783C79.6226 61.5366 79.8153 61.4897 80.0081 61.4429L80.0549 61.6356C79.8622 61.6825 79.6643 61.7293 79.4716 61.7762L79.4299 61.5783ZM80.581 61.297C80.7476 61.2554 80.9195 61.2085 81.0862 61.1616L81.1487 61.1408L81.206 61.3335L81.1383 61.3543C80.9716 61.4012 80.7997 61.4481 80.6331 61.4897L80.581 61.297ZM81.7216 60.9741L82.2893 60.7918L82.3466 60.9793L81.7789 61.1616L81.7216 60.9741ZM82.8466 60.6043L83.4091 60.4064L83.4768 60.5939L82.9143 60.7918L82.8466 60.6043ZM83.9664 60.2033L84.5237 59.9897L84.5914 60.1772L84.0341 60.3856L83.9664 60.2033ZM85.0758 59.7762L85.6331 59.5575L85.706 59.745L85.1487 59.9637L85.0758 59.7762ZM86.1799 59.3387L86.732 59.1147L86.8101 59.297L86.2581 59.521L86.1799 59.3387ZM87.2841 58.8908L87.8362 58.6668L87.9091 58.8491L87.357 59.0731L87.2841 58.8908ZM88.3831 58.4377L88.9351 58.2137L89.0133 58.396L88.4612 58.6252L88.3831 58.4377ZM89.4872 57.9897L90.0393 57.7658L90.1122 57.9481L89.5601 58.172L89.4872 57.9897ZM90.5914 57.5418L91.1383 57.3179L91.2164 57.5002L90.6643 57.7241L90.5914 57.5418ZM91.6903 57.0887L92.2424 56.8647L92.3153 57.047L91.7685 57.2762L91.6903 57.0887ZM92.7945 56.6408L93.3466 56.4168L93.4195 56.5991L92.8674 56.8231L92.7945 56.6408ZM93.8935 56.1929L94.4456 55.9689L94.5237 56.1512L93.9716 56.3752L93.8935 56.1929ZM94.9976 55.7397L95.5497 55.5158L95.6226 55.6981L95.0706 55.9272L94.9976 55.7397ZM96.0966 55.2918L96.6487 55.0679L96.7268 55.2502L96.1747 55.4741L96.0966 55.2918ZM97.2008 54.8439L97.7528 54.62L97.8258 54.8022L97.2737 55.0262L97.2008 54.8439ZM98.3049 54.3908L98.7633 54.2033L98.8518 54.1668L98.9299 54.3491L98.8362 54.3908L98.3778 54.5783L98.3049 54.3908ZM99.4039 53.9429L99.956 53.7189L100.034 53.9012L99.482 54.1252L99.4039 53.9429ZM100.508 53.495L101.06 53.2658L101.133 53.4481L100.581 53.6772L100.508 53.495ZM101.607 53.0418L102.159 52.8127L102.232 52.995L101.685 53.2241L101.607 53.0418ZM102.706 52.5835L103.258 52.3543L103.336 52.5418L102.784 52.771L102.706 52.5835ZM103.805 52.1252L104.352 51.896L104.43 52.0783L103.883 52.3075L103.805 52.1252ZM104.904 51.6616L105.081 51.5887L105.451 51.4272L105.529 51.6095L105.159 51.771L104.977 51.8439L104.904 51.6616ZM105.992 51.1929L106.31 51.0575L106.539 50.9585L106.617 51.1356L106.388 51.2397L106.076 51.3752L105.992 51.1929ZM107.086 50.7189L107.628 50.4741L107.706 50.6564L107.164 50.896L107.086 50.7189ZM108.17 50.2345L108.518 50.0731L108.711 49.9845L108.795 50.1668L108.597 50.2554L108.253 50.4116L108.17 50.2345ZM109.253 49.7397L109.789 49.4897L109.873 49.6668L109.336 49.9168L109.253 49.7397ZM110.326 49.2345L110.867 48.9793L110.951 49.1564L110.414 49.4116L110.326 49.2345ZM111.399 48.7241L111.935 48.4637L112.024 48.6408L111.487 48.9012L111.399 48.7241ZM112.472 48.1981L113.003 47.9325L113.091 48.1095L112.555 48.3752L112.472 48.1981ZM113.534 47.6668L114.065 47.396L114.154 47.5731L113.623 47.8439L113.534 47.6668ZM114.591 47.1252L115.123 46.8491L115.211 47.0262L114.685 47.3022L114.591 47.1252ZM115.649 46.5731L116.175 46.297L116.268 46.4741L115.742 46.7502L115.649 46.5731ZM116.696 46.0158L117.222 45.7345L117.315 45.9064L116.795 46.1929L116.696 46.0158ZM117.742 45.4481L118.263 45.1616L118.357 45.3335L117.836 45.62L117.742 45.4481ZM118.784 44.87L119.003 44.745L119.3 44.5783L119.399 44.7502L119.102 44.9168L118.878 45.0418L118.784 44.87ZM119.815 44.2814L119.831 44.2762L120.331 43.9845L120.43 44.1564L119.93 44.4481L119.914 44.4533L119.815 44.2814ZM120.847 43.6877L121.357 43.3856L121.461 43.5575L120.946 43.8595L120.847 43.6877ZM121.873 43.0835L122.383 42.7762L122.482 42.9429L121.972 43.2502L121.873 43.0835ZM122.888 42.4689L123.399 42.1564L123.503 42.3283L122.992 42.6356L122.888 42.4689ZM123.904 41.8439L124.039 41.7606L124.409 41.5314L124.513 41.6981L124.143 41.9272L124.008 42.0106L123.904 41.8439ZM124.909 41.2137L125.414 40.896L125.518 41.0627L125.018 41.3804L124.909 41.2137ZM125.914 40.5731L126.414 40.2502L126.518 40.4168L126.024 40.7397L125.914 40.5731ZM126.909 39.922L127.409 39.5939L127.518 39.7606L127.018 40.0887L126.909 39.922ZM127.899 39.2658L128.393 38.9325L128.508 39.0991L128.013 39.4325L127.899 39.2658ZM128.888 38.5991L129.378 38.2606L129.492 38.4272L128.998 38.7606L128.888 38.5991ZM129.867 37.922L130.357 37.5835L130.466 37.745L129.982 38.0887L129.867 37.922ZM130.841 37.2397L131.326 36.896L131.44 37.0575L130.956 37.4012L130.841 37.2397ZM131.81 36.547L132.289 36.1981L132.404 36.3595L131.925 36.7085L131.81 36.547ZM132.768 35.8491L133.248 35.495L133.367 35.6564L132.888 36.0054L132.768 35.8491ZM133.722 35.1408C133.883 35.0158 134.039 34.896 134.185 34.7762L134.31 34.9272C134.159 35.0522 134.003 35.172 133.841 35.297L133.722 35.1408ZM134.633 34.3908C134.784 34.2554 134.925 34.12 135.06 33.9845L135.201 34.1252C135.065 34.2658 134.92 34.4012 134.768 34.5366L134.633 34.3908ZM135.466 33.5575C135.597 33.4116 135.722 33.2606 135.841 33.1043L135.998 33.2293C135.878 33.3856 135.748 33.5366 135.612 33.6877L135.466 33.5575ZM136.185 32.6356C136.3 32.4689 136.404 32.3022 136.503 32.1304L136.675 32.2293C136.571 32.4064 136.466 32.5783 136.352 32.745L136.185 32.6356ZM136.779 31.6252C136.862 31.4481 136.946 31.2658 137.024 31.0835L137.206 31.1564C137.128 31.3491 137.045 31.5314 136.956 31.7137L136.779 31.6252Z" fill="black"/>
</g>
</g>
</g>
<mask id="mask27_97_2113" style="mask-type:luminance" maskUnits="userSpaceOnUse" x="69" y="29" width="67" height="31">
<path d="M69.2061 29.3333H135.873V59.9999H69.2061V29.3333Z" fill="white"/>
</mask>
<g mask="url(#mask27_97_2113)">
<mask id="mask28_97_2113" style="mask-type:luminance" maskUnits="userSpaceOnUse" x="42" y="-12" width="115" height="98">
<path d="M42.4612 28.6353L130.383 -11.9792L156.763 45.1249L68.8414 85.7343L42.4612 28.6353Z" fill="white"/>
</mask>
<g mask="url(#mask28_97_2113)">
<mask id="mask29_97_2113" style="mask-type:luminance" maskUnits="userSpaceOnUse" x="42" y="-12" width="115" height="98">
<path d="M42.4612 28.6353L130.383 -11.9792L156.763 45.1249L68.8414 85.7343L42.4612 28.6353Z" fill="white"/>
</mask>
<g mask="url(#mask29_97_2113)">
<path d="M69.6017 59.4583C69.7996 59.4688 69.9976 59.4792 70.1903 59.4896L70.1851 59.6875C69.9871 59.6771 69.7892 59.6667 69.5913 59.6563L69.6017 59.4583ZM70.784 59.5052C70.9819 59.5104 71.1799 59.5156 71.3778 59.5156V59.7135C71.1799 59.7135 70.9819 59.7083 70.7788 59.7031L70.784 59.5052ZM71.9715 59.5104C72.1694 59.5104 72.3674 59.5052 72.5653 59.5L72.5757 59.6979C72.3726 59.7031 72.1746 59.7083 71.9767 59.7083L71.9715 59.5104ZM73.159 59.474C73.3569 59.4635 73.5549 59.4531 73.7528 59.4427L73.7632 59.6406C73.5653 59.651 73.3674 59.6615 73.1694 59.6719L73.159 59.474ZM74.3465 59.3958C74.5392 59.3802 74.7371 59.3594 74.9351 59.3438L74.9559 59.5365C74.758 59.5573 74.5601 59.5781 74.3621 59.5938L74.3465 59.3958ZM75.5236 59.276C75.7215 59.25 75.9194 59.2292 76.1174 59.1979L76.1434 59.3958C75.9455 59.4219 75.7476 59.4479 75.5496 59.474L75.5236 59.276ZM76.7007 59.1146C76.8986 59.0833 77.0913 59.0521 77.2892 59.0156L77.3205 59.2135C77.1278 59.2448 76.9299 59.2813 76.7319 59.3073L76.7007 59.1146ZM77.8726 58.9115C78.0653 58.875 78.258 58.8333 78.4559 58.7917L78.4924 58.9896C78.2996 59.026 78.1069 59.0677 77.909 59.1042L77.8726 58.9115ZM79.034 58.6667C79.2267 58.6198 79.4194 58.5729 79.6121 58.526L79.659 58.7188C79.4663 58.7656 79.2736 58.8125 79.0809 58.8594L79.034 58.6667ZM80.1851 58.3802C80.3778 58.3281 80.5705 58.276 80.758 58.224L80.8153 58.4115C80.6226 58.4687 80.4299 58.5208 80.2371 58.5729L80.1851 58.3802ZM81.3257 58.0521L81.8934 57.875L81.9507 58.0625L81.383 58.2448L81.3257 58.0521ZM82.4559 57.6875L83.0132 57.4896L83.0809 57.6771L82.5184 57.8698L82.4559 57.6875ZM83.5705 57.2813L83.659 57.25L84.1278 57.0729L84.2007 57.2604L83.7267 57.4375L83.6434 57.4688L83.5705 57.2813ZM84.6799 56.8594L85.2319 56.6354L85.3101 56.8229L84.7528 57.0417L84.6799 56.8594ZM85.784 56.4115L86.3361 56.1875L86.409 56.3698L85.8621 56.599L85.784 56.4115ZM86.883 55.9635L87.0653 55.8854L87.4351 55.7344L87.5132 55.9167L87.1434 56.0677L86.9611 56.1458L86.883 55.9635ZM87.9871 55.5052L88.534 55.2813L88.6121 55.4635L88.0601 55.6875L87.9871 55.5052ZM89.0861 55.0521L89.633 54.8229L89.7111 55.0052L89.159 55.2344L89.0861 55.0521ZM90.1851 54.599L90.7371 54.3698L90.8101 54.5521L90.2632 54.7813L90.1851 54.599ZM91.284 54.1406L91.8361 53.9167L91.909 54.099L91.3621 54.3229L91.284 54.1406ZM92.383 53.6875L92.9351 53.4583L93.008 53.6406L92.4611 53.8698L92.383 53.6875ZM93.4871 53.2344L94.034 53.0052L94.1121 53.1875L93.5601 53.4167L93.4871 53.2344ZM94.5861 52.776L95.133 52.5521L95.2111 52.7344L94.659 52.9635L94.5861 52.776ZM95.6851 52.3229L96.2319 52.0938L96.3101 52.2813L95.758 52.5052L95.6851 52.3229ZM96.784 51.8698L97.3361 51.6406L97.409 51.8229L96.8621 52.0521L96.784 51.8698ZM97.883 51.4115L98.0757 51.3333L98.4351 51.1875L98.508 51.3698L98.1486 51.5156L97.9611 51.599L97.883 51.4115ZM98.9819 50.9583L99.534 50.7292L99.6069 50.9167L99.0601 51.1406L98.9819 50.9583ZM100.081 50.5052L100.628 50.276L100.706 50.4583L100.159 50.6875L100.081 50.5052ZM101.18 50.0469L101.727 49.8177L101.805 50L101.258 50.2292L101.18 50.0469ZM102.274 49.5833L102.826 49.3542L102.904 49.5365L102.352 49.7656L102.274 49.5833ZM103.373 49.1198L103.919 48.8854L103.998 49.0677L103.451 49.3021L103.373 49.1198ZM104.466 48.651L105.013 48.4115L105.091 48.5938L104.544 48.8333L104.466 48.651ZM105.555 48.1719L106.102 47.9323L106.18 48.1146L105.638 48.3542L105.555 48.1719ZM106.643 47.6875L107.185 47.4427L107.268 47.625L106.727 47.8698L106.643 47.6875ZM107.727 47.1979L108.268 46.9479L108.352 47.1302L107.81 47.3802L107.727 47.1979ZM108.805 46.6979L109.341 46.4427L109.43 46.625L108.888 46.8802L108.805 46.6979ZM109.878 46.1875L110.414 45.9323L110.503 46.1094L109.966 46.3698L109.878 46.1875ZM110.951 45.6719L111.487 45.4063L111.57 45.5885L111.039 45.849L110.951 45.6719ZM112.018 45.1458L112.55 44.875L112.638 45.0521L112.107 45.3229L112.018 45.1458ZM113.081 44.6094L113.201 44.5469L113.612 44.3385L113.701 44.5156L113.289 44.724L113.169 44.7865L113.081 44.6094ZM114.138 44.0625L114.664 43.7865L114.758 43.9635L114.232 44.2396L114.138 44.0625ZM115.19 43.5104L115.716 43.2292L115.81 43.4063L115.284 43.6875L115.19 43.5104ZM116.237 42.9479L116.763 42.6667L116.857 42.8385L116.336 43.125L116.237 42.9479ZM117.284 42.3802L117.805 42.0885L117.899 42.2656L117.378 42.5521L117.284 42.3802ZM118.32 41.8021L118.841 41.5052L118.94 41.6823L118.419 41.974L118.32 41.8021ZM119.357 41.2135L119.722 41L119.873 40.9167L119.972 41.0885L119.82 41.1719L119.456 41.3854L119.357 41.2135ZM120.388 40.6146L120.899 40.3177L121.003 40.4844L120.487 40.7865L120.388 40.6146ZM121.414 40.0104L121.81 39.776L121.925 39.7083L122.024 39.875L121.914 39.9427L121.513 40.1823L121.414 40.0104ZM122.43 39.401L122.94 39.0885L123.044 39.2604L122.534 39.5677L122.43 39.401ZM123.445 38.7813L123.951 38.4635L124.055 38.6354L123.55 38.9479L123.445 38.7813ZM124.456 38.151L124.956 37.8333L125.065 38L124.56 38.3177L124.456 38.151ZM125.461 37.5104L125.961 37.1927L126.065 37.3594L125.565 37.6771L125.461 37.5104ZM126.461 36.8646L126.956 36.5417L127.065 36.7083L126.565 37.0313L126.461 36.8646ZM127.451 36.2135L127.945 35.8802L128.06 36.0469L127.565 36.375L127.451 36.2135ZM128.44 35.5521L128.935 35.2135L129.044 35.3802L128.555 35.7135L128.44 35.5521ZM129.425 34.8802L129.643 34.7292L129.914 34.5417L130.024 34.7031L129.753 34.8906L129.534 35.0417L129.425 34.8802ZM130.399 34.2031L130.888 33.8594L131.003 34.0208L130.513 34.3646L130.399 34.2031ZM131.373 33.5156L131.56 33.3802C131.659 33.3125 131.758 33.2396 131.852 33.1667L131.966 33.3281C131.873 33.401 131.774 33.474 131.675 33.5417L131.487 33.6771L131.373 33.5156ZM132.315 32.8073C132.472 32.6771 132.623 32.5521 132.768 32.4219L132.899 32.5729C132.753 32.7031 132.602 32.8333 132.44 32.9583L132.315 32.8073ZM133.195 32.0208C133.336 31.8802 133.472 31.7344 133.597 31.5885L133.748 31.7188C133.617 31.8698 133.477 32.0156 133.336 32.1615L133.195 32.0208ZM133.972 31.1406C134.091 30.9844 134.211 30.8229 134.32 30.6563L134.482 30.7656C134.373 30.9323 134.253 31.099 134.128 31.2604L133.972 31.1406ZM134.623 30.1667C134.722 29.9948 134.815 29.8229 134.899 29.6406L135.076 29.7292C134.992 29.9115 134.893 30.0885 134.794 30.2656L134.623 30.1667Z" fill="black"/>
</g>
</g>
</g>
<mask id="mask30_97_2113" style="mask-type:luminance" maskUnits="userSpaceOnUse" x="62" y="2" width="53" height="25">
<path d="M62.5393 2.66675H114.539V26.6667H62.5393V2.66675Z" fill="white"/>
</mask>
<g mask="url(#mask30_97_2113)">
<mask id="mask31_97_2113" style="mask-type:luminance" maskUnits="userSpaceOnUse" x="42" y="-12" width="115" height="98">
<path d="M42.4612 28.6356L130.383 -11.979L156.763 45.1252L68.8414 85.7345L42.4612 28.6356Z" fill="white"/>
</mask>
<g mask="url(#mask31_97_2113)">
<mask id="mask32_97_2113" style="mask-type:luminance" maskUnits="userSpaceOnUse" x="42" y="-12" width="115" height="98">
<path d="M42.4612 28.6356L130.383 -11.979L156.763 45.1252L68.8414 85.7345L42.4612 28.6356Z" fill="white"/>
</mask>
<g mask="url(#mask32_97_2113)">
<path d="M63.6904 25.8438C63.8779 25.8074 64.0706 25.7657 64.2686 25.7136L64.3154 25.9063C64.1175 25.9584 63.9196 26.0001 63.7269 26.0365L63.6904 25.8438ZM64.8363 25.5626C65.0186 25.5053 65.2113 25.448 65.404 25.3803L65.4665 25.5678C65.2686 25.6355 65.0811 25.698 64.8936 25.7501L64.8363 25.5626ZM65.9613 25.1876C66.1383 25.1199 66.3206 25.0522 66.5186 24.974L66.5915 25.1615C66.3936 25.2345 66.2061 25.3074 66.029 25.3699L65.9613 25.1876ZM67.0706 24.7553L67.4873 24.5834L67.6175 24.5261L67.6956 24.7136L67.5602 24.7657L67.1436 24.9376L67.0706 24.7553ZM68.1696 24.3022L68.7217 24.0782L68.7946 24.2657L68.2425 24.4897L68.1696 24.3022ZM69.2738 23.8542L69.8258 23.6303L69.8988 23.8178L69.3467 24.0417L69.2738 23.8542ZM70.3779 23.4063L70.9248 23.1824L71.0029 23.3699L70.4508 23.5938L70.3779 23.4063ZM71.4769 22.9584L72.029 22.7397L72.1071 22.922L71.555 23.1459L71.4769 22.9584ZM72.5811 22.5157L73.1331 22.2917L73.2061 22.474L72.654 22.698L72.5811 22.5157ZM73.6852 22.0678L74.2373 21.8438L74.3102 22.0261L73.7581 22.2501L73.6852 22.0678ZM74.7894 21.6199L75.3363 21.3959L75.4144 21.5782L74.8623 21.8022L74.7894 21.6199ZM75.8883 21.172L76.4404 20.948L76.5133 21.1303L75.9665 21.3542L75.8883 21.172ZM76.9925 20.724L77.5446 20.5001L77.6175 20.6824L77.0654 20.9063L76.9925 20.724ZM78.0967 20.2761L78.6488 20.0522L78.7217 20.2345L78.1696 20.4584L78.0967 20.2761ZM79.1956 19.8282L79.7477 19.6042L79.8258 19.7865L79.2738 20.0105L79.1956 19.8282ZM80.2998 19.3803L80.8519 19.1563L80.9248 19.3386L80.3779 19.5626L80.2998 19.3803ZM81.404 18.9324L81.9561 18.7084L82.029 18.8907L81.4769 19.1147L81.404 18.9324ZM82.5081 18.4845L83.0602 18.2605L83.1331 18.4428L82.5811 18.6667L82.5081 18.4845ZM83.6071 18.0365L84.1592 17.8126L84.2373 17.9949L83.6852 18.2188L83.6071 18.0365ZM84.7113 17.5886L85.2633 17.3647L85.3363 17.547L84.7842 17.7709L84.7113 17.5886ZM85.8102 17.1355C85.9873 17.0626 86.1696 16.9845 86.3571 16.9011L86.4352 17.0834C86.2477 17.1667 86.0654 17.2449 85.8883 17.3178L85.8102 17.1355ZM86.8936 16.6511L87.43 16.3959L87.5133 16.573L86.9769 16.8334L86.8936 16.6511ZM87.9613 16.1303L88.4925 15.8647L88.5811 16.0417L88.0498 16.3074L87.9613 16.1303ZM89.0238 15.5938L89.5498 15.3178L89.6436 15.4949L89.1123 15.7709L89.0238 15.5938ZM90.0811 15.047L90.6123 14.7761L90.7008 14.9532L90.1696 15.224L90.0811 15.047ZM91.1436 14.5105L91.68 14.2501L91.7686 14.4272L91.2321 14.6876L91.1436 14.5105ZM92.2217 13.9949L92.7633 13.7501L92.8467 13.9272L92.305 14.172L92.2217 13.9949ZM93.3102 13.5053L93.5238 13.4115L93.8519 13.2657L93.93 13.4428L93.6071 13.5886L93.3883 13.6876L93.3102 13.5053ZM94.3936 13.0209L94.7633 12.8542L94.9352 12.7761L95.0186 12.9584L94.8467 13.0365L94.4769 13.2032L94.3936 13.0209ZM95.4769 12.5313L96.0186 12.2865L96.1019 12.4636L95.5602 12.7136L95.4769 12.5313ZM96.5602 12.0365L97.1019 11.7865L97.1852 11.9688L96.6436 12.2188L96.5602 12.0365ZM97.6383 11.5365L98.18 11.2813L98.2633 11.4636L97.7269 11.7136L97.6383 11.5365ZM98.7165 11.0313L99.2529 10.7709L99.3415 10.9532L98.7998 11.2084L98.7165 11.0313ZM99.7894 10.5157L100.326 10.2553L100.414 10.4324L99.8779 10.6928L99.7894 10.5157ZM100.862 9.99487L101.394 9.72925L101.482 9.91154L100.946 10.172L100.862 9.99487ZM101.925 9.46362L102.456 9.198L102.545 9.37508L102.013 9.64071L101.925 9.46362ZM102.987 8.92716L103.513 8.65633L103.607 8.83341L103.076 9.10425L102.987 8.92716ZM104.039 8.38029L104.571 8.10425L104.659 8.28133L104.133 8.55737L104.039 8.38029ZM105.091 7.823L105.618 7.54175L105.711 7.71883L105.185 8.00008L105.091 7.823ZM106.138 7.25529L106.659 6.96883L106.753 7.14591L106.232 7.43237L106.138 7.25529ZM107.18 6.68237L107.696 6.3855L107.795 6.55737L107.274 6.85425L107.18 6.68237ZM108.211 6.08862L108.331 6.02091L108.722 5.79175L108.826 5.96362L108.43 6.19279L108.31 6.2605L108.211 6.08862ZM109.237 5.48967L109.748 5.18237L109.847 5.35425L109.336 5.66154L109.237 5.48967ZM110.253 4.87508L110.758 4.56258L110.862 4.72925L110.357 5.04175L110.253 4.87508ZM111.263 4.25008L111.763 3.92716L111.873 4.09383L111.368 4.41675L111.263 4.25008ZM112.263 3.60946L112.763 3.28133L112.873 3.448L112.373 3.77091L112.263 3.60946ZM113.258 2.95321L113.612 2.71362L113.727 2.87508L113.368 3.11467L113.258 2.95321Z" fill="black"/>
</g>
</g>
</g>
<mask id="mask33_97_2113" style="mask-type:luminance" maskUnits="userSpaceOnUse" x="63" y="1" width="49" height="23">
<path d="M63.8726 1.33325H111.873V23.9999H63.8726V1.33325Z" fill="white"/>
</mask>
<g mask="url(#mask33_97_2113)">
<mask id="mask34_97_2113" style="mask-type:luminance" maskUnits="userSpaceOnUse" x="42" y="-12" width="115" height="98">
<path d="M42.4612 28.6353L130.383 -11.9792L156.763 45.1249L68.8414 85.7343L42.4612 28.6353Z" fill="white"/>
</mask>
<g mask="url(#mask34_97_2113)">
<mask id="mask35_97_2113" style="mask-type:luminance" maskUnits="userSpaceOnUse" x="42" y="-12" width="115" height="98">
<path d="M42.4612 28.6353L130.383 -11.9792L156.763 45.1249L68.8414 85.7343L42.4612 28.6353Z" fill="white"/>
</mask>
<g mask="url(#mask35_97_2113)">
<path d="M64.3311 23.3801C64.5186 23.3489 64.7113 23.3072 64.9092 23.2603L64.9508 23.453C64.7529 23.4999 64.555 23.5416 64.3623 23.578L64.3311 23.3801ZM65.4769 23.1093C65.6592 23.0572 65.8467 22.9999 66.0446 22.9322L66.1071 23.1197C65.9092 23.1874 65.7165 23.2447 65.5342 23.302L65.4769 23.1093ZM66.6019 22.7343C66.7738 22.6718 66.9613 22.6041 67.154 22.526L67.2269 22.7083C67.029 22.7864 66.8467 22.8593 66.6696 22.9218L66.6019 22.7343ZM67.7061 22.302L67.9196 22.2187L68.2581 22.078L68.3311 22.2655L67.9925 22.401L67.7842 22.4895L67.7061 22.302ZM68.8102 21.8593L69.3623 21.6353L69.4352 21.8176L68.8831 22.0416L68.8102 21.8593ZM69.9144 21.4114L70.4665 21.1926L70.5394 21.3749L69.9873 21.5989L69.9144 21.4114ZM71.0186 20.9687L71.5706 20.7447L71.6436 20.927L71.0915 21.151L71.0186 20.9687ZM72.1227 20.5208L72.6748 20.302L72.7477 20.4843L72.1956 20.7083L72.1227 20.5208ZM73.2269 20.078L73.779 19.8541L73.8519 20.0416L73.2998 20.2603L73.2269 20.078ZM74.3311 19.6353L74.8831 19.4114L74.9561 19.5937L74.404 19.8176L74.3311 19.6353ZM75.4352 19.1874L75.9873 18.9687L76.0602 19.151L75.5081 19.3749L75.4352 19.1874ZM76.5394 18.7447L77.0915 18.5208L77.1644 18.703L76.6123 18.927L76.5394 18.7447ZM77.6436 18.2968L78.1956 18.078L78.2686 18.2603L77.7165 18.4843L77.6436 18.2968ZM78.7477 17.8541L79.2998 17.6301L79.3727 17.8176L78.8206 18.0364L78.7477 17.8541ZM79.8519 17.4114L80.404 17.1874L80.4769 17.3697L79.9248 17.5937L79.8519 17.4114ZM80.9561 16.9635L81.5029 16.7395L81.5811 16.927L81.029 17.151L80.9561 16.9635ZM82.055 16.5208L82.6071 16.2968L82.6852 16.4791L82.1331 16.703L82.055 16.5208ZM83.1592 16.0728L83.7113 15.8541L83.7894 16.0364L83.2373 16.2603L83.1592 16.0728ZM84.2633 15.6301L84.8154 15.4062L84.8936 15.5937L84.3415 15.8124L84.2633 15.6301ZM85.3623 15.1822C85.5394 15.1041 85.7217 15.026 85.904 14.9426L85.9873 15.1197C85.7998 15.2083 85.6175 15.2864 85.4404 15.3645L85.3623 15.1822ZM86.4404 14.6926L86.9769 14.4322L87.0654 14.6093L86.529 14.8697L86.4404 14.6926ZM87.5081 14.1666L88.0394 13.8905L88.1279 14.0676L87.5967 14.3437L87.5081 14.1666ZM88.5706 13.6197L89.0967 13.3437L89.1904 13.5208L88.6592 13.7968L88.5706 13.6197ZM89.6279 13.0728L90.1592 12.802L90.2477 12.9791L89.7165 13.2499L89.6279 13.0728ZM90.6956 12.5364L91.2321 12.2812L91.3154 12.4635L90.779 12.7187L90.6956 12.5364ZM91.7738 12.0364L91.8727 11.9947L92.1644 11.8645L92.3206 11.7968L92.3988 11.9739L92.2477 12.0468L91.9508 12.177L91.8571 12.2187L91.7738 12.0364ZM92.8623 11.552L93.4092 11.3124L93.4873 11.4895L92.9456 11.7343L92.8623 11.552ZM93.9508 11.0676L94.1331 10.9843L94.4925 10.8228L94.5758 10.9999L94.2113 11.1666L94.029 11.2447L93.9508 11.0676ZM95.0342 10.5728L95.5758 10.328L95.654 10.5051L95.1175 10.7551L95.0342 10.5728ZM96.1123 10.078L96.654 9.82283L96.7373 10.0051L96.1956 10.2551L96.1123 10.078ZM97.1904 9.57283L97.7269 9.31763L97.8102 9.49471L97.2738 9.74992L97.1904 9.57283ZM98.2633 9.05721L98.7998 8.79679L98.8883 8.97908L98.3519 9.23429L98.2633 9.05721ZM99.3311 8.53638L99.8675 8.27596L99.9561 8.45304L99.4196 8.71346L99.3311 8.53638ZM100.399 8.00513L100.93 7.7395L101.019 7.91658L100.487 8.18221L100.399 8.00513ZM101.456 7.46867L101.987 7.19263L102.076 7.36971L101.55 7.64575L101.456 7.46867ZM102.513 6.91658L103.039 6.64054L103.133 6.81242L102.607 7.09367L102.513 6.91658ZM103.56 6.35929L104.081 6.07284L104.18 6.24992L103.654 6.53117L103.56 6.35929ZM104.602 5.78638L104.795 5.677L105.123 5.49471L105.222 5.66658L104.894 5.85408L104.701 5.95825L104.602 5.78638ZM105.638 5.20304L106.154 4.90617L106.253 5.07284L105.737 5.37492L105.638 5.20304ZM106.664 4.60408L107.18 4.302L107.279 4.46867L106.769 4.77596L106.664 4.60408ZM107.685 3.99471L108.19 3.68221L108.295 3.84888L107.789 4.16138L107.685 3.99471ZM108.696 3.36971L109.196 3.052L109.305 3.21867L108.8 3.53638L108.696 3.36971ZM109.696 2.72908L110.196 2.40096L110.305 2.56763L109.805 2.89575L109.696 2.72908ZM110.69 2.07284L111.185 1.7395L111.295 1.90096L110.8 2.23429L110.69 2.07284Z" fill="black"/>
</g>
</g>
</g>
<mask id="mask36_97_2113" style="mask-type:luminance" maskUnits="userSpaceOnUse" x="86" y="25" width="8" height="10">
<path d="M86.5393 25.3333H93.206V34.6666H86.5393V25.3333Z" fill="white"/>
</mask>
<g mask="url(#mask36_97_2113)">
<mask id="mask37_97_2113" style="mask-type:luminance" maskUnits="userSpaceOnUse" x="42" y="-12" width="115" height="98">
<path d="M42.4612 28.6353L130.383 -11.9792L156.763 45.1249L68.8414 85.7343L42.4612 28.6353Z" fill="white"/>
</mask>
<g mask="url(#mask37_97_2113)">
<mask id="mask38_97_2113" style="mask-type:luminance" maskUnits="userSpaceOnUse" x="42" y="-12" width="115" height="98">
<path d="M42.4612 28.6353L130.383 -11.9792L156.763 45.1249L68.8414 85.7343L42.4612 28.6353Z" fill="white"/>
</mask>
<g mask="url(#mask38_97_2113)">
<path d="M91.8571 28.6875C92.0967 29.1979 92.2738 29.7135 92.3988 30.2292C92.5238 30.7448 92.5811 31.224 92.5706 31.6667C92.5654 32.1094 92.4925 32.4792 92.3519 32.7812C92.2165 33.0833 92.0186 33.2917 91.7738 33.4062C91.5238 33.5156 91.2425 33.5312 90.9248 33.4427C90.6071 33.349 90.2738 33.1667 89.9352 32.8854C89.5915 32.6042 89.2633 32.25 88.9508 31.8229C88.6383 31.3906 88.3623 30.9219 88.1279 30.4115C87.8936 29.901 87.7113 29.3854 87.5863 28.8698C87.4665 28.3542 87.4092 27.875 87.4144 27.4323C87.4248 26.9948 87.4977 26.6198 87.6331 26.3177C87.7738 26.0208 87.9665 25.8125 88.2113 25.6979C88.4613 25.5833 88.7425 25.5677 89.0654 25.6615C89.3831 25.75 89.7113 25.9375 90.055 26.2135C90.3936 26.4948 90.7217 26.849 91.0342 27.2812C91.3467 27.7083 91.6227 28.1771 91.8571 28.6875Z" fill="black"/>
</g>
</g>
</g>
<mask id="mask39_97_2113" style="mask-type:luminance" maskUnits="userSpaceOnUse" x="94" y="21" width="8" height="10">
<path d="M94.5393 21.3333H101.206V30.6666H94.5393V21.3333Z" fill="white"/>
</mask>
<g mask="url(#mask39_97_2113)">
<mask id="mask40_97_2113" style="mask-type:luminance" maskUnits="userSpaceOnUse" x="42" y="-12" width="115" height="98">
<path d="M42.4612 28.6353L130.383 -11.9792L156.763 45.1249L68.8414 85.7343L42.4612 28.6353Z" fill="white"/>
</mask>
<g mask="url(#mask40_97_2113)">
<mask id="mask41_97_2113" style="mask-type:luminance" maskUnits="userSpaceOnUse" x="42" y="-12" width="115" height="98">
<path d="M42.4612 28.6353L130.383 -11.9792L156.763 45.1249L68.8414 85.7343L42.4612 28.6353Z" fill="white"/>
</mask>
<g mask="url(#mask41_97_2113)">
<path d="M99.4871 25.1666C99.7215 25.677 99.9038 26.1875 100.024 26.7083C100.149 27.2239 100.206 27.7031 100.195 28.1406C100.19 28.5833 100.117 28.9583 99.9767 29.2604C99.8413 29.5572 99.6486 29.7656 99.3986 29.8802C99.1538 29.9947 98.8673 30.0052 98.5496 29.9166C98.2319 29.8281 97.9038 29.6406 97.56 29.3593C97.2163 29.0833 96.8882 28.7291 96.5757 28.2968C96.2632 27.8697 95.9923 27.401 95.7527 26.8906C95.5184 26.3802 95.3361 25.8645 95.2163 25.3489C95.0913 24.8333 95.034 24.3541 95.0444 23.9114C95.0496 23.4687 95.1225 23.0989 95.2632 22.7968C95.3986 22.4947 95.5913 22.2864 95.8413 22.1718C96.0861 22.0572 96.3725 22.0468 96.6902 22.1354C97.008 22.2291 97.3361 22.4114 97.6798 22.6927C98.0236 22.9739 98.3517 23.3281 98.6642 23.7552C98.9767 24.1822 99.2475 24.6562 99.4871 25.1666Z" fill="black"/>
</g>
</g>
</g>
<mask id="mask42_97_2113" style="mask-type:luminance" maskUnits="userSpaceOnUse" x="83" y="24" width="23" height="16">
<path d="M83.8726 24H105.206V40H83.8726V24Z" fill="white"/>
</mask>
<g mask="url(#mask42_97_2113)">
<mask id="mask43_97_2113" style="mask-type:luminance" maskUnits="userSpaceOnUse" x="42" y="-12" width="115" height="98">
<path d="M42.4612 28.6353L130.383 -11.9792L156.763 45.1249L68.8414 85.7343L42.4612 28.6353Z" fill="white"/>
</mask>
<g mask="url(#mask43_97_2113)">
<mask id="mask44_97_2113" style="mask-type:luminance" maskUnits="userSpaceOnUse" x="42" y="-12" width="115" height="98">
<path d="M42.4612 28.6353L130.383 -11.9792L156.763 45.1249L68.8414 85.7343L42.4612 28.6353Z" fill="white"/>
</mask>
<g mask="url(#mask44_97_2113)">
<path d="M84.3101 33.4009C84.6122 35.7707 87.1278 36.9999 89.0549 37.8853C90.0705 38.3697 91.1278 38.7082 92.232 38.9009C93.2528 39.052 94.2684 39.0364 95.2789 38.8436C97.3726 38.4374 99.1851 37.4947 100.716 36.0051C102.175 34.5624 103.216 32.8645 103.852 30.9114C104.206 29.828 104.44 28.7239 104.55 27.5884C104.649 26.5624 104.716 25.0364 103.399 24.8124C103.227 24.7811 103.076 24.8228 102.94 24.927C102.805 25.0311 102.727 25.1718 102.711 25.3436C102.696 25.5155 102.742 25.6666 102.857 25.7916C102.972 25.9218 103.117 25.9895 103.289 25.9947C103.19 25.9791 103.315 25.9999 103.31 26.0051C103.263 26.0572 103.258 25.8905 103.263 25.9791C103.263 25.9791 103.347 26.0884 103.305 26.0259C103.263 25.9634 103.331 26.0728 103.336 26.0884C103.373 26.1457 103.393 26.2134 103.399 26.2811C103.414 26.3801 103.43 26.4791 103.43 26.578C103.43 26.9843 103.399 27.3905 103.336 27.7916C103.232 28.6666 103.05 29.5259 102.779 30.3645C102.263 32.0624 101.404 33.5624 100.201 34.8697C98.9455 36.1978 97.4351 37.0936 95.6643 37.5624C94.7997 37.7916 93.9143 37.8749 93.0184 37.8176C92.0653 37.7239 91.1434 37.4947 90.2632 37.1197C89.2111 36.7186 88.2164 36.2082 87.2684 35.5936C86.4195 35.0259 85.6174 34.2811 85.482 33.2134C85.3882 32.453 84.2111 32.6509 84.3101 33.4061V33.4009Z" fill="black"/>
</g>
</g>
</g>
<mask id="mask45_97_2113" style="mask-type:luminance" maskUnits="userSpaceOnUse" x="101" y="24" width="6" height="3">
<path d="M101.206 24H106.539V26.6667H101.206V24Z" fill="white"/>
</mask>
<g mask="url(#mask45_97_2113)">
<mask id="mask46_97_2113" style="mask-type:luminance" maskUnits="userSpaceOnUse" x="42" y="-12" width="115" height="98">
<path d="M42.4612 28.6353L130.383 -11.9792L156.763 45.1249L68.8414 85.7343L42.4612 28.6353Z" fill="white"/>
</mask>
<g mask="url(#mask46_97_2113)">
<mask id="mask47_97_2113" style="mask-type:luminance" maskUnits="userSpaceOnUse" x="42" y="-12" width="115" height="98">
<path d="M42.4612 28.6353L130.383 -11.9792L156.763 45.1249L68.8414 85.7343L42.4612 28.6353Z" fill="white"/>
</mask>
<g mask="url(#mask47_97_2113)">
<path d="M102.742 26.2239C102.841 26.1562 102.669 26.2552 102.742 26.2239L102.826 26.1823C102.888 26.1562 102.945 26.125 103.003 26.0989L103.185 26.0156C103.248 26 103.31 25.9791 103.373 25.9479C103.3 25.9687 103.284 25.9739 103.331 25.9687L103.373 25.9531L103.456 25.927C103.524 25.9114 103.591 25.8958 103.659 25.8854C103.727 25.875 103.805 25.8645 103.883 25.8593L103.971 25.8489L104.029 25.8437H104.065L104.18 25.8489C104.248 25.8489 104.315 25.8541 104.383 25.8593C104.451 25.8698 104.518 25.875 104.581 25.8854L104.675 25.901C104.784 25.9218 104.607 25.8854 104.675 25.901C104.805 25.9375 104.925 25.9791 105.06 26.026C105.123 26.052 105.185 26.0781 105.242 26.1041C105.274 26.1145 105.3 26.1302 105.326 26.1458C105.221 26.0625 105.326 26.1458 105.352 26.1614C105.487 26.2552 105.633 26.2864 105.794 26.2552C105.956 26.2291 106.081 26.1458 106.18 26.0156C106.274 25.8802 106.305 25.7291 106.279 25.5677C106.248 25.4062 106.164 25.2812 106.029 25.1875C105.393 24.8125 104.711 24.6406 103.977 24.6666C103.242 24.6875 102.565 24.9062 101.956 25.3177C101.831 25.427 101.763 25.5625 101.748 25.7239C101.737 25.8854 101.784 26.0312 101.888 26.1562C101.998 26.2812 102.133 26.3437 102.294 26.3593C102.456 26.375 102.602 26.3281 102.727 26.2291L102.742 26.2239Z" fill="black"/>
</g>
</g>
</g>
<mask id="mask48_97_2113" style="mask-type:luminance" maskUnits="userSpaceOnUse" x="82" y="30" width="6" height="8">
<path d="M82.5393 30.6667H87.8726V37.3334H82.5393V30.6667Z" fill="white"/>
</mask>
<g mask="url(#mask48_97_2113)">
<mask id="mask49_97_2113" style="mask-type:luminance" maskUnits="userSpaceOnUse" x="42" y="-12" width="115" height="98">
<path d="M42.4612 28.6356L130.383 -11.979L156.763 45.1252L68.8414 85.7345L42.4612 28.6356Z" fill="white"/>
</mask>
<g mask="url(#mask49_97_2113)">
<mask id="mask50_97_2113" style="mask-type:luminance" maskUnits="userSpaceOnUse" x="42" y="-12" width="115" height="98">
<path d="M42.4612 28.6356L130.383 -11.979L156.763 45.1252L68.8414 85.7345L42.4612 28.6356Z" fill="white"/>
</mask>
<g mask="url(#mask50_97_2113)">
<path d="M83.7425 35.7345C84.4405 34.5783 85.3102 33.5731 86.3519 32.7085C86.4769 32.6043 86.5446 32.4689 86.5602 32.3022C86.5759 32.1408 86.529 31.995 86.4196 31.87C86.3155 31.745 86.18 31.6772 86.0134 31.6616C85.8519 31.646 85.7061 31.6929 85.5811 31.8022C84.4665 32.7293 83.5238 33.8127 82.7634 35.0522C82.654 35.1877 82.6123 35.3387 82.6384 35.5106C82.6592 35.6825 82.7425 35.8179 82.8832 35.9168C83.0238 36.0158 83.18 36.047 83.3467 36.0106C83.5186 35.9741 83.6436 35.8856 83.7373 35.7345H83.7425Z" fill="black"/>
</g>
</g>
</g>
</svg>
