<svg width="346" height="308" viewBox="0 0 346 308" fill="none" xmlns="http://www.w3.org/2000/svg">
<mask id="mask0_126_1887" style="mask-type:luminance" maskUnits="userSpaceOnUse" x="1" y="1" width="343" height="306">
<path d="M1.33325 1.33325H344V306.667H1.33325V1.33325Z" fill="white"/>
</mask>
<g mask="url(#mask0_126_1887)">
<mask id="mask1_126_1887" style="mask-type:luminance" maskUnits="userSpaceOnUse" x="-80" y="-28" width="443" height="391">
<path d="M248.812 362.021L-79.7761 187.63L34.1405 -27.0105L362.734 147.38L248.812 362.021Z" fill="white"/>
</mask>
<g mask="url(#mask1_126_1887)">
<mask id="mask2_126_1887" style="mask-type:luminance" maskUnits="userSpaceOnUse" x="-80" y="-28" width="443" height="391">
<path d="M248.812 362.021L-79.7761 187.63L34.1405 -27.0105L362.734 147.38L248.812 362.021Z" fill="white"/>
</mask>
<g mask="url(#mask2_126_1887)">
<path d="M335.937 158.979C341 164.651 346.276 173.062 341.682 179.12C340.385 180.823 338.453 181.937 336.62 183.015C328.463 187.625 319.974 191.526 311.161 194.719C301.224 198.318 290.838 201.021 281.76 206.432C269.385 213.802 260.385 225.583 251.703 237.078L226.213 270.823C215.365 285.182 203.286 300.411 185.948 305.245C175.078 308.271 164.057 305.958 153.307 302.521C121.344 292.271 97.6614 278.094 62.8801 261.245C53.7499 256.823 32.0624 241.422 24.0624 235.198C3.46868 219.172 1.03118 204.552 3.38534 184.297C5.74472 164.042 14.5728 144.922 21.9791 125.927C29.3801 106.927 35.9895 86.9269 34.5833 66.5884C33.3124 48.1822 25.5833 30.9269 21.1926 13.0051C20.6874 10.9269 20.2551 8.58319 21.3853 6.74986C22.2551 5.33319 23.8697 4.60402 25.4374 4.01548C37.1562 -0.0938938 50.052 3.02069 61.9895 6.43736C136.755 27.828 201.25 65.104 271.26 107.021C295.771 121.693 319.505 135.286 335.911 158.838" fill="#A6A6A6"/>
</g>
</g>
</g>
<mask id="mask3_126_1887" style="mask-type:luminance" maskUnits="userSpaceOnUse" x="0" y="0" width="346" height="308">
<path d="M0 0H345.333V308H0V0Z" fill="white"/>
</mask>
<g mask="url(#mask3_126_1887)">
<mask id="mask4_126_1887" style="mask-type:luminance" maskUnits="userSpaceOnUse" x="-80" y="-28" width="443" height="391">
<path d="M248.812 362.021L-79.7761 187.63L34.1405 -27.0105L362.734 147.38L248.812 362.021Z" fill="white"/>
</mask>
<g mask="url(#mask4_126_1887)">
<mask id="mask5_126_1887" style="mask-type:luminance" maskUnits="userSpaceOnUse" x="-80" y="-28" width="443" height="391">
<path d="M248.812 362.021L-79.7761 187.63L34.1405 -27.0105L362.734 147.38L248.812 362.021Z" fill="white"/>
</mask>
<g mask="url(#mask5_126_1887)">
<path d="M335.036 159.969C339.833 165.443 346.25 174.922 338.151 180.547C330.781 185.672 321.75 189.292 313.411 192.469C298.141 198.297 282.844 202.042 270.396 213.302C257.792 224.719 248.193 239.552 238.026 253.057C228.161 266.125 218.839 280.354 206.724 291.51C200.953 296.833 194.286 301.333 186.729 303.661C178.641 306.151 170.187 305.531 162.073 303.583C146.729 299.953 131.87 293.516 117.604 286.864C102.87 280.042 88.5469 272.443 74.0469 265.239C62.4583 259.547 51.3542 253.026 40.7344 245.677C30.8177 238.776 19.9531 231.797 12.5677 222.057C5.57291 212.875 3.52083 202.125 4.18749 190.792C6.20833 156.234 26.7865 126.552 33.8177 93.1561C35.4323 85.4634 36.1302 77.6874 35.9062 69.828C35.6771 61.9686 34.5417 54.2447 32.4844 46.6561C30.4948 38.9686 27.9323 31.4113 25.6302 23.7968C24.5156 20.1093 23.3177 16.3905 22.5312 12.6145C21.6875 8.69779 23.1823 6.15613 27.0417 4.93217C29.1979 4.2655 31.4062 3.8228 33.6562 3.60925C41.5625 2.80717 49.5 4.4478 57.1094 6.46342C65.5417 8.69259 73.8854 11.3072 82.1615 14.0572C99.1719 19.703 115.885 26.229 132.286 33.4374C165.031 47.8072 196.521 64.828 227.464 82.6926C243.557 91.979 259.495 101.51 275.438 111.047C290.104 119.823 304.87 128.713 317.609 140.219C324.078 146.026 329.818 152.469 334.844 159.562C335.833 160.953 338.115 159.568 337.115 158.167C326.943 143.781 313.615 132.427 299.104 122.682C283.484 112.182 267.016 102.864 250.823 93.2811C217.745 73.7082 184.281 54.6665 149.469 38.3228C132.849 30.5259 115.937 23.3645 98.7031 17.0415C89.849 13.7863 80.9115 10.7811 71.8906 8.01029C63.6927 5.48425 55.4271 2.87488 46.9427 1.53634C39.7396 0.411336 32.026 0.244669 25.0729 2.77071C17.3437 5.60404 19.4635 12.0363 21.224 18.4165C25.9323 35.4322 32.9219 52.1093 33.4167 69.9738C34.4531 107.713 10.5625 139.786 3.40624 175.802C1.07291 187.516 -0.187507 200.672 3.99479 212.13C8.17708 223.594 17.375 231.943 26.9844 239.073C37 246.521 47.2604 253.88 58.0573 260.151C64.8125 264.068 72.0573 267.213 79.026 270.724C86.8177 274.651 94.5833 278.635 102.396 282.521C117.078 289.818 131.995 296.651 147.51 301.989C162.51 307.156 178.104 310.953 193.193 303.989C207.307 297.474 217.328 284.766 226.495 272.677C238.12 257.312 249.297 241.427 261.599 226.583C267.344 219.646 273.698 213.062 281.365 208.255C289.031 203.443 297.953 200.672 306.573 197.745C315.016 194.917 323.214 191.495 331.167 187.479C336.875 184.562 344.682 181.437 344.807 173.911C344.896 167.849 340.677 162.323 336.885 157.984C335.75 156.687 333.927 158.656 335.042 159.937L335.036 159.969Z" fill="black"/>
</g>
</g>
</g>
<mask id="mask6_126_1887" style="mask-type:luminance" maskUnits="userSpaceOnUse" x="32" y="80" width="244" height="134">
<path d="M32 80H276V213.333H32V80Z" fill="white"/>
</mask>
<g mask="url(#mask6_126_1887)">
<mask id="mask7_126_1887" style="mask-type:luminance" maskUnits="userSpaceOnUse" x="-80" y="-28" width="443" height="391">
<path d="M248.812 362.021L-79.7761 187.63L34.1405 -27.0105L362.734 147.38L248.812 362.021Z" fill="white"/>
</mask>
<g mask="url(#mask7_126_1887)">
<mask id="mask8_126_1887" style="mask-type:luminance" maskUnits="userSpaceOnUse" x="-80" y="-28" width="443" height="391">
<path d="M248.812 362.021L-79.7761 187.63L34.1405 -27.0105L362.734 147.38L248.812 362.021Z" fill="white"/>
</mask>
<g mask="url(#mask8_126_1887)">
<path d="M274.656 210.552C264.042 197.057 251.474 185.719 236.963 176.536C221.453 166.693 205.213 157.953 189.26 148.792C156.625 130.005 123.76 112.104 88.8384 97.8542C79.4322 94.0208 69.9478 90.4062 60.3853 87.0156C51.9114 84.0156 43.3176 80.5625 34.1874 80.5312C32.4791 80.4896 32.578 83.1927 34.3124 83.1927C42.6562 83.2864 50.6093 86.3854 58.3905 89.1198C67.2655 92.2448 76.0676 95.5625 84.802 99.0729C101.318 105.724 117.536 113.052 133.463 121.052C165.307 137.089 196.073 155.531 226.854 173.521C244.312 183.734 259.833 195.995 272.359 211.938C273.391 213.266 275.703 211.88 274.63 210.542L274.656 210.552Z" fill="black"/>
</g>
</g>
</g>
<mask id="mask9_126_1887" style="mask-type:luminance" maskUnits="userSpaceOnUse" x="2" y="206" width="186" height="101">
<path d="M2.66675 206.667H188V306.667H2.66675V206.667Z" fill="white"/>
</mask>
<g mask="url(#mask9_126_1887)">
<mask id="mask10_126_1887" style="mask-type:luminance" maskUnits="userSpaceOnUse" x="-80" y="-28" width="443" height="391">
<path d="M248.813 362.021L-79.7759 187.63L34.1408 -27.0103L362.735 147.38L248.813 362.021Z" fill="white"/>
</mask>
<g mask="url(#mask10_126_1887)">
<mask id="mask11_126_1887" style="mask-type:luminance" maskUnits="userSpaceOnUse" x="-80" y="-28" width="443" height="391">
<path d="M248.813 362.021L-79.7759 187.63L34.1408 -27.0103L362.735 147.38L248.813 362.021Z" fill="white"/>
</mask>
<g mask="url(#mask11_126_1887)">
<path d="M186.672 303.604C177.115 295.203 164.891 289.443 154.011 282.964L118.469 261.823C106.839 254.906 94.5315 249.516 82.6981 243.011C70.7085 236.422 58.6148 230.037 46.2554 224.172C32.6929 217.688 18.7867 212.042 4.54187 207.235C2.91166 206.693 2.33874 209.307 3.95854 209.849C29.5731 218.406 53.8283 230.36 77.5002 243.25C88.8804 249.448 100.891 254.521 112.037 261.141C123.469 267.917 134.891 274.714 146.307 281.521L165.688 293.047C172.224 296.943 179.11 300.547 184.849 305.584C186.141 306.724 187.985 304.776 186.688 303.636L186.672 303.604Z" fill="black"/>
</g>
</g>
</g>
<mask id="mask12_126_1887" style="mask-type:luminance" maskUnits="userSpaceOnUse" x="22" y="13" width="314" height="171">
<path d="M22.6667 13.3333H336V184H22.6667V13.3333Z" fill="white"/>
</mask>
<g mask="url(#mask12_126_1887)">
<mask id="mask13_126_1887" style="mask-type:luminance" maskUnits="userSpaceOnUse" x="-80" y="-28" width="443" height="391">
<path d="M248.813 362.021L-79.7759 187.63L34.1408 -27.0105L362.735 147.38L248.813 362.021Z" fill="white"/>
</mask>
<g mask="url(#mask13_126_1887)">
<mask id="mask14_126_1887" style="mask-type:luminance" maskUnits="userSpaceOnUse" x="-80" y="-28" width="443" height="391">
<path d="M248.813 362.021L-79.7759 187.63L34.1408 -27.0105L362.735 147.38L248.813 362.021Z" fill="white"/>
</mask>
<g mask="url(#mask14_126_1887)">
<path d="M334.38 183.766C333.985 183.115 333.589 182.464 333.182 181.818L333.834 181.411C334.24 182.062 334.641 182.714 335.037 183.37L334.38 183.766ZM331.959 179.885C331.542 179.245 331.125 178.604 330.698 177.969L331.339 177.547C331.761 178.182 332.182 178.828 332.599 179.469L331.959 179.885ZM329.412 176.073C328.979 175.443 328.542 174.812 328.094 174.187L328.719 173.745C329.167 174.375 329.61 175.005 330.042 175.635L329.412 176.073ZM326.75 172.328C326.297 171.708 325.844 171.099 325.38 170.49L325.99 170.026C326.453 170.641 326.917 171.255 327.37 171.875L326.75 172.328ZM323.985 168.672C323.516 168.068 323.042 167.469 322.563 166.875L323.156 166.396C323.641 166.995 324.115 167.594 324.589 168.203L323.985 168.672ZM321.11 165.099C320.62 164.51 320.125 163.927 319.63 163.344L320.214 162.849C320.714 163.432 321.209 164.021 321.698 164.609L321.11 165.099ZM318.125 161.615C317.62 161.042 317.11 160.469 316.594 159.906L317.162 159.391C317.677 159.958 318.193 160.531 318.703 161.109L318.125 161.615ZM315.042 158.219C314.516 157.661 313.99 157.104 313.459 156.552L314.011 156.021C314.542 156.573 315.073 157.13 315.599 157.693L315.042 158.219ZM311.854 154.917C311.318 154.375 310.776 153.839 310.229 153.302L310.761 152.755C311.313 153.292 311.854 153.833 312.396 154.375L311.854 154.917ZM308.573 151.714C308.021 151.187 307.464 150.667 306.901 150.151L307.422 149.589C307.985 150.104 308.547 150.63 309.104 151.156L308.573 151.714ZM305.198 148.609C304.625 148.099 304.052 147.594 303.474 147.089L303.974 146.51C304.557 147.016 305.136 147.526 305.709 148.036L305.198 148.609ZM301.729 145.604C301.141 145.109 300.552 144.625 299.959 144.141L300.443 143.547C301.037 144.031 301.63 144.521 302.219 145.016L301.729 145.604ZM298.172 142.708C297.578 142.234 296.974 141.766 296.37 141.302L296.834 140.693C297.443 141.161 298.047 141.63 298.651 142.104L298.172 142.708ZM294.542 139.927L292.677 138.578L293.125 137.958L294.99 139.307L294.542 139.927ZM290.802 137.266L288.901 135.969L289.334 135.339L291.235 136.63L290.802 137.266ZM287 134.703L285.073 133.453L285.49 132.807L287.417 134.057L287 134.703ZM283.141 132.224L281.193 131.005L281.599 130.354L283.547 131.573L283.141 132.224ZM279.24 129.802L277.276 128.615L277.672 127.958L279.636 129.151L279.24 129.802ZM275.307 127.432L273.334 126.255L273.724 125.599L275.698 126.776L275.307 127.432ZM271.36 125.089L269.485 123.984L269.38 123.917L269.771 123.26L269.875 123.323L271.75 124.427L271.36 125.089ZM267.401 122.75L265.422 121.583L265.813 120.922L267.792 122.094L267.401 122.75ZM263.443 120.417L261.464 119.245L261.854 118.589L263.834 119.755L263.443 120.417ZM259.49 118.078L257.511 116.911L257.896 116.25L259.875 117.417L259.49 118.078ZM255.531 115.745L253.552 114.573L253.943 113.917L255.922 115.083L255.531 115.745ZM251.573 113.406L249.594 112.24L249.985 111.578L251.964 112.745L251.573 113.406ZM247.615 111.068L245.636 109.901L246.026 109.245L248.005 110.411L247.615 111.068ZM243.656 108.734L241.682 107.568L242.068 106.906L244.047 108.073L243.656 108.734ZM239.703 106.396L237.724 105.229L238.115 104.568L240.089 105.74L239.703 106.396ZM235.745 104.062L233.766 102.896L234.156 102.234L236.136 103.401L235.745 104.062ZM231.787 101.724L229.807 100.557L230.198 99.8958L232.177 101.068L231.787 101.724ZM227.828 99.3906L225.849 98.2187L226.24 97.5625L228.219 98.7292L227.828 99.3906ZM223.875 97.0521L221.896 95.8854L222.281 95.2239L224.261 96.3958L223.875 97.0521ZM219.917 94.7187L219.042 94.1979L217.938 93.5469L218.328 92.8906L219.427 93.5417L220.307 94.0573L219.917 94.7187ZM215.959 92.3802L215.542 92.1302L213.979 91.2083L214.37 90.5521L215.927 91.4687L216.349 91.7187L215.959 92.3802ZM212.005 90.0417L211.224 89.5833L210.021 88.875L210.412 88.2135L211.61 88.9219L212.391 89.3802L212.005 90.0417ZM208.042 87.7135L207.5 87.3906L206.063 86.5469L206.448 85.8854L207.886 86.7292L208.432 87.0521L208.042 87.7135ZM204.078 85.3854L202.094 84.2292L202.479 83.5677L204.464 84.7239L204.078 85.3854ZM200.11 83.0729L198.12 81.9219L198.505 81.2604L200.495 82.4114L200.11 83.0729ZM196.13 80.776L194.141 79.6302L194.521 78.9687L196.516 80.1094L196.13 80.776ZM192.146 78.4948L190.146 77.3594L190.526 76.6927L192.526 77.8281L192.146 78.4948ZM188.146 76.2292L186.146 75.1042L186.521 74.4375L188.521 75.5625L188.146 76.2292ZM184.141 73.9844L182.13 72.875L182.5 72.2031L184.511 73.3177L184.141 73.9844ZM180.12 71.7708L178.099 70.6719L178.464 70L180.485 71.0989L180.12 71.7708ZM176.078 69.5833L175.755 69.4062H175.75L174.057 68.4948L174.422 67.8229L176.115 68.7292L176.12 68.7344L176.443 68.9062L176.078 69.5833ZM172.031 67.4219L170 66.3489L170.36 65.6719L172.391 66.7396L172.031 67.4219ZM167.969 65.2864L165.932 64.2292L166.281 63.5469L168.323 64.6042L167.969 65.2864ZM163.891 63.1823L162.99 62.7187L161.844 62.1406L162.188 61.4531L163.339 62.0364L164.235 62.5L163.891 63.1823ZM159.792 61.1042L157.735 60.0781L158.078 59.3906L160.136 60.4167L159.792 61.1042ZM155.677 59.0573L153.615 58.0417L153.953 57.3542L156.016 58.3698L155.677 59.0573ZM151.552 57.0364L149.479 56.0364L149.813 55.3489L151.886 56.3489L151.552 57.0364ZM147.406 55.0469L145.328 54.0625L145.656 53.3698L147.735 54.3542L147.406 55.0469ZM143.25 53.0885L141.167 52.1198L141.49 51.4271L143.573 52.3958L143.25 53.0885ZM139.083 51.1614L136.995 50.2083L137.313 49.5104L139.401 50.4635L139.083 51.1614ZM134.901 49.2656L132.802 48.3229L133.12 47.625L135.214 48.5625L134.901 49.2656ZM130.708 47.3958L128.604 46.4739L128.912 45.7708L131.016 46.6927L130.708 47.3958ZM126.495 45.5573L124.386 44.651L124.688 43.9427L126.797 44.8542L126.495 45.5573ZM122.271 43.75L120.156 42.8542L120.453 42.151L122.573 43.0417L122.271 43.75ZM118.037 41.9687L115.912 41.0937L116.203 40.3854L118.328 41.2656L118.037 41.9687ZM113.787 40.2239L111.656 39.3594L111.948 38.651L114.078 39.5156L113.787 40.2239ZM109.526 38.5052L107.391 37.6614L107.672 36.9479L109.807 37.7969L109.526 38.5052ZM105.255 36.8229L103.11 35.9896L103.391 35.276L105.531 36.1094L105.255 36.8229ZM100.969 35.1667L98.8179 34.3489L99.0939 33.6354L101.24 34.4479L100.969 35.1667ZM96.672 33.5417L94.9481 32.901L94.5158 32.7396L94.7866 32.0208L95.2189 32.1823L96.9377 32.8229L96.672 33.5417ZM92.3647 31.9479L90.2033 31.1614L90.4689 30.4427L92.6252 31.2292L92.3647 31.9479ZM88.047 30.3854L85.8804 29.6146L86.1356 28.8958L88.3022 29.6614L88.047 30.3854ZM83.7137 28.8542L81.547 28.0989L81.797 27.375L83.9689 28.1302L83.7137 28.8542ZM79.3752 27.3542L77.1981 26.6146L77.4429 25.8906L79.62 26.6302L79.3752 27.3542ZM75.021 25.8854L72.8387 25.1614L73.0783 24.4323L75.2606 25.1562L75.021 25.8854ZM70.6564 24.4479L68.4689 23.7396L68.7033 23.0104L70.8908 23.7187L70.6564 24.4479ZM66.2814 23.0364L64.0887 22.3489L64.3179 21.6146L66.5106 22.3073L66.2814 23.0364ZM61.896 21.6614L59.7033 20.9896L59.9272 20.2552L62.1252 20.9323L61.896 21.6614ZM57.5054 20.3229L55.3075 19.6614L55.5262 18.9271L57.7293 19.5885L57.5054 20.3229ZM53.1095 19.0104L50.9064 18.3646L51.12 17.6302L53.3231 18.276L53.1095 19.0104ZM48.7033 17.7292L48.4585 17.6614C47.7918 17.4687 47.1408 17.2917 46.5106 17.1302L46.7033 16.3854C47.3439 16.5521 48.0002 16.7344 48.6668 16.9271L48.9116 16.9948L48.7033 17.7292ZM44.2866 16.5937C43.5262 16.4219 42.7762 16.2708 42.0366 16.1406L42.172 15.3854C42.922 15.5208 43.6825 15.6719 44.4533 15.8437L44.2866 16.5937ZM39.8075 15.7864C39.0418 15.6823 38.2866 15.5989 37.5366 15.5312L37.6043 14.7708C38.3647 14.8333 39.1304 14.9219 39.9064 15.026L39.8075 15.7864ZM35.2502 15.3906C34.5002 15.3646 33.7502 15.3594 33.0054 15.3698L32.995 14.6042C33.7502 14.5937 34.5106 14.5989 35.2814 14.625L35.2502 15.3906ZM30.7241 15.4739C29.9585 15.5312 29.1981 15.6094 28.4377 15.7083L28.3387 14.9479C29.1147 14.8489 29.8908 14.7708 30.6668 14.7135L30.7241 15.4739ZM26.245 16.0521C25.5002 16.1927 24.7554 16.3542 24.0106 16.5364L23.8335 15.7917C24.5887 15.6042 25.3491 15.4427 26.1043 15.3021L26.245 16.0521Z" fill="black"/>
</g>
</g>
</g>
<mask id="mask15_126_1887" style="mask-type:luminance" maskUnits="userSpaceOnUse" x="25" y="28" width="299" height="163">
<path d="M25.3333 28H324V190.667H25.3333V28Z" fill="white"/>
</mask>
<g mask="url(#mask15_126_1887)">
<mask id="mask16_126_1887" style="mask-type:luminance" maskUnits="userSpaceOnUse" x="-80" y="-28" width="443" height="391">
<path d="M248.812 362.021L-79.7761 187.63L34.1405 -27.0105L362.734 147.38L248.812 362.021Z" fill="white"/>
</mask>
<g mask="url(#mask16_126_1887)">
<mask id="mask17_126_1887" style="mask-type:luminance" maskUnits="userSpaceOnUse" x="-80" y="-28" width="443" height="391">
<path d="M248.812 362.021L-79.7761 187.63L34.1405 -27.0105L362.734 147.38L248.812 362.021Z" fill="white"/>
</mask>
<g mask="url(#mask17_126_1887)">
<path d="M323.265 189.974C322.885 189.312 322.5 188.656 322.114 188L322.771 187.609C323.161 188.265 323.547 188.927 323.927 189.594L323.265 189.974ZM320.932 186.042C320.531 185.39 320.125 184.745 319.713 184.099L320.359 183.687C320.771 184.333 321.182 184.984 321.583 185.64L320.932 186.042ZM318.463 182.177C318.042 181.536 317.614 180.901 317.182 180.271L317.812 179.838C318.25 180.474 318.677 181.109 319.104 181.755L318.463 182.177ZM315.87 178.385C315.427 177.76 314.979 177.14 314.531 176.526L315.146 176.073C315.599 176.693 316.052 177.318 316.495 177.943L315.87 178.385ZM313.161 174.693C312.698 174.083 312.229 173.474 311.76 172.875L312.359 172.401C312.838 173.005 313.307 173.614 313.771 174.229L313.161 174.693ZM310.328 171.083C309.849 170.489 309.359 169.901 308.87 169.312L309.458 168.823C309.953 169.411 310.443 170.005 310.922 170.599L310.328 171.083ZM307.38 167.568C306.88 166.989 306.375 166.417 305.864 165.844L306.437 165.333C306.948 165.906 307.458 166.484 307.958 167.068L307.38 167.568ZM304.323 164.151C303.802 163.588 303.281 163.031 302.75 162.479L303.302 161.948C303.833 162.505 304.359 163.062 304.885 163.63L304.323 164.151ZM301.151 160.833C300.614 160.292 300.078 159.75 299.531 159.213L300.068 158.667C300.614 159.208 301.161 159.75 301.698 160.297L301.151 160.833ZM297.885 157.625C297.328 157.099 296.771 156.578 296.203 156.057L296.724 155.495C297.292 156.015 297.854 156.542 298.411 157.068L297.885 157.625ZM294.5 154.515C293.927 154.01 293.354 153.505 292.776 153.005L293.276 152.427C293.854 152.927 294.437 153.432 295.01 153.943L294.5 154.515ZM291.026 151.526C290.437 151.036 289.849 150.552 289.255 150.073L289.734 149.479C290.333 149.958 290.927 150.443 291.515 150.937L291.026 151.526ZM287.463 148.656L286.797 148.135L285.635 147.265L286.099 146.651L287.265 147.531L287.932 148.047L287.463 148.656ZM283.786 145.917L281.911 144.588L282.354 143.963L284.229 145.286L283.786 145.917ZM280.026 143.292L278.114 142.015L278.542 141.38L280.448 142.656L280.026 143.292ZM276.198 140.771L274.26 139.536L274.672 138.89L276.609 140.125L276.198 140.771ZM272.318 138.323L270.359 137.12L270.76 136.469L272.719 137.672L272.318 138.323ZM268.396 135.932L266.427 134.75L266.823 134.088L268.792 135.276L268.396 135.932ZM264.453 133.573L262.479 132.401L262.87 131.739L264.849 132.911L264.453 133.573ZM260.505 131.224L258.531 130.052L258.922 129.396L260.896 130.568L260.505 131.224ZM256.557 128.88L254.578 127.703L254.969 127.047L256.948 128.219L256.557 128.88ZM252.604 126.531L250.63 125.359L251.021 124.698L252.995 125.875L252.604 126.531ZM248.651 124.182L246.677 123.01L247.068 122.354L249.047 123.526L248.651 124.182ZM244.703 121.838L242.729 120.661L243.12 120.005L245.094 121.177L244.703 121.838ZM240.75 119.489L238.776 118.318L239.167 117.656L241.146 118.833L240.75 119.489ZM236.802 117.14L234.828 115.969L235.219 115.312L237.193 116.484L236.802 117.14ZM232.849 114.797L230.875 113.62L231.265 112.963L233.239 114.135L232.849 114.797ZM228.901 112.448L226.927 111.276L227.318 110.614L229.292 111.792L228.901 112.448ZM224.948 110.099L222.974 108.927L223.364 108.271L225.338 109.443L224.948 110.099ZM221 107.755L219.026 106.578L219.417 105.922L221.39 107.094L221 107.755ZM217.047 105.406L215.073 104.234L215.463 103.573L217.437 104.75L217.047 105.406ZM213.099 103.057L211.125 101.885L211.515 101.229L213.489 102.401L213.099 103.057ZM209.146 100.713L207.38 99.6613L207.172 99.5415L207.562 98.88L207.771 99.005L209.536 100.052L209.146 100.713ZM205.193 98.3696L204.307 97.8436L203.219 97.203L203.604 96.5415L204.698 97.1873L205.583 97.7082L205.193 98.3696ZM201.239 96.0363L200.448 95.5675L199.255 94.8696L199.646 94.2082L200.833 94.9061L201.625 95.3748L201.239 96.0363ZM197.276 93.7082L195.292 92.5519L195.677 91.8905L197.661 93.0467L197.276 93.7082ZM193.302 91.4009L191.312 90.2498L191.698 89.5884L193.687 90.7342L193.302 91.4009ZM189.323 89.104L187.328 87.9686L187.708 87.3019L189.703 88.4425L189.323 89.104ZM185.333 86.8332L183.328 85.7082L183.703 85.0415L185.708 86.1665L185.333 86.8332ZM181.328 84.5884L179.318 83.4738L179.687 82.8019L181.698 83.9165L181.328 84.5884ZM177.307 82.3644L175.651 81.4634L175.292 81.2655L175.656 80.5936L176.015 80.7915L177.672 81.6925L177.307 82.3644ZM173.271 80.1769L173.151 80.1092L173.094 80.0832L171.245 79.0936L171.609 78.4165L173.458 79.4061L173.51 79.4373L173.63 79.4998L173.271 80.1769ZM169.224 78.0155L167.193 76.9478L167.547 76.2707L169.578 77.3384L169.224 78.0155ZM165.156 75.8853L163.114 74.8332L163.463 74.1509L165.505 75.2082L165.156 75.8853ZM161.073 73.7915L159.505 72.9946L159.021 72.755L159.364 72.0675L159.849 72.3123L161.417 73.1092L161.073 73.7915ZM156.969 71.7238L156.844 71.6613L154.911 70.703L155.25 70.0155L157.182 70.9738L157.312 71.0415L156.969 71.7238ZM152.849 69.6925L151.385 68.979L150.781 68.6873L151.114 67.9946L151.719 68.2915L153.182 69.005L152.849 69.6925ZM148.713 67.6925L146.635 66.703L146.963 66.0103L149.042 66.9998L148.713 67.6925ZM144.557 65.7238L142.474 64.7498L142.797 64.0571L144.88 65.0259L144.557 65.7238ZM140.39 63.7863L138.302 62.8332L138.62 62.1353L140.708 63.0936L140.39 63.7863ZM136.213 61.8853L134.114 60.9478L134.427 60.2498L136.526 61.1873L136.213 61.8853ZM132.015 60.0207L129.911 59.0988L130.219 58.3957L132.323 59.3175L132.015 60.0207ZM127.807 58.1873L125.693 57.2811L125.995 56.578L128.109 57.4842L127.807 58.1873ZM123.578 56.3853L121.458 55.4946L121.755 54.7915L123.875 55.6769L123.578 56.3853ZM119.338 54.6196L117.213 53.7446L117.505 53.0363L119.63 53.9061L119.338 54.6196ZM115.088 52.8853L112.953 52.0259L113.239 51.3175L115.37 52.1717L115.088 52.8853ZM110.818 51.1821L108.677 50.3436L108.958 49.63L111.099 50.4686L110.818 51.1821ZM106.536 49.5155L104.39 48.6978L104.661 47.979L106.812 48.8019L106.536 49.5155ZM102.245 47.8853L100.088 47.0832L100.359 46.3644L102.51 47.1665L102.245 47.8853ZM97.9373 46.2863L95.7759 45.4998L96.0415 44.7811L98.1978 45.5675L97.9373 46.2863ZM93.6196 44.7238L91.453 43.953L91.7082 43.2342L93.8748 43.9998L93.6196 44.7238ZM89.2863 43.1925L87.1144 42.4425L87.3696 41.7186L89.5363 42.4686L89.2863 43.1925ZM84.9478 41.6978L82.7707 40.9634L83.0155 40.2394L85.1925 40.9738L84.9478 41.6978ZM80.5884 40.2394L78.4061 39.5207L78.6457 38.7915L80.828 39.5103L80.5884 40.2394ZM76.2186 38.8123L74.0311 38.1092L74.2655 37.38L76.453 38.0832L76.2186 38.8123ZM71.8436 37.4217L69.6457 36.7394L69.8748 36.005L72.0675 36.6873L71.8436 37.4217ZM67.453 36.0623L65.255 35.4009L65.4738 34.6665L67.6717 35.3332L67.453 36.0623ZM63.0519 34.7446L60.8488 34.0936L61.0675 33.3592L63.2707 34.0103L63.0519 34.7446ZM58.6457 33.4582L58.3488 33.3696L56.4373 32.828L56.6509 32.0884L58.5623 32.6353L58.8592 32.7186L58.6457 33.4582ZM54.2342 32.2082L52.0207 31.5936L52.2238 30.854L54.4373 31.4686L54.2342 32.2082ZM49.8228 31.0207C49.0675 30.8384 48.3228 30.6717 47.5936 30.5207L47.7446 29.7707C48.4842 29.9217 49.2394 30.0884 50.005 30.2759L49.8228 31.0207ZM45.3436 30.1144C44.5884 29.9946 43.8384 29.8957 43.104 29.8175L43.1821 29.0571C43.9373 29.1353 44.6925 29.2394 45.4634 29.3592L45.3436 30.1144ZM40.8175 29.63C40.0571 29.5884 39.3071 29.5728 38.5571 29.5728L38.5519 28.8071C39.3175 28.8071 40.0884 28.8228 40.8592 28.8696L40.8175 29.63ZM36.3019 29.6405C35.5311 29.6821 34.7655 29.7498 34.005 29.8436L33.9113 29.0832C34.6925 28.9894 35.4738 28.9217 36.255 28.8748L36.3019 29.6405ZM31.7811 30.1717C31.0519 30.3019 30.3175 30.4582 29.5884 30.63L29.4113 29.8853C30.1561 29.7082 30.9009 29.5519 31.6509 29.4217L31.7811 30.1717ZM27.3488 31.229C26.9634 31.3436 26.5832 31.4634 26.203 31.5884L25.9634 30.8644C26.3488 30.7342 26.7394 30.6144 27.1248 30.4946L27.3488 31.229Z" fill="black"/>
</g>
</g>
</g>
<mask id="mask18_126_1887" style="mask-type:luminance" maskUnits="userSpaceOnUse" x="29" y="40" width="285" height="155">
<path d="M29.3333 40H313.333V194.667H29.3333V40Z" fill="white"/>
</mask>
<g mask="url(#mask18_126_1887)">
<mask id="mask19_126_1887" style="mask-type:luminance" maskUnits="userSpaceOnUse" x="-80" y="-28" width="443" height="391">
<path d="M248.812 362.021L-79.7761 187.63L34.1405 -27.0105L362.734 147.38L248.812 362.021Z" fill="white"/>
</mask>
<g mask="url(#mask19_126_1887)">
<mask id="mask20_126_1887" style="mask-type:luminance" maskUnits="userSpaceOnUse" x="-80" y="-28" width="443" height="391">
<path d="M248.812 362.021L-79.7761 187.63L34.1405 -27.0105L362.734 147.38L248.812 362.021Z" fill="white"/>
</mask>
<g mask="url(#mask20_126_1887)">
<path d="M312.354 194.344C311.958 193.687 311.562 193.042 311.156 192.396L311.807 191.989C312.213 192.635 312.615 193.292 313.01 193.948L312.354 194.344ZM309.927 190.463C309.51 189.823 309.094 189.187 308.667 188.552L309.302 188.125C309.729 188.76 310.151 189.401 310.573 190.047L309.927 190.463ZM307.37 186.656C306.932 186.031 306.49 185.406 306.042 184.786L306.661 184.338C307.115 184.958 307.557 185.588 308 186.219L307.37 186.656ZM304.682 182.932C304.229 182.323 303.766 181.713 303.302 181.109L303.906 180.64C304.375 181.25 304.838 181.859 305.297 182.474L304.682 182.932ZM301.885 179.307C301.406 178.708 300.927 178.12 300.437 177.526L301.031 177.042C301.516 177.63 302 178.229 302.484 178.828L301.885 179.307ZM298.963 175.771C298.469 175.193 297.963 174.614 297.458 174.042L298.031 173.536C298.542 174.109 299.047 174.693 299.547 175.276L298.963 175.771ZM295.927 172.333C295.411 171.771 294.891 171.208 294.365 170.651L294.922 170.13C295.448 170.687 295.974 171.25 296.49 171.818L295.927 172.333ZM292.776 169C292.245 168.453 291.703 167.911 291.161 167.37L291.703 166.828C292.245 167.37 292.786 167.917 293.323 168.463L292.776 169ZM289.521 165.771C288.969 165.245 288.417 164.719 287.854 164.198L288.375 163.64C288.937 164.161 289.5 164.687 290.052 165.219L289.521 165.771ZM286.161 162.651C285.594 162.14 285.021 161.635 284.437 161.13L284.943 160.552C285.521 161.057 286.099 161.568 286.672 162.083L286.161 162.651ZM282.698 159.64C282.109 159.151 281.521 158.661 280.927 158.182L281.411 157.588C282.005 158.073 282.599 158.557 283.187 159.052L282.698 159.64ZM279.141 156.75C278.542 156.281 277.937 155.818 277.333 155.354L277.792 154.745C278.406 155.208 279.01 155.677 279.615 156.151L279.141 156.75ZM275.49 153.995L273.615 152.661L274.057 152.036L275.932 153.37L275.49 153.995ZM271.734 151.364L269.823 150.083L270.25 149.448L272.156 150.724L271.734 151.364ZM267.906 148.833L265.974 147.599L266.385 146.953L268.323 148.187L267.906 148.833ZM264.031 146.385L262.073 145.182L262.474 144.526L264.432 145.729L264.031 146.385ZM260.109 143.995L259.531 143.646L258.141 142.812L258.531 142.156L259.927 142.989L260.505 143.338L260.109 143.995ZM256.167 141.64L254.187 140.469L254.578 139.812L256.557 140.979L256.167 141.64ZM252.213 139.302L250.234 138.135L250.62 137.474L252.599 138.64L252.213 139.302ZM248.255 136.963L246.276 135.797L246.667 135.135L248.646 136.307L248.255 136.963ZM244.297 134.63L242.318 133.458L242.708 132.802L244.687 133.969L244.297 134.63ZM240.338 132.292L238.359 131.125L238.75 130.463L240.729 131.63L240.338 132.292ZM236.38 129.958L234.406 128.786L234.792 128.13L236.771 129.297L236.38 129.958ZM232.427 127.62L230.448 126.453L230.838 125.792L232.812 126.958L232.427 127.62ZM228.469 125.281L226.49 124.114L226.88 123.458L228.859 124.625L228.469 125.281ZM224.51 122.948L222.531 121.781L222.922 121.12L224.901 122.286L224.51 122.948ZM220.552 120.609L218.573 119.443L218.963 118.781L220.943 119.953L220.552 120.609ZM216.599 118.276L214.62 117.109L215.005 116.448L216.984 117.614L216.599 118.276ZM212.641 115.937L210.661 114.771L211.052 114.109L213.031 115.281L212.641 115.937ZM208.682 113.604L207.703 113.026L206.703 112.432L207.094 111.776L208.094 112.364L209.073 112.943L208.682 113.604ZM204.724 111.265L202.745 110.099L203.135 109.437L205.115 110.604L204.724 111.265ZM200.766 108.932L198.786 107.765L199.177 107.104L201.156 108.271L200.766 108.932ZM196.807 106.604L194.823 105.443L195.208 104.781L197.193 105.943L196.807 106.604ZM192.838 104.286L190.854 103.13L191.24 102.469L193.224 103.625L192.838 104.286ZM188.87 101.979L186.875 100.828L187.26 100.167L189.25 101.312L188.87 101.979ZM184.885 99.6873L182.891 98.5467L183.271 97.88L185.266 99.0207L184.885 99.6873ZM180.891 97.4113L178.891 96.2863L179.266 95.6144L181.271 96.7446L180.891 97.4113ZM176.891 95.1613L174.88 94.0467L175.255 93.3748L177.26 94.4946L176.891 95.1613ZM172.875 92.9373L170.859 91.8332L171.224 91.1613L173.24 92.2655L172.875 92.9373ZM168.838 90.7394L168.427 90.5155L166.818 89.6509L167.182 88.979L168.786 89.8384L169.203 90.0623L168.838 90.7394ZM164.792 88.578L162.76 87.505L163.12 86.828L165.151 87.9009L164.792 88.578ZM160.729 86.4478L158.687 85.3957L159.036 84.7134L161.078 85.7655L160.729 86.4478ZM156.646 84.3488L154.594 83.3123L154.937 82.63L156.99 83.6665L156.646 84.3488ZM152.542 82.2811L150.484 81.2603L150.823 80.5728L152.88 81.5988L152.542 82.2811ZM148.422 80.2498L146.354 79.2446L146.693 78.5519L148.755 79.5571L148.422 80.2498ZM144.286 78.2446L142.208 77.255L142.542 76.5623L144.615 77.5519L144.286 78.2446ZM140.135 76.2759L138.052 75.3019L138.375 74.6092L140.458 75.5832L140.135 76.2759ZM135.969 74.3384L135.323 74.0415L133.88 73.3853L134.198 72.6873L135.641 73.3488L136.286 73.6457L135.969 74.3384ZM131.792 72.4373L129.693 71.4998L130.005 70.8019L132.104 71.7394L131.792 72.4373ZM127.594 70.5675L125.49 69.6457L125.797 68.9478L127.901 69.8696L127.594 70.5675ZM123.385 68.7342L121.271 67.828L121.573 67.1248L123.687 68.0311L123.385 68.7342ZM119.161 66.9321L117.042 66.0415L117.338 65.3332L119.458 66.2238L119.161 66.9321ZM114.922 65.1613L112.797 64.2863L113.083 63.578L115.213 64.453L114.922 65.1613ZM110.667 63.4269L108.536 62.5675L108.818 61.8592L110.953 62.7134L110.667 63.4269ZM106.401 61.7238L105.12 61.2186L104.26 60.8853L104.542 60.1717L105.401 60.5103L106.682 61.0103L106.401 61.7238ZM102.12 60.0571L99.9739 59.2342L100.25 58.5155L102.396 59.3384L102.12 60.0571ZM97.828 58.4217L95.677 57.6144L95.9426 56.8957L98.0937 57.703L97.828 58.4217ZM93.5208 56.8228L91.3645 56.0311L91.6249 55.3123L93.7864 56.0988L93.5208 56.8228ZM89.203 55.255L87.0416 54.4842L87.2968 53.7603L89.4635 54.5311L89.203 55.255ZM84.8749 53.7238L82.7083 52.9686L82.9583 52.2446L85.1301 52.9998L84.8749 53.7238ZM80.5312 52.2238L78.3541 51.4894L78.5989 50.7655L80.7812 51.4998L80.5312 52.2238ZM76.177 50.7603L73.9947 50.0415L74.2343 49.3175L76.4166 50.0363L76.177 50.7603ZM71.8072 49.3332L70.2395 48.828L69.6197 48.63L69.8541 47.9009L70.4739 48.0988L72.0416 48.604L71.8072 49.3332ZM67.4322 47.9373L66.453 47.63L65.2395 47.255L65.4687 46.5259L66.6822 46.9009L67.6614 47.2082L67.4322 47.9373ZM63.0468 46.578L60.8489 45.9113L61.0676 45.1821L63.2708 45.8488L63.0468 46.578ZM58.651 45.255L56.953 44.755L56.4478 44.6092L56.6614 43.8748L57.1666 44.0207L58.8645 44.5207L58.651 45.255ZM54.2447 43.9686L52.8853 43.578L52.0468 43.3436L52.2551 42.604L53.0989 42.8436L54.4583 43.2342L54.2447 43.9686ZM49.8437 42.7863C49.078 42.604 48.3333 42.4478 47.5989 42.3071L47.7395 41.5519C48.4843 41.6978 49.2447 41.8592 50.0155 42.0363L49.8437 42.7863ZM45.3645 41.9321C44.6041 41.8228 43.8489 41.7342 43.1041 41.6717L43.1718 40.9061C43.9322 40.9738 44.6978 41.0623 45.4739 41.1769L45.3645 41.9321ZM40.8228 41.5311C40.0676 41.505 39.3176 41.505 38.578 41.5207L38.5572 40.755C39.3124 40.7394 40.078 40.7394 40.8489 40.7655L40.8228 41.5311ZM36.2864 41.6561C35.5364 41.7186 34.7864 41.8071 34.0416 41.9217L33.927 41.1613C34.6874 41.0467 35.453 40.9582 36.2187 40.8905L36.2864 41.6561ZM31.8385 42.3228C31.0833 42.479 30.3333 42.6613 29.5833 42.8696L29.3801 42.1353C30.1458 41.9217 30.9114 41.7342 31.677 41.5728L31.8385 42.3228Z" fill="black"/>
</g>
</g>
</g>
<mask id="mask21_126_1887" style="mask-type:luminance" maskUnits="userSpaceOnUse" x="30" y="52" width="273" height="148">
<path d="M30.6667 52H302.667V200H30.6667V52Z" fill="white"/>
</mask>
<g mask="url(#mask21_126_1887)">
<mask id="mask22_126_1887" style="mask-type:luminance" maskUnits="userSpaceOnUse" x="-80" y="-28" width="443" height="391">
<path d="M248.813 362.021L-79.7759 187.63L34.1408 -27.0105L362.735 147.38L248.813 362.021Z" fill="white"/>
</mask>
<g mask="url(#mask22_126_1887)">
<mask id="mask23_126_1887" style="mask-type:luminance" maskUnits="userSpaceOnUse" x="-80" y="-28" width="443" height="391">
<path d="M248.813 362.021L-79.7759 187.63L34.1408 -27.0105L362.735 147.38L248.813 362.021Z" fill="white"/>
</mask>
<g mask="url(#mask23_126_1887)">
<path d="M301.75 198.88C301.344 198.234 300.933 197.594 300.516 196.953L301.162 196.536C301.578 197.177 301.99 197.823 302.396 198.474L301.75 198.88ZM299.25 195.047C298.823 194.411 298.391 193.786 297.953 193.161L298.584 192.719C299.021 193.349 299.459 193.979 299.886 194.62L299.25 195.047ZM296.62 191.292C296.172 190.672 295.719 190.057 295.255 189.443L295.87 188.984C296.334 189.599 296.792 190.219 297.24 190.838L296.62 191.292ZM293.865 187.625C293.396 187.021 292.922 186.422 292.443 185.828L293.037 185.349C293.521 185.943 293.995 186.547 294.469 187.151L293.865 187.625ZM290.985 184.057C290.495 183.469 290 182.885 289.505 182.307L290.084 181.807C290.584 182.39 291.084 182.974 291.573 183.568L290.985 184.057ZM287.99 180.583C287.479 180.015 286.964 179.448 286.448 178.89L287.011 178.37C287.532 178.932 288.047 179.5 288.563 180.073L287.99 180.583ZM284.875 177.219C284.349 176.667 283.813 176.114 283.276 175.573L283.823 175.036C284.36 175.583 284.896 176.135 285.427 176.687L284.875 177.219ZM281.651 173.958C281.104 173.422 280.552 172.896 280 172.37L280.526 171.812C281.084 172.338 281.636 172.875 282.188 173.411L281.651 173.958ZM278.318 170.812C277.755 170.297 277.188 169.786 276.615 169.276L277.12 168.703C277.698 169.213 278.271 169.729 278.839 170.245L278.318 170.812ZM274.88 167.776C274.297 167.276 273.709 166.786 273.12 166.302L273.61 165.708C274.203 166.198 274.792 166.693 275.375 167.193L274.88 167.776ZM271.339 164.859C270.745 164.38 270.141 163.911 269.537 163.448L270.005 162.838C270.615 163.307 271.219 163.781 271.818 164.26L271.339 164.859ZM267.719 162.073L265.854 160.724L266.302 160.104L268.167 161.453L267.719 162.073ZM263.974 159.417L262.073 158.125L262.5 157.495L264.407 158.781L263.974 159.417ZM260.162 156.87L258.229 155.63L258.641 154.984L260.573 156.224L260.162 156.87ZM256.287 154.417L255.308 153.812L254.334 153.213L254.729 152.557L255.714 153.161L256.688 153.765L256.287 154.417ZM252.37 152.026L250.396 150.844L250.792 150.187L252.761 151.364L252.37 152.026ZM248.422 149.677L246.443 148.505L246.834 147.849L248.813 149.015L248.422 149.677ZM244.464 147.344L242.485 146.177L242.87 145.515L244.849 146.682L244.464 147.344ZM240.5 145.015L238.521 143.849L238.912 143.187L240.891 144.354L240.5 145.015ZM236.542 142.682L234.563 141.521L234.948 140.859L236.927 142.021L236.542 142.682ZM232.578 140.354L230.599 139.187L230.99 138.531L232.969 139.693L232.578 140.354ZM228.62 138.026L226.641 136.859L227.026 136.198L229.005 137.364L228.62 138.026ZM224.656 135.693L222.677 134.531L223.068 133.87L225.047 135.036L224.656 135.693ZM220.698 133.364L218.719 132.198L219.104 131.542L221.084 132.703L220.698 133.364ZM216.735 131.036L214.755 129.87L215.146 129.208L217.125 130.375L216.735 131.036ZM212.776 128.703L210.797 127.542L211.183 126.88L213.162 128.047L212.776 128.703ZM208.813 126.375L206.834 125.208L207.224 124.552L209.203 125.713L208.813 126.375ZM204.854 124.047L202.875 122.88L203.261 122.219L205.24 123.385L204.854 124.047ZM200.891 121.713L198.912 120.552L199.302 119.89L201.281 121.057L200.891 121.713ZM196.933 119.385L194.948 118.224L195.339 117.562L197.318 118.729L196.933 119.385ZM192.969 117.062L190.985 115.901L191.37 115.239L193.354 116.401L192.969 117.062ZM189 114.745L187.235 113.719L187.011 113.594L187.396 112.927L187.62 113.057L189.386 114.083L189 114.745ZM185.026 112.443L183.037 111.292L183.417 110.63L185.406 111.776L185.026 112.443ZM181.042 110.151L179.844 109.463L179.047 109.01L179.427 108.344L180.224 108.802L181.422 109.484L181.042 110.151ZM177.052 107.875L175.047 106.75L175.427 106.083L177.427 107.208L177.052 107.875ZM173.047 105.625L171.146 104.568L171.042 104.51L171.412 103.838L171.516 103.896L173.417 104.958L173.047 105.625ZM169.031 103.401L167.558 102.594L167.016 102.297L167.38 101.625L167.922 101.922L169.396 102.729L169.031 103.401ZM164.995 101.203L164.349 100.854L162.974 100.114L163.339 99.4425L164.714 100.182L165.36 100.531L164.995 101.203ZM160.948 99.0415L158.917 97.9686L159.276 97.2915L161.308 98.3644L160.948 99.0415ZM156.886 96.9113L154.844 95.854L155.193 95.1769L157.235 96.229L156.886 96.9113ZM152.802 94.8123L151.167 93.9842L150.75 93.7707L151.094 93.0884L151.516 93.3019L153.146 94.13L152.802 94.8123ZM148.698 92.7446L146.641 91.7238L146.979 91.0363L149.037 92.0571L148.698 92.7446ZM144.578 90.7082L143.589 90.229L142.511 89.703L142.844 89.0155L143.927 89.5415L144.912 90.0207L144.578 90.7082ZM140.443 88.7082L138.365 87.7186L138.693 87.0259L140.771 88.0155L140.443 88.7082ZM136.292 86.7394L134.209 85.7707L134.531 85.0728L136.615 86.0467L136.292 86.7394ZM132.125 84.8071L130.037 83.854L130.354 83.1561L132.443 84.1092L132.125 84.8071ZM127.943 82.9061L127.802 82.8436L125.849 81.9686L126.162 81.2707L128.115 82.1457L128.261 82.2082L127.943 82.9061ZM123.75 81.0415L121.646 80.1196L121.948 79.4165L124.058 80.3384L123.75 81.0415ZM119.537 79.2082L117.422 78.3019L117.724 77.5988L119.839 78.4998L119.537 79.2082ZM115.313 77.4061L113.193 76.5207L113.485 75.8123L115.604 76.6978L115.313 77.4061ZM111.068 75.6405L108.943 74.7707L109.235 74.0623L111.36 74.9321L111.068 75.6405ZM106.818 73.9061L104.683 73.0571L104.964 72.3436L107.099 73.1978L106.818 73.9061ZM102.547 72.2082L100.406 71.3748L100.688 70.6613L102.828 71.4998L102.547 72.2082ZM98.2659 70.5467L96.12 69.729L96.3909 69.0103L98.5367 69.8332L98.2659 70.5467ZM93.969 68.9165L91.818 68.1144L92.0836 67.4009L94.2398 68.203L93.969 68.9165ZM89.6669 67.3228L87.5055 66.5415L87.7659 65.8175L89.9273 66.604L89.6669 67.3228ZM85.344 65.7655L83.1825 64.9998L83.4377 64.2759L85.5992 65.0415L85.344 65.7655ZM81.0107 64.2394L78.8388 63.4894L79.0888 62.7655L81.2607 63.5155L81.0107 64.2394ZM76.6669 62.7498L74.4846 62.0155L74.7294 61.2915L76.9117 62.0207L76.6669 62.7498ZM72.3075 61.2915L70.1252 60.578L70.3596 59.8488L72.5471 60.5623L72.3075 61.2915ZM67.9377 59.8696L65.7502 59.1717L65.9846 58.4425L68.1721 59.1405L67.9377 59.8696ZM63.5627 58.4842L61.37 57.8071L61.594 57.0728L63.7867 57.755L63.5627 58.4842ZM59.1721 57.1353L56.9742 56.4738L57.1982 55.7394L59.3961 56.4009L59.1721 57.1353ZM54.7763 55.8228L54.6044 55.7707C53.9117 55.5675 53.2398 55.38 52.5888 55.2082L52.7815 54.4686C53.443 54.6405 54.1252 54.8332 54.8232 55.0363L54.995 55.0884L54.7763 55.8228ZM50.3648 54.6717C49.6044 54.5103 48.8596 54.3644 48.1305 54.2394L48.2607 53.4842C49.0002 53.6092 49.7607 53.7603 50.5263 53.9269L50.3648 54.6717ZM45.8805 53.9165C45.1096 53.8228 44.3492 53.755 43.594 53.7134L43.6409 52.9478C44.4117 52.9946 45.1877 53.0623 45.969 53.1561L45.8805 53.9165ZM41.3544 53.6509C40.5888 53.6509 39.8284 53.6769 39.068 53.7238L39.0211 52.9634C39.7919 52.9113 40.5732 52.8853 41.3544 52.8853V53.6509ZM36.818 53.9478C36.0784 54.0467 35.3388 54.1665 34.6044 54.3123L34.4534 53.5571C35.2086 53.4113 35.9638 53.2863 36.719 53.1873L36.818 53.9478ZM32.344 54.8332C32.1409 54.8853 31.9377 54.9373 31.7398 54.9946L31.5315 54.2603C31.7398 54.203 31.943 54.1457 32.1461 54.0936L32.344 54.8332Z" fill="black"/>
</g>
</g>
</g>
<mask id="mask24_126_1887" style="mask-type:luminance" maskUnits="userSpaceOnUse" x="34" y="62" width="258" height="141">
<path d="M34.6667 62.6667H292V202.667H34.6667V62.6667Z" fill="white"/>
</mask>
<g mask="url(#mask24_126_1887)">
<mask id="mask25_126_1887" style="mask-type:luminance" maskUnits="userSpaceOnUse" x="-80" y="-28" width="443" height="391">
<path d="M248.813 362.021L-79.7759 187.63L34.1408 -27.0103L362.735 147.38L248.813 362.021Z" fill="white"/>
</mask>
<g mask="url(#mask25_126_1887)">
<mask id="mask26_126_1887" style="mask-type:luminance" maskUnits="userSpaceOnUse" x="-80" y="-28" width="443" height="391">
<path d="M248.813 362.021L-79.7759 187.63L34.1408 -27.0103L362.735 147.38L248.813 362.021Z" fill="white"/>
</mask>
<g mask="url(#mask26_126_1887)">
<path d="M290.391 202.61C289.995 201.959 289.594 201.313 289.188 200.667L289.839 200.261C290.245 200.906 290.646 201.557 291.047 202.214L290.391 202.61ZM287.953 198.74C287.531 198.104 287.11 197.469 286.677 196.839L287.313 196.406C287.745 197.042 288.172 197.677 288.594 198.323L287.953 198.74ZM285.37 194.953C284.927 194.328 284.479 193.709 284.026 193.089L284.641 192.636C285.099 193.255 285.547 193.88 285.995 194.511L285.37 194.953ZM282.651 191.261C282.182 190.651 281.714 190.052 281.24 189.453L281.839 188.974C282.318 189.578 282.792 190.182 283.255 190.792L282.651 191.261ZM279.797 187.672C279.313 187.084 278.823 186.495 278.323 185.917L278.906 185.417C279.406 186 279.901 186.589 280.391 187.182L279.797 187.672ZM276.818 184.188C276.313 183.615 275.797 183.047 275.281 182.485L275.844 181.969C276.365 182.531 276.88 183.104 277.391 183.677L276.818 184.188ZM273.714 180.813C273.182 180.261 272.651 179.714 272.115 179.172L272.656 178.63C273.198 179.177 273.735 179.729 274.266 180.281L273.714 180.813ZM270.485 177.557C269.938 177.021 269.386 176.495 268.834 175.974L269.354 175.417C269.917 175.943 270.469 176.469 271.021 177.005L270.485 177.557ZM267.146 174.422C266.578 173.906 266.005 173.396 265.427 172.896L265.932 172.318C266.516 172.823 267.089 173.333 267.662 173.854L267.146 174.422ZM263.688 171.401C263.104 170.912 262.516 170.422 261.922 169.943L262.401 169.349C263 169.833 263.594 170.323 264.182 170.818L263.688 171.401ZM260.13 168.521C259.599 168.104 259.063 167.693 258.526 167.287L258.318 167.13L258.771 166.516L258.985 166.677C259.526 167.083 260.068 167.5 260.599 167.917L260.13 168.521ZM256.464 165.781L254.584 164.458L255.021 163.833L256.906 165.156L256.464 165.781ZM252.688 163.177L250.771 161.912L251.193 161.271L253.11 162.537L252.688 163.177ZM248.849 160.677L246.901 159.458L247.307 158.807L249.255 160.026L248.849 160.677ZM244.948 158.255L242.979 157.068L243.375 156.412L245.344 157.599L244.948 158.255ZM241.011 155.891L239.037 154.719L239.427 154.057L241.401 155.229L241.011 155.891ZM237.057 153.552L235.084 152.38L235.469 151.724L237.448 152.891L237.057 153.552ZM233.104 151.214L231.125 150.047L231.511 149.386L233.49 150.552L233.104 151.214ZM229.146 148.88L227.167 147.708L227.557 147.052L229.537 148.219L229.146 148.88ZM225.188 146.542L223.209 145.375L223.599 144.714L225.578 145.886L225.188 146.542ZM221.229 144.208L219.25 143.037L219.641 142.38L221.62 143.547L221.229 144.208ZM217.271 141.87L215.292 140.703L215.682 140.042L217.662 141.214L217.271 141.87ZM213.318 139.537L211.339 138.365L211.724 137.708L213.703 138.875L213.318 139.537ZM209.36 137.198L207.38 136.031L207.771 135.37L209.745 136.542L209.36 137.198ZM205.401 134.865L203.422 133.693L203.813 133.037L205.792 134.203L205.401 134.865ZM201.443 132.526L199.464 131.36L199.854 130.698L201.834 131.87L201.443 132.526ZM197.485 130.193L195.839 129.219L195.505 129.021L195.896 128.365L196.229 128.563L197.875 129.531L197.485 130.193ZM193.526 127.854L191.547 126.688L191.938 126.026L193.917 127.193L193.526 127.854ZM189.568 125.521L187.589 124.354L187.974 123.698L189.959 124.86L189.568 125.521ZM185.604 123.193L183.62 122.031L184.011 121.37L185.99 122.531L185.604 123.193ZM181.636 120.875L179.651 119.724L180.037 119.063L182.021 120.214L181.636 120.875ZM177.662 118.573L175.672 117.432L176.052 116.766L178.042 117.912L177.662 118.573ZM173.677 116.292L173.021 115.922L171.677 115.156L172.057 114.49L173.401 115.255L174.057 115.625L173.677 116.292ZM169.677 114.031L168.516 113.38L167.677 112.912L168.047 112.24L168.891 112.708L170.052 113.365L169.677 114.031ZM165.667 111.797L163.656 110.688L164.026 110.016L166.037 111.125L165.667 111.797ZM161.641 109.589L160.344 108.891L159.62 108.5L159.985 107.828L160.708 108.219L162.005 108.917L161.641 109.589ZM157.594 107.422L155.568 106.349L155.922 105.672L157.953 106.745L157.594 107.422ZM153.531 105.292L151.49 104.235L151.844 103.552L153.886 104.61L153.531 105.292ZM149.448 103.193L147.396 102.156L147.745 101.469L149.797 102.505L149.448 103.193ZM145.344 101.13L143.287 100.11L143.625 99.422L145.688 100.443L145.344 101.13ZM141.224 99.0991L139.151 98.0991L139.485 97.4116L141.557 98.4116L141.224 99.0991ZM137.083 97.1095L135 96.1252L135.328 95.4325L137.406 96.4168L137.083 97.1095ZM132.927 95.1512L130.839 94.1877L131.162 93.495L133.245 94.4585L132.927 95.1512ZM128.755 93.2345L126.662 92.2866L126.974 91.5887L129.068 92.5366L128.755 93.2345ZM124.563 91.3543L122.464 90.4272L122.771 89.7241L124.875 90.6512L124.563 91.3543ZM120.36 89.5106L119.453 89.12L118.25 88.5991L118.552 87.896L119.761 88.4168L120.662 88.8075L120.36 89.5106ZM116.136 87.6981L116.083 87.6772L114.016 86.8075L114.313 86.1043L116.38 86.9741L116.432 86.995L116.136 87.6981ZM111.896 85.9272L109.771 85.0575L110.063 84.3491L112.188 85.2189L111.896 85.9272ZM107.646 84.1929L105.511 83.3387L105.797 82.6304L107.927 83.4845L107.646 84.1929ZM103.375 82.495L101.235 81.6616L101.511 80.9481L103.656 81.7814L103.375 82.495ZM99.0939 80.8387L98.5158 80.62L96.9429 80.021L97.2137 79.3075L98.7866 79.9012L99.3647 80.12L99.0939 80.8387ZM94.797 79.2137L92.6408 78.4168L92.9064 77.6981L95.0627 78.495L94.797 79.2137ZM90.4845 77.6304L88.3231 76.8543L88.5835 76.1304L90.745 76.9116L90.4845 77.6304ZM86.1616 76.0835L83.995 75.3283L84.245 74.6043L86.4168 75.3647L86.1616 76.0835ZM81.8231 74.5783L79.646 73.8387L79.896 73.1095L82.0731 73.8543L81.8231 74.5783ZM77.4689 73.1043L75.2866 72.3856L75.5262 71.6564L77.7085 72.3804L77.4689 73.1043ZM73.1043 71.672L70.9168 70.9689L71.1512 70.2397L73.3387 70.9429L73.1043 71.672ZM68.7293 70.2762L66.5366 69.5939L66.7606 68.8647L68.9585 69.547L68.7293 70.2762ZM64.3439 68.922L62.1408 68.2606L62.3647 67.5262L64.5627 68.1877L64.3439 68.922ZM59.9429 67.6043L57.7397 66.9637L57.9533 66.2241L60.1616 66.87L59.9429 67.6043ZM55.5418 66.3283C54.7866 66.12 54.0575 65.9272 53.3439 65.7606L53.521 65.0158C54.2397 65.1877 54.9845 65.3804 55.7502 65.5939L55.5418 66.3283ZM51.0991 65.2762C50.3439 65.1356 49.6043 65.0106 48.87 64.9116L48.9741 64.1564C49.7189 64.2554 50.4741 64.3804 51.245 64.5262L51.0991 65.2762ZM46.5991 64.672C45.8387 64.6147 45.0887 64.5783 44.3387 64.5679L44.3491 63.8022C45.1147 63.8127 45.8804 63.8491 46.6564 63.9064L46.5991 64.672ZM42.0783 64.6147C41.3075 64.6564 40.547 64.7241 39.7866 64.8179L39.6929 64.0575C40.4689 63.9637 41.2502 63.8908 42.0366 63.8491L42.0783 64.6147ZM37.5939 65.1616C36.8491 65.3022 36.0991 65.4741 35.3543 65.6668L35.1616 64.9272C35.922 64.7293 36.6877 64.5575 37.4533 64.4116L37.5939 65.1616Z" fill="black"/>
</g>
</g>
</g>
<mask id="mask27_126_1887" style="mask-type:luminance" maskUnits="userSpaceOnUse" x="34" y="73" width="248" height="134">
<path d="M34.6667 73.3333H281.333V206.667H34.6667V73.3333Z" fill="white"/>
</mask>
<g mask="url(#mask27_126_1887)">
<mask id="mask28_126_1887" style="mask-type:luminance" maskUnits="userSpaceOnUse" x="-80" y="-28" width="443" height="391">
<path d="M248.813 362.021L-79.7759 187.63L34.1408 -27.0105L362.735 147.38L248.813 362.021Z" fill="white"/>
</mask>
<g mask="url(#mask28_126_1887)">
<mask id="mask29_126_1887" style="mask-type:luminance" maskUnits="userSpaceOnUse" x="-80" y="-28" width="443" height="391">
<path d="M248.813 362.021L-79.7759 187.63L34.1408 -27.0105L362.735 147.38L248.813 362.021Z" fill="white"/>
</mask>
<g mask="url(#mask29_126_1887)">
<path d="M280.136 206.562C279.709 205.927 279.276 205.302 278.844 204.677L279.469 204.24C279.906 204.865 280.344 205.495 280.771 206.135L280.136 206.562ZM277.511 202.812C277.063 202.193 276.61 201.578 276.151 200.969L276.761 200.51C277.224 201.12 277.682 201.74 278.13 202.359L277.511 202.812ZM274.755 199.151C274.281 198.547 273.807 197.948 273.323 197.354L273.917 196.87C274.401 197.469 274.88 198.073 275.354 198.677L274.755 199.151ZM271.865 195.589C271.375 195 270.88 194.422 270.375 193.844L270.953 193.344C271.459 193.922 271.959 194.505 272.453 195.094L271.865 195.589ZM268.854 192.13C268.344 191.562 267.828 191 267.307 190.443L267.865 189.917C268.391 190.479 268.912 191.047 269.427 191.615L268.854 192.13ZM265.724 188.781C265.193 188.229 264.656 187.687 264.115 187.146L264.656 186.604C265.198 187.146 265.74 187.698 266.276 188.25L265.724 188.781ZM262.479 185.542C261.927 185.016 261.37 184.49 260.813 183.969L261.334 183.406C261.896 183.932 262.453 184.458 263.011 184.99L262.479 185.542ZM259.12 182.427C258.552 181.917 257.979 181.411 257.401 180.911L257.901 180.333C258.485 180.833 259.057 181.344 259.63 181.854L259.12 182.427ZM255.651 179.427C255.063 178.937 254.469 178.453 253.875 177.974L254.354 177.375C254.953 177.859 255.552 178.344 256.141 178.839L255.651 179.427ZM252.078 176.552C251.474 176.083 250.87 175.62 250.255 175.161L250.719 174.552C251.328 175.01 251.943 175.474 252.547 175.948L252.078 176.552ZM248.417 173.812L246.537 172.49L246.974 171.865L248.86 173.187L248.417 173.812ZM244.646 171.203L242.724 169.943L243.146 169.302L245.068 170.562L244.646 171.203ZM240.797 168.708L240.5 168.516L238.849 167.49L239.255 166.839L240.906 167.87L241.203 168.057L240.797 168.708ZM236.896 166.297L234.927 165.109L235.323 164.453L237.292 165.641L236.896 166.297ZM232.953 163.937L230.974 162.776L231.36 162.115L233.344 163.281L232.953 163.937ZM228.99 161.615L228.339 161.234L227.005 160.458L227.391 159.797L228.724 160.573L229.375 160.953L228.99 161.615ZM225.021 159.297L223.037 158.141L223.427 157.479L225.412 158.635L225.021 159.297ZM221.052 156.979L219.073 155.823L219.459 155.161L221.443 156.318L221.052 156.979ZM217.089 154.661L215.104 153.505L215.49 152.844L217.474 154L217.089 154.661ZM213.12 152.344L211.136 151.187L211.521 150.526L213.505 151.682L213.12 152.344ZM209.151 150.026L207.167 148.87L207.552 148.208L209.537 149.365L209.151 150.026ZM205.182 147.708L203.198 146.552L203.584 145.891L205.568 147.047L205.182 147.708ZM201.214 145.396L199.229 144.234L199.615 143.573L201.599 144.734L201.214 145.396ZM197.245 143.078L195.261 141.917L195.646 141.255L197.63 142.417L197.245 143.078ZM193.276 140.76L191.292 139.599L191.677 138.937L193.662 140.099L193.276 140.76ZM189.307 138.443L188.62 138.042L187.328 137.286L187.714 136.625L189.011 137.38L189.698 137.781L189.307 138.443ZM185.349 136.13L183.365 134.974L183.75 134.312L185.735 135.464L185.349 136.13ZM181.38 133.818L179.396 132.661L179.776 132L181.766 133.156L181.38 133.818ZM177.406 131.51L175.417 130.359L175.802 129.698L177.792 130.849L177.406 131.51ZM173.427 129.214L171.432 128.073L171.813 127.406L173.807 128.552L173.427 129.214ZM169.432 126.937L167.432 125.802L167.813 125.135L169.813 126.271L169.432 126.937ZM165.432 124.672L163.427 123.547L163.802 122.88L165.807 124.005L165.432 124.672ZM161.422 122.432L159.406 121.323L159.776 120.651L161.792 121.76L161.422 122.432ZM157.391 120.219L155.375 119.125L155.74 118.453L157.761 119.547L157.391 120.219ZM153.354 118.042L151.323 116.964L151.682 116.286L153.714 117.365L153.354 118.042ZM149.297 115.896L147.261 114.833L147.61 114.156L149.651 115.214L149.297 115.896ZM145.219 113.781L143.172 112.74L143.521 112.057L145.568 113.099L145.219 113.781ZM141.125 111.703L139.068 110.672L139.412 109.99L141.469 111.016L141.125 111.703ZM137.011 109.656L134.948 108.646L135.287 107.958L137.349 108.969L137.011 109.656ZM132.88 107.641L132.412 107.417L130.807 106.646L131.141 105.958L132.745 106.724L133.214 106.953L132.88 107.641ZM128.735 105.661L126.656 104.687L126.985 103.995L129.063 104.969L128.735 105.661ZM124.578 103.719L122.49 102.76L122.807 102.062L124.896 103.026L124.578 103.719ZM120.401 101.807L118.302 100.865L118.62 100.167L120.714 101.109L120.401 101.807ZM116.208 99.9323L114.104 99.0104L114.412 98.3073L116.516 99.2343L116.208 99.9323ZM112 98.0937L109.891 97.1823L110.193 96.4791L112.302 97.3906L112 98.0937ZM107.776 96.2864L106.276 95.651L105.656 95.3958L105.953 94.6875L106.573 94.9479L108.073 95.5781L107.776 96.2864ZM103.537 94.5156L101.412 93.6406L101.703 92.9323L103.828 93.8073L103.537 94.5156ZM99.2866 92.776L97.62 92.1041L97.1564 91.9218L97.4377 91.2083L97.9064 91.3958L99.5731 92.0677L99.2866 92.776ZM95.021 91.0729L92.8804 90.2343L93.1616 89.5208L95.297 90.3593L95.021 91.0729ZM90.7397 89.4062L88.5939 88.5885L88.87 87.8698L91.0158 88.6927L90.7397 89.4062ZM86.4481 87.776L84.297 86.9739L84.5627 86.2552L86.7137 87.0573L86.4481 87.776ZM82.1408 86.1823L79.9845 85.3958L80.245 84.6771L82.4064 85.4583L82.1408 86.1823ZM77.8231 84.6198L75.6564 83.8489L75.9116 83.1302L78.0783 83.8958L77.8231 84.6198ZM73.4897 83.0937L71.3127 82.3437L71.5627 81.6198L73.7397 82.3698L73.4897 83.0937ZM69.1408 81.6041L66.9637 80.8698L67.2085 80.1458L69.3856 80.875L69.1408 81.6041ZM64.7866 80.151L63.8127 79.8281L62.6043 79.4375L62.8387 78.7083L64.047 79.0989L65.0262 79.4218L64.7866 80.151ZM60.4168 78.7291L58.2293 78.0364L58.4637 77.3073L60.6512 78L60.4168 78.7291ZM56.0418 77.3489L55.1981 77.0885C54.745 76.9479 54.297 76.8125 53.8595 76.6875L54.0679 75.9531C54.5158 76.0781 54.9637 76.2135 55.4272 76.3593L56.271 76.6198L56.0418 77.3489ZM51.6512 76.1041C50.896 75.9166 50.1564 75.7552 49.4272 75.6146L49.5731 74.8646C50.3127 75.0052 51.0627 75.1718 51.8335 75.3593L51.6512 76.1041ZM47.1825 75.2448C46.422 75.1406 45.6616 75.0625 44.9168 75.0052L44.9741 74.2448C45.7345 74.302 46.5054 74.3802 47.2866 74.4896L47.1825 75.2448ZM42.6668 74.9114C41.8908 74.9062 41.1252 74.9271 40.3647 74.9687L40.3179 74.2083C41.0991 74.1614 41.8804 74.1406 42.672 74.1458L42.6668 74.9114ZM38.1512 75.1823C37.396 75.2812 36.646 75.4062 35.896 75.5625L35.7397 74.8073C36.5106 74.651 37.2762 74.526 38.047 74.4218L38.1512 75.1823Z" fill="black"/>
</g>
</g>
</g>
<mask id="mask30_126_1887" style="mask-type:luminance" maskUnits="userSpaceOnUse" x="2" y="202" width="190" height="102">
<path d="M2.66675 202.667H192V304H2.66675V202.667Z" fill="white"/>
</mask>
<g mask="url(#mask30_126_1887)">
<mask id="mask31_126_1887" style="mask-type:luminance" maskUnits="userSpaceOnUse" x="-80" y="-28" width="443" height="391">
<path d="M248.813 362.021L-79.7759 187.63L34.1408 -27.0103L362.735 147.38L248.813 362.021Z" fill="white"/>
</mask>
<g mask="url(#mask31_126_1887)">
<mask id="mask32_126_1887" style="mask-type:luminance" maskUnits="userSpaceOnUse" x="-80" y="-28" width="443" height="391">
<path d="M248.813 362.021L-79.7759 187.63L34.1408 -27.0103L362.735 147.38L248.813 362.021Z" fill="white"/>
</mask>
<g mask="url(#mask32_126_1887)">
<path d="M190.625 303.287C190.073 302.792 189.495 302.302 188.891 301.813L189.37 301.219C189.99 301.714 190.578 302.214 191.136 302.719L190.625 303.287ZM187.083 300.422C186.49 299.99 185.87 299.547 185.214 299.104L185.646 298.469C186.307 298.922 186.938 299.365 187.537 299.808L187.083 300.422ZM183.302 297.844C182.698 297.459 182.052 297.052 181.359 296.63L181.761 295.979C182.453 296.401 183.104 296.808 183.714 297.198L183.302 297.844ZM179.396 295.453L177.886 294.568L177.412 294.292L177.802 293.63L178.271 293.912L179.781 294.792L179.396 295.453ZM175.438 293.12L173.458 291.948L173.849 291.287L175.828 292.459L175.438 293.12ZM171.484 290.776L169.505 289.604L169.896 288.943L171.875 290.115L171.484 290.776ZM167.531 288.433L165.552 287.261L165.943 286.604L167.922 287.771L167.531 288.433ZM163.578 286.089L161.599 284.917L161.99 284.261L163.969 285.433L163.578 286.089ZM159.625 283.745L157.646 282.573L158.037 281.917L160.011 283.089L159.625 283.745ZM155.667 281.401L153.693 280.235L154.083 279.573L156.057 280.745L155.667 281.401ZM151.714 279.063L149.74 277.891L150.13 277.229L152.104 278.401L151.714 279.063ZM147.761 276.719L145.787 275.547L146.177 274.886L148.151 276.058L147.761 276.719ZM143.807 274.375L141.833 273.203L142.224 272.547L144.198 273.714L143.807 274.375ZM139.854 272.031L137.88 270.86L138.271 270.203L140.245 271.375L139.854 272.031ZM135.901 269.688L133.927 268.516L134.318 267.86L136.292 269.031L135.901 269.688ZM131.948 267.344L129.974 266.177L130.365 265.516L132.339 266.688L131.948 267.344ZM127.995 265.005L126.021 263.834L126.412 263.172L128.386 264.344L127.995 265.005ZM124.042 262.662L122.068 261.49L122.458 260.828L124.432 262L124.042 262.662ZM120.089 260.318L118.115 259.146L118.505 258.49L120.479 259.662L120.089 260.318ZM116.136 257.974L114.162 256.802L114.552 256.146L116.526 257.318L116.136 257.974ZM112.182 255.646C111.537 255.281 110.87 254.906 110.182 254.531L110.547 253.86C111.24 254.24 111.912 254.61 112.563 254.979L112.182 255.646ZM108.162 253.459L106.12 252.406L106.469 251.729L108.511 252.776L108.162 253.459ZM104.068 251.386L102 250.38L102.333 249.693L104.401 250.698L104.068 251.386ZM99.9272 249.391L97.8543 248.401L98.1824 247.709L100.261 248.698L99.9272 249.391ZM95.7761 247.412L93.7084 246.412L94.0418 245.719L96.1095 246.719L95.7761 247.412ZM91.6355 245.396L89.5834 244.365L89.9272 243.677L91.9793 244.714L91.6355 245.396ZM87.5365 243.297L85.5157 242.203L85.8803 241.531L87.9011 242.625L87.5365 243.297ZM83.5001 241.094L82.6928 240.651L81.4845 239.99L81.8543 239.318L83.0626 239.979L83.8699 240.422L83.5001 241.094ZM79.4688 238.891L78.099 238.146L77.4532 237.797L77.8178 237.12L78.4636 237.474L79.8334 238.219L79.4688 238.891ZM75.4324 236.703L73.4063 235.615L73.7709 234.943L75.7918 236.026L75.4324 236.703ZM71.3803 234.531L69.3543 233.459L69.7136 232.781L71.7397 233.86L71.3803 234.531ZM67.323 232.386L65.2865 231.323L65.6407 230.641L67.6772 231.709L67.323 232.386ZM63.2501 230.261L61.2032 229.209L61.5574 228.526L63.599 229.578L63.2501 230.261ZM59.1615 228.162L57.1095 227.125L57.4584 226.438L59.5053 227.479L59.1615 228.162ZM55.0626 226.094L53.0053 225.068L53.3438 224.386L55.4011 225.406L55.0626 226.094ZM50.948 224.052L48.8803 223.047L49.2188 222.36L51.2813 223.365L50.948 224.052ZM46.8178 222.052L44.7449 221.063L45.073 220.37L47.1459 221.36L46.8178 222.052ZM42.6667 220.084L40.5834 219.11L40.9063 218.417L42.9897 219.391L42.6667 220.084ZM38.5001 218.151L36.4063 217.203L36.724 216.505L38.8178 217.453L38.5001 218.151ZM34.3126 216.266L32.2084 215.339L32.5209 214.636L34.6199 215.563L34.3126 216.266ZM30.1095 214.422L27.9949 213.516L28.297 212.813L30.4115 213.719L30.1095 214.422ZM25.8803 212.625L25.3855 212.417L23.7605 211.745L24.0574 211.042L25.6824 211.714L26.1772 211.922L25.8803 212.625ZM21.6407 210.88L19.5053 210.026L19.7917 209.318L21.922 210.172L21.6407 210.88ZM17.3751 209.188L15.2292 208.36L15.5053 207.646L17.6511 208.474L17.3751 209.188ZM13.0886 207.552L10.9324 206.75L11.198 206.031L13.3542 206.834L13.0886 207.552ZM8.77612 205.969L6.60946 205.203L6.86466 204.479L9.03133 205.25L8.77612 205.969ZM4.44279 204.448L2.86987 203.917L3.11466 203.188L4.68758 203.724L4.44279 204.448Z" fill="black"/>
</g>
</g>
</g>
<mask id="mask33_126_1887" style="mask-type:luminance" maskUnits="userSpaceOnUse" x="5" y="212" width="178" height="96">
<path d="M5.33325 212H182.667V308H5.33325V212Z" fill="white"/>
</mask>
<g mask="url(#mask33_126_1887)">
<mask id="mask34_126_1887" style="mask-type:luminance" maskUnits="userSpaceOnUse" x="-80" y="-28" width="443" height="391">
<path d="M248.812 362.021L-79.7761 187.63L34.1405 -27.0105L362.734 147.38L248.812 362.021Z" fill="white"/>
</mask>
<g mask="url(#mask34_126_1887)">
<mask id="mask35_126_1887" style="mask-type:luminance" maskUnits="userSpaceOnUse" x="-80" y="-28" width="443" height="391">
<path d="M248.812 362.021L-79.7761 187.63L34.1405 -27.0105L362.734 147.38L248.812 362.021Z" fill="white"/>
</mask>
<g mask="url(#mask35_126_1887)">
<path d="M181.578 307.078C181.031 306.573 180.458 306.078 179.859 305.583L180.344 304.99C180.958 305.495 181.542 306 182.099 306.516L181.578 307.078ZM178.057 304.182C177.469 303.75 176.849 303.307 176.193 302.859L176.625 302.229C177.286 302.682 177.917 303.125 178.515 303.568L178.057 304.182ZM174.286 301.604C173.682 301.219 173.036 300.818 172.338 300.396L172.734 299.74C173.437 300.167 174.088 300.573 174.698 300.958L174.286 301.604ZM170.37 299.219L169.604 298.766L168.396 298.047L168.786 297.385L169.995 298.109L170.76 298.557L170.37 299.219ZM166.422 296.87L164.448 295.693L164.838 295.036L166.812 296.214L166.422 296.87ZM162.474 294.516L160.5 293.339L160.89 292.682L162.864 293.859L162.474 294.516ZM158.526 292.161L156.552 290.984L156.943 290.328L158.917 291.505L158.526 292.161ZM154.578 289.807L152.604 288.63L153 287.974L154.974 289.151L154.578 289.807ZM150.63 287.458L148.661 286.281L149.052 285.62L151.026 286.797L150.63 287.458ZM146.687 285.104L144.713 283.927L145.104 283.271L147.078 284.443L146.687 285.104ZM142.739 282.75L140.765 281.573L141.156 280.917L143.13 282.094L142.739 282.75ZM138.792 280.396L136.818 279.219L137.208 278.563L139.182 279.74L138.792 280.396ZM134.844 278.042L132.87 276.865L133.265 276.208L135.234 277.385L134.844 278.042ZM130.896 275.688L128.922 274.516L129.318 273.854L131.292 275.031L130.896 275.688ZM126.948 273.339L124.979 272.161L125.37 271.5L127.344 272.677L126.948 273.339ZM123.005 270.984L121.031 269.807L121.422 269.151L123.396 270.323L123.005 270.984ZM119.057 268.63L117.083 267.453L117.474 266.797L119.448 267.974L119.057 268.63ZM115.109 266.276L113.135 265.099L113.526 264.443L115.5 265.62L115.109 266.276ZM111.161 263.922L109.187 262.745L109.583 262.089L111.552 263.266L111.161 263.922ZM107.213 261.594C106.573 261.229 105.901 260.865 105.213 260.49L105.573 259.818C106.271 260.193 106.943 260.563 107.594 260.927L107.213 261.594ZM103.187 259.427L101.135 258.391L101.484 257.708L103.536 258.745L103.187 259.427ZM99.078 257.38L96.9998 256.385L97.3332 255.693L99.4113 256.688L99.078 257.38ZM94.9217 255.396L92.8488 254.417L93.1717 253.724L95.2498 254.703L94.9217 255.396ZM90.7655 253.422L88.6978 252.422L89.0363 251.729L91.104 252.734L90.7655 253.422ZM86.6353 251.391L84.5936 250.339L84.9425 249.656L86.9842 250.708L86.6353 251.391ZM82.5623 249.24L82.2082 249.047L81.1196 248.448L80.5519 248.13L80.9217 247.458L81.4894 247.776L82.5832 248.375L82.9321 248.573L82.5623 249.24ZM78.5363 247.026L76.5207 245.922L76.8905 245.25L78.9061 246.354L78.5363 247.026ZM74.505 244.828L73.828 244.458L72.4842 243.734L72.8436 243.057L74.1925 243.786L74.8696 244.151L74.505 244.828ZM70.4582 242.646L68.4321 241.568L68.7915 240.891L70.8175 241.969L70.4582 242.646ZM66.4061 240.49L64.3696 239.422L64.729 238.745L66.7603 239.813L66.4061 240.49ZM62.3332 238.365L60.2915 237.307L60.6457 236.625L62.6873 237.682L62.3332 238.365ZM58.2498 236.26L56.1978 235.219L56.5467 234.536L58.5988 235.578L58.2498 236.26ZM54.1509 234.188L52.0936 233.167L52.4321 232.479L54.4894 233.505L54.1509 234.188ZM50.0311 232.156L47.9686 231.151L48.3019 230.464L50.3696 231.469L50.0311 232.156ZM45.9009 230.156L43.8228 229.177L44.1509 228.484L46.229 229.469L45.9009 230.156ZM41.7446 228.203L39.6613 227.24L39.979 226.542L42.0675 227.505L41.7446 228.203ZM37.5728 226.292L35.4738 225.349L35.7863 224.651L37.8853 225.589L37.5728 226.292ZM33.3748 224.422L32.5988 224.083L31.2707 223.51L31.5728 222.807L32.9061 223.385L33.6821 223.724L33.3748 224.422ZM29.1613 222.609L27.0415 221.719L27.3384 221.016L29.4582 221.901L29.1613 222.609ZM24.9217 220.849L22.7915 219.984L23.078 219.276L25.2082 220.135L24.9217 220.849ZM20.6665 219.141L18.5259 218.313L18.8019 217.599L20.9425 218.427L20.6665 219.141ZM16.38 217.5L14.229 216.698L14.4946 215.979L16.6509 216.781L16.38 217.5ZM12.0728 215.917L9.90609 215.146L10.1613 214.422L12.328 215.193L12.0728 215.917ZM7.73942 214.396L5.55713 213.661L5.80192 212.938L7.98421 213.672L7.73942 214.396Z" fill="black"/>
</g>
</g>
</g>
<mask id="mask36_126_1887" style="mask-type:luminance" maskUnits="userSpaceOnUse" x="129" y="198" width="23" height="32">
<path d="M129.333 198.667H152V229.333H129.333V198.667Z" fill="white"/>
</mask>
<g mask="url(#mask36_126_1887)">
<mask id="mask37_126_1887" style="mask-type:luminance" maskUnits="userSpaceOnUse" x="-80" y="-28" width="443" height="391">
<path d="M248.812 362.021L-79.7761 187.63L34.1405 -27.0103L362.734 147.38L248.812 362.021Z" fill="white"/>
</mask>
<g mask="url(#mask37_126_1887)">
<mask id="mask38_126_1887" style="mask-type:luminance" maskUnits="userSpaceOnUse" x="-80" y="-28" width="443" height="391">
<path d="M248.812 362.021L-79.7761 187.63L34.1405 -27.0103L362.734 147.38L248.812 362.021Z" fill="white"/>
</mask>
<g mask="url(#mask38_126_1887)">
<path d="M133.547 210.068C134.052 209.115 134.599 208.198 135.182 207.313C135.766 206.427 136.38 205.594 137.021 204.813C137.667 204.026 138.323 203.307 139 202.651C139.672 201.995 140.354 201.417 141.036 200.922C141.719 200.422 142.391 200.005 143.052 199.682C143.713 199.359 144.354 199.125 144.974 198.99C145.594 198.849 146.177 198.807 146.724 198.859C147.276 198.917 147.781 199.063 148.239 199.307C148.703 199.552 149.109 199.891 149.458 200.313C149.812 200.74 150.104 201.245 150.338 201.833C150.568 202.422 150.734 203.083 150.838 203.818C150.943 204.547 150.979 205.333 150.948 206.182C150.917 207.026 150.818 207.912 150.651 208.839C150.489 209.761 150.26 210.714 149.974 211.682C149.682 212.656 149.333 213.63 148.932 214.609C148.526 215.589 148.068 216.557 147.568 217.505C147.062 218.458 146.516 219.375 145.932 220.261C145.349 221.146 144.734 221.979 144.094 222.766C143.448 223.547 142.792 224.266 142.114 224.922C141.443 225.578 140.76 226.156 140.078 226.656C139.396 227.151 138.724 227.568 138.062 227.891C137.401 228.214 136.76 228.448 136.141 228.583C135.521 228.724 134.937 228.766 134.391 228.714C133.838 228.656 133.333 228.511 132.875 228.266C132.411 228.021 132.005 227.688 131.651 227.261C131.302 226.833 131.01 226.328 130.776 225.74C130.542 225.151 130.375 224.49 130.276 223.755C130.172 223.026 130.135 222.24 130.167 221.396C130.198 220.547 130.297 219.662 130.458 218.74C130.625 217.813 130.849 216.865 131.141 215.891C131.432 214.917 131.781 213.943 132.182 212.964C132.588 211.984 133.042 211.016 133.547 210.068Z" fill="black"/>
</g>
</g>
</g>
<mask id="mask39_126_1887" style="mask-type:luminance" maskUnits="userSpaceOnUse" x="101" y="182" width="22" height="33">
<path d="M101.333 182.667H122.667V214.667H101.333V182.667Z" fill="white"/>
</mask>
<g mask="url(#mask39_126_1887)">
<mask id="mask40_126_1887" style="mask-type:luminance" maskUnits="userSpaceOnUse" x="-80" y="-28" width="443" height="391">
<path d="M248.812 362.021L-79.7761 187.63L34.1405 -27.0103L362.734 147.38L248.812 362.021Z" fill="white"/>
</mask>
<g mask="url(#mask40_126_1887)">
<mask id="mask41_126_1887" style="mask-type:luminance" maskUnits="userSpaceOnUse" x="-80" y="-28" width="443" height="391">
<path d="M248.812 362.021L-79.7761 187.63L34.1405 -27.0103L362.734 147.38L248.812 362.021Z" fill="white"/>
</mask>
<g mask="url(#mask41_126_1887)">
<path d="M104.896 194.86C105.401 193.912 105.948 192.995 106.531 192.11C107.114 191.224 107.729 190.391 108.37 189.604C109.015 188.818 109.672 188.099 110.349 187.443C111.021 186.792 111.703 186.214 112.385 185.714C113.068 185.214 113.739 184.802 114.401 184.479C115.062 184.151 115.703 183.922 116.323 183.781C116.943 183.646 117.526 183.604 118.073 183.656C118.625 183.709 119.13 183.86 119.588 184.104C120.052 184.349 120.458 184.683 120.807 185.11C121.161 185.531 121.453 186.042 121.687 186.63C121.922 187.219 122.088 187.88 122.187 188.61C122.291 189.344 122.328 190.13 122.297 190.974C122.265 191.818 122.166 192.703 122.005 193.63C121.838 194.558 121.614 195.505 121.323 196.479C121.031 197.448 120.682 198.427 120.281 199.406C119.875 200.386 119.422 201.349 118.916 202.302C118.411 203.25 117.864 204.167 117.281 205.052C116.698 205.938 116.083 206.771 115.443 207.558C114.797 208.344 114.14 209.063 113.463 209.719C112.791 210.37 112.109 210.948 111.427 211.448C110.745 211.948 110.073 212.36 109.411 212.688C108.75 213.011 108.109 213.24 107.489 213.38C106.87 213.516 106.286 213.563 105.739 213.505C105.187 213.453 104.682 213.302 104.224 213.058C103.76 212.813 103.354 212.479 103.005 212.052C102.651 211.63 102.359 211.125 102.125 210.531C101.896 209.943 101.724 209.281 101.625 208.552C101.521 207.823 101.484 207.031 101.515 206.188C101.547 205.344 101.646 204.459 101.812 203.531C101.974 202.604 102.203 201.656 102.489 200.683C102.781 199.714 103.13 198.74 103.531 197.755C103.937 196.776 104.396 195.813 104.896 194.86Z" fill="black"/>
</g>
</g>
</g>
<mask id="mask42_126_1887" style="mask-type:luminance" maskUnits="userSpaceOnUse" x="93" y="164" width="78" height="60">
<path d="M93.3333 164H170.667V224H93.3333V164Z" fill="white"/>
</mask>
<g mask="url(#mask42_126_1887)">
<mask id="mask43_126_1887" style="mask-type:luminance" maskUnits="userSpaceOnUse" x="-80" y="-28" width="443" height="391">
<path d="M248.812 362.021L-79.7761 187.63L34.1405 -27.0105L362.734 147.38L248.812 362.021Z" fill="white"/>
</mask>
<g mask="url(#mask43_126_1887)">
<mask id="mask44_126_1887" style="mask-type:luminance" maskUnits="userSpaceOnUse" x="-80" y="-28" width="443" height="391">
<path d="M248.812 362.021L-79.7761 187.63L34.1405 -27.0105L362.734 147.38L248.812 362.021Z" fill="white"/>
</mask>
<g mask="url(#mask44_126_1887)">
<path d="M165.667 222.25C172.25 215.781 170.151 205.187 168.365 197.182C167.484 192.943 166.047 188.901 164.052 185.052C162.146 181.562 159.713 178.484 156.76 175.823C153.76 173.135 150.437 170.932 146.792 169.213C143.141 167.5 139.328 166.344 135.338 165.75C131.474 165.203 127.599 165.125 123.713 165.51C119.823 165.89 116.042 166.729 112.354 168.021C108.203 169.453 104.255 171.328 100.516 173.63C97.1354 175.724 92.276 179.078 94.6614 183.661C94.8125 183.943 95.0104 184.182 95.2604 184.38C95.5104 184.578 95.7864 184.719 96.0937 184.802C96.401 184.885 96.7135 184.901 97.0312 184.854C97.3437 184.807 97.6354 184.698 97.9062 184.531C98.177 184.364 98.401 184.146 98.5833 183.885C98.7604 183.625 98.8854 183.338 98.9427 183.026C99.0052 182.713 99 182.401 98.9322 182.088C98.8645 181.776 98.7395 181.495 98.552 181.234C98.7291 181.573 98.5052 181.14 98.5416 181.14C98.8177 181.161 98.3125 181.578 98.5677 181.349C98.5677 181.349 98.7031 180.833 98.6145 181.104C98.5208 181.375 98.7083 180.922 98.7395 180.864C98.8333 180.62 98.9791 180.406 99.1875 180.234C99.4375 179.948 99.7135 179.682 100.01 179.432C101.271 178.495 102.588 177.646 103.963 176.885C106.896 175.156 109.969 173.724 113.182 172.588C119.604 170.198 126.224 169.328 133.042 169.984C136.484 170.354 139.807 171.187 143.021 172.484C146.229 173.781 149.198 175.495 151.927 177.62C154.661 179.76 156.979 182.276 158.891 185.177C160.844 188.318 162.281 191.682 163.203 195.265C164.411 199.443 165.177 203.698 165.505 208.031C165.74 211.979 165.318 216.177 162.365 219.083C160.245 221.156 163.594 224.307 165.698 222.239L165.667 222.25Z" fill="black"/>
</g>
</g>
</g>
<mask id="mask45_126_1887" style="mask-type:luminance" maskUnits="userSpaceOnUse" x="89" y="172" width="14" height="16">
<path d="M89.3333 172H102.667V188H89.3333V172Z" fill="white"/>
</mask>
<g mask="url(#mask45_126_1887)">
<mask id="mask46_126_1887" style="mask-type:luminance" maskUnits="userSpaceOnUse" x="-80" y="-28" width="443" height="391">
<path d="M248.812 362.021L-79.7761 187.63L34.1405 -27.0105L362.734 147.38L248.812 362.021Z" fill="white"/>
</mask>
<g mask="url(#mask46_126_1887)">
<mask id="mask47_126_1887" style="mask-type:luminance" maskUnits="userSpaceOnUse" x="-80" y="-28" width="443" height="391">
<path d="M248.812 362.021L-79.7761 187.63L34.1405 -27.0105L362.734 147.38L248.812 362.021Z" fill="white"/>
</mask>
<g mask="url(#mask47_126_1887)">
<path d="M100.536 182.385C100.797 182.526 100.109 182.234 100.536 182.385L100.224 182.219C99.9946 182.099 99.7655 181.974 99.5467 181.859L98.8696 181.5C98.6665 181.344 98.453 181.203 98.2238 181.078C98.4634 181.255 98.5103 181.292 98.3801 181.161L98.2342 181.083L97.9582 180.87C97.7603 180.703 97.5519 180.531 97.3644 180.354C97.1717 180.172 96.9426 179.948 96.7498 179.734L96.5103 179.474L96.3696 179.307L96.2863 179.198L96.0207 178.844C95.8748 178.63 95.729 178.411 95.5936 178.182C95.453 177.953 95.328 177.74 95.203 177.51L95.0415 177.198C95.1301 177.438 94.8436 176.813 95.0415 177.198C94.8488 176.714 94.6821 176.234 94.5155 175.719C94.4426 175.464 94.3853 175.219 94.328 174.964C94.2915 174.849 94.2707 174.734 94.2603 174.615C94.2498 175.141 94.2603 174.615 94.2551 174.51C94.2394 174.208 94.1613 173.917 94.0363 173.646C93.9061 173.37 93.729 173.13 93.5051 172.927C93.2811 172.719 93.0259 172.563 92.7446 172.453C92.4634 172.349 92.1665 172.297 91.8644 172.302C91.5571 172.318 91.2707 172.385 90.9894 172.516C90.7134 172.641 90.4738 172.818 90.2655 173.047C90.0623 173.271 89.9061 173.526 89.8019 173.813C89.6978 174.099 89.6509 174.396 89.6665 174.698C89.8332 176.078 90.1926 177.411 90.7342 178.693C91.2811 179.974 91.9894 181.151 92.8696 182.229C93.7498 183.313 94.7603 184.25 95.9009 185.042C97.0415 185.839 98.2759 186.458 99.5936 186.906C99.8905 186.969 100.187 186.974 100.489 186.922C100.786 186.87 101.068 186.76 101.323 186.599C101.578 186.432 101.797 186.229 101.969 185.979C102.146 185.729 102.265 185.453 102.333 185.156C102.39 184.859 102.39 184.563 102.333 184.266C102.276 183.969 102.167 183.693 102.005 183.443C101.844 183.188 101.64 182.969 101.39 182.792C101.146 182.615 100.88 182.49 100.583 182.417L100.536 182.385Z" fill="black"/>
</g>
</g>
</g>
<mask id="mask48_126_1887" style="mask-type:luminance" maskUnits="userSpaceOnUse" x="154" y="217" width="24" height="7">
<path d="M154.667 217.333H177.333V224H154.667V217.333Z" fill="white"/>
</mask>
<g mask="url(#mask48_126_1887)">
<mask id="mask49_126_1887" style="mask-type:luminance" maskUnits="userSpaceOnUse" x="-80" y="-28" width="443" height="391">
<path d="M248.813 362.021L-79.7759 187.63L34.1408 -27.0105L362.735 147.38L248.813 362.021Z" fill="white"/>
</mask>
<g mask="url(#mask49_126_1887)">
<mask id="mask50_126_1887" style="mask-type:luminance" maskUnits="userSpaceOnUse" x="-80" y="-28" width="443" height="391">
<path d="M248.813 362.021L-79.7759 187.63L34.1408 -27.0105L362.735 147.38L248.813 362.021Z" fill="white"/>
</mask>
<g mask="url(#mask50_126_1887)">
<path d="M174.177 218.552C168.99 219.104 163.859 218.781 158.781 217.599C158.484 217.531 158.182 217.526 157.886 217.578C157.583 217.63 157.302 217.739 157.047 217.901C156.792 218.068 156.573 218.271 156.396 218.521C156.224 218.771 156.104 219.047 156.037 219.344C155.969 219.641 155.964 219.943 156.016 220.239C156.068 220.542 156.177 220.823 156.344 221.078C156.505 221.333 156.714 221.552 156.964 221.729C157.214 221.901 157.484 222.021 157.787 222.088C163.255 223.349 168.781 223.698 174.365 223.146C174.682 223.156 174.99 223.104 175.287 222.984C175.583 222.864 175.844 222.693 176.068 222.469C176.292 222.245 176.458 221.984 176.578 221.687C176.693 221.391 176.745 221.083 176.735 220.766C176.719 220.448 176.646 220.146 176.511 219.854C176.37 219.568 176.182 219.323 175.943 219.114C175.703 218.906 175.427 218.75 175.125 218.656C174.823 218.562 174.511 218.531 174.193 218.562L174.177 218.552Z" fill="black"/>
</g>
</g>
</g>
</svg>
